M48
; DRILL file {KiCad (6.0.4-0)} date Monday, May 02, 2022 at 02:54:23 PM
; FORMAT={-:-/ absolute / metric / decimal}
; #@! TF.CreationDate,2022-05-02T14:54:23-04:00
; #@! TF.GenerationSoftware,Kicad,Pcbnew,(6.0.4-0)
; #@! TF.FileFunction,Plated,1,2,PTH
FMAT,2
METRIC
; #@! TA.AperFunction,Plated,PTH,ViaDrill
T1C0.300
; #@! TA.AperFunction,Plated,PTH,ComponentDrill
T2C0.331
; #@! TA.AperFunction,Plated,PTH,ViaDrill
T3C0.400
; #@! TA.AperFunction,Plated,PTH,ViaDrill
T4C0.500
; #@! TA.AperFunction,Plated,PTH,ComponentDrill
T5C1.000
; #@! TA.AperFunction,Plated,PTH,ComponentDrill
T6C1.200
; #@! TA.AperFunction,Plated,PTH,ComponentDrill
T7C4.000
%
G90
G05
T1
X89.82Y-61.55
X89.86Y-63.32
X90.8Y-84.81
X91.81Y-85.94
X92.3Y-87.78
X92.77Y-70.55
X93.01Y-85.34
X93.14Y-88.88
X93.15Y-87.12
X94.57Y-85.31
X94.672Y-70.63
X94.7Y-61.69
X94.72Y-68.8
X94.722Y-64.57
X94.74Y-66.53
X96.77Y-81.8
X97.85Y-85.89
X98.64Y-85.03
X99.65Y-67.87
X99.99Y-84.06
X100.22Y-78.01
X101.55Y-83.37
X101.88Y-77.974
X101.97Y-86.96
X103.02Y-86.16
X103.41Y-83.38
X104.08Y-85.1
X104.12Y-78.48
X104.78Y-82.64
X105.52Y-83.99
X106.54Y-82.65
X107.96Y-82.75
X109.62Y-76.0
X110.35Y-78.66
X112.94Y-77.23
X113.32Y-78.78
X113.71Y-73.49
X114.45Y-82.99
X114.958Y-81.043
X115.64Y-79.93
X118.11Y-62.88
X122.06Y-62.74
X124.24Y-81.61
X127.34Y-73.68
X128.61Y-72.88
X128.68Y-68.83
X130.54Y-67.11
X130.82Y-87.18
X132.6Y-60.27
X133.44Y-67.24
X134.62Y-88.47
X135.16Y-67.69
X136.1Y-64.0
X136.133Y-61.03
X136.21Y-89.25
X136.25Y-68.92
X136.34Y-67.48
X137.425Y-70.495
X137.58Y-68.59
X138.692Y-84.833
X141.39Y-67.26
X143.32Y-67.69
X143.51Y-70.05
X143.7Y-66.57
X144.32Y-87.19
X145.25Y-79.25
X146.29Y-78.7
X146.81Y-69.21
X147.39Y-67.67
X147.71Y-78.61
X148.244Y-81.254
X148.474Y-68.796
X148.64Y-77.6
X148.69Y-70.97
X148.83Y-74.95
X148.87Y-72.97
X148.89Y-76.27
X149.42Y-83.14
X150.77Y-73.92
X150.8Y-69.33
X150.8Y-71.74
X151.03Y-82.92
X151.21Y-80.95
X151.75Y-70.28
X151.87Y-74.68
X152.15Y-73.05
X152.67Y-71.21
X152.97Y-80.95
X153.17Y-74.72
X153.29Y-85.45
X153.4Y-83.05
X153.45Y-71.93
X154.348Y-82.213
X154.39Y-72.84
X154.94Y-81.24
X154.96Y-76.62
X154.96Y-78.47
X154.96Y-79.85
X155.01Y-74.03
X155.01Y-75.27
T2
X129.32Y-71.06
X129.32Y-79.06
X143.8Y-61.79
X151.8Y-61.79
X167.01Y-76.73
X167.01Y-84.73
T3
X84.81Y-70.13
X86.16Y-68.81
X87.16Y-67.35
X99.894Y-71.697
X100.75Y-87.24
X101.6Y-71.67
X103.11Y-73.27
X103.38Y-71.88
X108.24Y-73.69
X110.36Y-77.08
X117.24Y-63.94
X117.24Y-65.72
X117.37Y-70.72
X117.691Y-68.179
X118.06Y-78.83
X120.92Y-73.81
X120.95Y-75.33
X120.98Y-76.98
X121.27Y-72.29
X126.45Y-75.72
X126.49Y-70.8
X126.49Y-74.46
X127.03Y-77.54
X128.27Y-76.14
X128.54Y-77.48
X128.75Y-89.32
X129.92Y-77.52
X130.59Y-68.23
X131.88Y-78.34
X133.5Y-68.75
X133.56Y-70.21
X133.85Y-76.1
X133.86Y-73.99
X135.43Y-75.14
X135.57Y-70.99
X135.86Y-72.65
X136.965Y-73.736
X137.55Y-72.28
X138.24Y-61.03
X139.23Y-64.0
X141.84Y-89.25
X143.15Y-86.17
X143.295Y-84.435
X144.49Y-86.13
X149.445Y-78.285
X159.91Y-83.29
X161.42Y-81.0
X161.43Y-82.73
T4
X80.87Y-62.93
X80.87Y-66.21
X80.87Y-82.41
X80.87Y-84.21
X80.87Y-85.96
X80.93Y-64.57
X84.65Y-77.82
X84.66Y-76.61
X87.144Y-92.1
X87.21Y-56.8
X88.11Y-71.49
X89.63Y-71.74
X89.836Y-92.1
X89.902Y-56.8
X90.05Y-67.79
X90.68Y-74.68
X91.68Y-74.71
X92.528Y-92.1
X92.594Y-56.8
X93.387Y-76.169
X95.22Y-92.1
X95.286Y-56.8
X97.912Y-92.1
X97.978Y-56.8
X100.465Y-62.534
X101.31Y-74.87
X101.73Y-75.78
X104.58Y-92.1
X106.054Y-56.8
X108.35Y-63.34
X108.43Y-64.8
X108.48Y-66.55
X108.51Y-69.08
X108.51Y-70.27
X108.746Y-56.8
X109.41Y-62.33
X110.57Y-92.1
X110.66Y-71.58
X110.77Y-68.92
X110.93Y-67.09
X111.19Y-62.3
X111.438Y-56.8
X111.86Y-92.1
X112.263Y-65.633
X112.6Y-68.41
X112.869Y-62.332
X113.58Y-67.22
X113.66Y-72.35
X113.69Y-70.46
X113.73Y-71.38
X114.13Y-56.8
X116.792Y-92.09
X116.858Y-56.79
X117.68Y-89.44
X117.72Y-74.08
X119.26Y-81.93
X119.55Y-56.79
X120.14Y-85.98
X120.55Y-81.93
X121.99Y-81.9
X122.242Y-56.79
X122.53Y-85.41
X122.6Y-88.24
X122.86Y-76.3
X123.22Y-80.84
X123.88Y-75.69
X123.96Y-85.43
X124.208Y-77.762
X124.78Y-88.31
X124.934Y-56.79
X125.27Y-85.41
X126.163Y-79.717
X126.5Y-85.39
X126.827Y-80.786
X127.626Y-56.79
X127.89Y-88.3
X130.2Y-80.99
X130.318Y-56.79
X130.33Y-85.96
X131.24Y-83.98
X131.27Y-82.28
X132.56Y-81.81
X132.77Y-88.51
X132.86Y-85.39
X133.01Y-56.79
X133.727Y-86.29
X134.01Y-82.06
X135.44Y-85.63
X135.51Y-81.81
X135.702Y-56.79
X136.82Y-85.71
X137.87Y-85.71
X138.32Y-81.75
X138.394Y-56.79
X138.67Y-88.71
X139.42Y-81.88
X139.9Y-85.27
X140.36Y-88.16
X140.48Y-81.95
X141.086Y-56.79
X143.712Y-92.09
X143.778Y-56.79
X146.272Y-92.12
X146.338Y-56.82
X148.964Y-92.12
X149.03Y-56.82
X151.656Y-92.12
X151.722Y-56.82
X154.414Y-56.82
X157.106Y-56.82
X159.732Y-92.12
X159.798Y-56.82
X162.424Y-92.12
X162.49Y-56.82
X169.11Y-63.052
X169.11Y-65.744
X169.11Y-68.436
X169.11Y-71.128
X169.11Y-73.82
X169.11Y-76.312
X169.11Y-79.004
X169.11Y-81.696
X169.11Y-84.388
T5
X95.51Y-74.03
X95.51Y-76.57
X102.8Y-64.785
X102.8Y-67.325
X106.28Y-87.06
X108.82Y-87.06
X112.76Y-59.435
X112.82Y-85.005
X115.3Y-59.435
X115.36Y-85.005
X118.65Y-69.475
X121.19Y-69.475
X128.41Y-63.31
X128.41Y-65.85
X128.5Y-58.64
X132.085Y-62.49
X132.085Y-65.03
X136.14Y-79.755
X138.68Y-79.755
X142.17Y-68.88
X142.36Y-77.13
X144.71Y-68.88
X144.77Y-65.31
X144.9Y-77.13
X147.46Y-59.14
X147.46Y-61.68
X164.31Y-80.095
X164.31Y-82.635
T6
X154.38Y-67.62
X158.79Y-67.46
X159.87Y-70.82
X163.04Y-75.74
T7
X102.02Y-59.188
X155.69Y-90.147
T0
M30
