%FSLAX45Y45*%
G04 Gerber Fmt 4.5, Leading zero omitted, Abs format (unit mm)*
G04 Created by KiCad (PCBNEW (6.0.4-0)) date 2022-05-03 08:29:12*
%MOMM*%
%LPD*%
G01*
G04 APERTURE LIST*
%TA.AperFunction,Profile*%
%ADD10C,0.100000*%
%TD*%
%ADD11C,0.200000*%
%ADD12C,0.030000*%
%ADD13C,0.033060*%
%ADD14C,0.040000*%
%ADD15C,0.050000*%
%ADD16C,0.100000*%
%ADD17C,0.120000*%
%ADD18C,0.400000*%
G04 APERTURE END LIST*
D10*
X8000000Y-9300000D02*
X8000000Y-5600000D01*
X17000000Y-5600000D02*
X17000000Y-9300000D01*
X17000000Y-9300000D02*
X8000000Y-9300000D01*
X8000000Y-5600000D02*
X17000000Y-5600000D01*
D11*
D12*
X8967000Y-6140000D02*
X8997000Y-6170000D01*
X8997000Y-6140000D02*
X8967000Y-6170000D01*
X8971000Y-6317000D02*
X9001000Y-6347000D01*
X9001000Y-6317000D02*
X8971000Y-6347000D01*
X9065000Y-8466000D02*
X9095000Y-8496000D01*
X9095000Y-8466000D02*
X9065000Y-8496000D01*
X9166000Y-8579000D02*
X9196000Y-8609000D01*
X9196000Y-8579000D02*
X9166000Y-8609000D01*
X9215000Y-8763000D02*
X9245000Y-8793000D01*
X9245000Y-8763000D02*
X9215000Y-8793000D01*
X9262000Y-7040000D02*
X9292000Y-7070000D01*
X9292000Y-7040000D02*
X9262000Y-7070000D01*
X9286000Y-8519000D02*
X9316000Y-8549000D01*
X9316000Y-8519000D02*
X9286000Y-8549000D01*
X9299000Y-8873000D02*
X9329000Y-8903000D01*
X9329000Y-8873000D02*
X9299000Y-8903000D01*
X9300000Y-8697000D02*
X9330000Y-8727000D01*
X9330000Y-8697000D02*
X9300000Y-8727000D01*
X9442000Y-8516000D02*
X9472000Y-8546000D01*
X9472000Y-8516000D02*
X9442000Y-8546000D01*
X9452216Y-7047990D02*
X9482216Y-7077990D01*
X9482216Y-7047990D02*
X9452216Y-7077990D01*
X9455000Y-6154000D02*
X9485000Y-6184000D01*
X9485000Y-6154000D02*
X9455000Y-6184000D01*
X9457000Y-6865000D02*
X9487000Y-6895000D01*
X9487000Y-6865000D02*
X9457000Y-6895000D01*
X9457233Y-6441999D02*
X9487233Y-6471999D01*
X9487233Y-6441999D02*
X9457233Y-6471999D01*
X9459000Y-6638000D02*
X9489000Y-6668000D01*
X9489000Y-6638000D02*
X9459000Y-6668000D01*
X9662000Y-8165000D02*
X9692000Y-8195000D01*
X9692000Y-8165000D02*
X9662000Y-8195000D01*
X9770000Y-8574000D02*
X9800000Y-8604000D01*
X9800000Y-8574000D02*
X9770000Y-8604000D01*
X9849000Y-8488000D02*
X9879000Y-8518000D01*
X9879000Y-8488000D02*
X9849000Y-8518000D01*
X9949964Y-6772029D02*
X9979964Y-6802029D01*
X9979964Y-6772029D02*
X9949964Y-6802029D01*
X9984000Y-8391000D02*
X10014000Y-8421000D01*
X10014000Y-8391000D02*
X9984000Y-8421000D01*
X10007000Y-7786000D02*
X10037000Y-7816000D01*
X10037000Y-7786000D02*
X10007000Y-7816000D01*
X10140000Y-8322000D02*
X10170000Y-8352000D01*
X10170000Y-8322000D02*
X10140000Y-8352000D01*
X10172982Y-7782352D02*
X10202982Y-7812352D01*
X10202982Y-7782352D02*
X10172982Y-7812352D01*
X10182000Y-8681000D02*
X10212000Y-8711000D01*
X10212000Y-8681000D02*
X10182000Y-8711000D01*
X10287000Y-8601000D02*
X10317000Y-8631000D01*
X10317000Y-8601000D02*
X10287000Y-8631000D01*
X10326000Y-8323000D02*
X10356000Y-8353000D01*
X10356000Y-8323000D02*
X10326000Y-8353000D01*
X10393000Y-8495000D02*
X10423000Y-8525000D01*
X10423000Y-8495000D02*
X10393000Y-8525000D01*
X10397000Y-7833000D02*
X10427000Y-7863000D01*
X10427000Y-7833000D02*
X10397000Y-7863000D01*
X10463000Y-8249000D02*
X10493000Y-8279000D01*
X10493000Y-8249000D02*
X10463000Y-8279000D01*
X10537000Y-8384000D02*
X10567000Y-8414000D01*
X10567000Y-8384000D02*
X10537000Y-8414000D01*
X10639000Y-8250000D02*
X10669000Y-8280000D01*
X10669000Y-8250000D02*
X10639000Y-8280000D01*
X10781000Y-8260000D02*
X10811000Y-8290000D01*
X10811000Y-8260000D02*
X10781000Y-8290000D01*
X10947000Y-7585000D02*
X10977000Y-7615000D01*
X10977000Y-7585000D02*
X10947000Y-7615000D01*
X11020000Y-7851000D02*
X11050000Y-7881000D01*
X11050000Y-7851000D02*
X11020000Y-7881000D01*
X11279000Y-7708000D02*
X11309000Y-7738000D01*
X11309000Y-7708000D02*
X11279000Y-7738000D01*
X11317000Y-7863000D02*
X11347000Y-7893000D01*
X11347000Y-7863000D02*
X11317000Y-7893000D01*
X11356000Y-7334000D02*
X11386000Y-7364000D01*
X11386000Y-7334000D02*
X11356000Y-7364000D01*
X11430000Y-8284000D02*
X11460000Y-8314000D01*
X11460000Y-8284000D02*
X11430000Y-8314000D01*
X11480845Y-8089289D02*
X11510845Y-8119289D01*
X11510845Y-8089289D02*
X11480845Y-8119289D01*
X11549000Y-7978000D02*
X11579000Y-8008000D01*
X11579000Y-7978000D02*
X11549000Y-8008000D01*
X11796000Y-6273000D02*
X11826000Y-6303000D01*
X11826000Y-6273000D02*
X11796000Y-6303000D01*
X12191000Y-6259000D02*
X12221000Y-6289000D01*
X12221000Y-6259000D02*
X12191000Y-6289000D01*
X12409000Y-8146000D02*
X12439000Y-8176000D01*
X12439000Y-8146000D02*
X12409000Y-8176000D01*
X12719000Y-7353000D02*
X12749000Y-7383000D01*
X12749000Y-7353000D02*
X12719000Y-7383000D01*
X12800000Y-6881000D02*
X12830000Y-6911000D01*
X12830000Y-6881000D02*
X12800000Y-6911000D01*
X12846000Y-7273000D02*
X12876000Y-7303000D01*
X12876000Y-7273000D02*
X12846000Y-7303000D01*
X13039000Y-6696000D02*
X13069000Y-6726000D01*
X13069000Y-6696000D02*
X13039000Y-6726000D01*
X13245000Y-6012000D02*
X13275000Y-6042000D01*
X13275000Y-6012000D02*
X13245000Y-6042000D01*
X13329000Y-6709000D02*
X13359000Y-6739000D01*
X13359000Y-6709000D02*
X13329000Y-6739000D01*
X13501000Y-6754000D02*
X13531000Y-6784000D01*
X13531000Y-6754000D02*
X13501000Y-6784000D01*
X13595000Y-6385000D02*
X13625000Y-6415000D01*
X13625000Y-6385000D02*
X13595000Y-6415000D01*
X13598337Y-6088002D02*
X13628337Y-6118002D01*
X13628337Y-6088002D02*
X13598337Y-6118002D01*
X13610000Y-6877000D02*
X13640000Y-6907000D01*
X13640000Y-6877000D02*
X13610000Y-6907000D01*
X13619000Y-6733000D02*
X13649000Y-6763000D01*
X13649000Y-6733000D02*
X13619000Y-6763000D01*
X13727500Y-7034500D02*
X13757500Y-7064500D01*
X13757500Y-7034500D02*
X13727500Y-7064500D01*
X13743000Y-6844000D02*
X13773000Y-6874000D01*
X13773000Y-6844000D02*
X13743000Y-6874000D01*
X13827000Y-8710000D02*
X13857000Y-8740000D01*
X13857000Y-8710000D02*
X13827000Y-8740000D01*
X14124000Y-6711000D02*
X14154000Y-6741000D01*
X14154000Y-6711000D02*
X14124000Y-6741000D01*
X14317000Y-6754000D02*
X14347000Y-6784000D01*
X14347000Y-6754000D02*
X14317000Y-6784000D01*
X14336000Y-6990000D02*
X14366000Y-7020000D01*
X14366000Y-6990000D02*
X14336000Y-7020000D01*
X14355000Y-6642000D02*
X14385000Y-6672000D01*
X14385000Y-6642000D02*
X14355000Y-6672000D01*
X14417000Y-8704000D02*
X14447000Y-8734000D01*
X14447000Y-8704000D02*
X14417000Y-8734000D01*
X14510000Y-7910000D02*
X14540000Y-7940000D01*
X14540000Y-7910000D02*
X14510000Y-7940000D01*
X14614000Y-7855000D02*
X14644000Y-7885000D01*
X14644000Y-7855000D02*
X14614000Y-7885000D01*
X14666000Y-6906000D02*
X14696000Y-6936000D01*
X14696000Y-6906000D02*
X14666000Y-6936000D01*
X14724000Y-6752000D02*
X14754000Y-6782000D01*
X14754000Y-6752000D02*
X14724000Y-6782000D01*
X14756000Y-7846000D02*
X14786000Y-7876000D01*
X14786000Y-7846000D02*
X14756000Y-7876000D01*
X14809408Y-8110390D02*
X14839408Y-8140390D01*
X14839408Y-8110390D02*
X14809408Y-8140390D01*
X14832422Y-6864553D02*
X14862422Y-6894553D01*
X14862422Y-6864553D02*
X14832422Y-6894553D01*
X14849000Y-7745000D02*
X14879000Y-7775000D01*
X14879000Y-7745000D02*
X14849000Y-7775000D01*
X14854000Y-7082000D02*
X14884000Y-7112000D01*
X14884000Y-7082000D02*
X14854000Y-7112000D01*
X14868000Y-7480000D02*
X14898000Y-7510000D01*
X14898000Y-7480000D02*
X14868000Y-7510000D01*
X14872000Y-7282000D02*
X14902000Y-7312000D01*
X14902000Y-7282000D02*
X14872000Y-7312000D01*
X14874000Y-7612000D02*
X14904000Y-7642000D01*
X14904000Y-7612000D02*
X14874000Y-7642000D01*
X14927000Y-8299000D02*
X14957000Y-8329000D01*
X14957000Y-8299000D02*
X14927000Y-8329000D01*
X15062000Y-7377000D02*
X15092000Y-7407000D01*
X15092000Y-7377000D02*
X15062000Y-7407000D01*
X15065000Y-6918000D02*
X15095000Y-6948000D01*
X15095000Y-6918000D02*
X15065000Y-6948000D01*
X15065000Y-7159000D02*
X15095000Y-7189000D01*
X15095000Y-7159000D02*
X15065000Y-7189000D01*
X15088000Y-8277000D02*
X15118000Y-8307000D01*
X15118000Y-8277000D02*
X15088000Y-8307000D01*
X15106000Y-8080000D02*
X15136000Y-8110000D01*
X15136000Y-8080000D02*
X15106000Y-8110000D01*
X15160000Y-7013000D02*
X15190000Y-7043000D01*
X15190000Y-7013000D02*
X15160000Y-7043000D01*
X15172000Y-7453000D02*
X15202000Y-7483000D01*
X15202000Y-7453000D02*
X15172000Y-7483000D01*
X15200000Y-7290000D02*
X15230000Y-7320000D01*
X15230000Y-7290000D02*
X15200000Y-7320000D01*
X15252000Y-7106000D02*
X15282000Y-7136000D01*
X15282000Y-7106000D02*
X15252000Y-7136000D01*
X15291000Y-8083000D02*
X15321000Y-8113000D01*
X15321000Y-8083000D02*
X15291000Y-8113000D01*
X15302000Y-7457000D02*
X15332000Y-7487000D01*
X15332000Y-7457000D02*
X15302000Y-7487000D01*
X15314000Y-8530000D02*
X15344000Y-8560000D01*
X15344000Y-8530000D02*
X15314000Y-8560000D01*
X15325000Y-8290000D02*
X15355000Y-8320000D01*
X15355000Y-8290000D02*
X15325000Y-8320000D01*
X15330000Y-7178000D02*
X15360000Y-7208000D01*
X15360000Y-7178000D02*
X15330000Y-7208000D01*
X15419803Y-8206252D02*
X15449803Y-8236252D01*
X15449803Y-8206252D02*
X15419803Y-8236252D01*
X15424000Y-7269000D02*
X15454000Y-7299000D01*
X15454000Y-7269000D02*
X15424000Y-7299000D01*
X15479000Y-8109000D02*
X15509000Y-8139000D01*
X15509000Y-8109000D02*
X15479000Y-8139000D01*
X15481000Y-7647000D02*
X15511000Y-7677000D01*
X15511000Y-7647000D02*
X15481000Y-7677000D01*
X15481000Y-7832000D02*
X15511000Y-7862000D01*
X15511000Y-7832000D02*
X15481000Y-7862000D01*
X15481000Y-7970000D02*
X15511000Y-8000000D01*
X15511000Y-7970000D02*
X15481000Y-8000000D01*
X15486000Y-7388000D02*
X15516000Y-7418000D01*
X15516000Y-7388000D02*
X15486000Y-7418000D01*
X15486000Y-7512000D02*
X15516000Y-7542000D01*
X15516000Y-7512000D02*
X15486000Y-7542000D01*
D13*
X12948530Y-7106000D02*
G75*
G03*
X12948530Y-7106000I-16530J0D01*
G01*
X12948530Y-7906000D02*
G75*
G03*
X12948530Y-7906000I-16530J0D01*
G01*
X14396530Y-6179000D02*
G75*
G03*
X14396530Y-6179000I-16530J0D01*
G01*
X15196530Y-6179000D02*
G75*
G03*
X15196530Y-6179000I-16530J0D01*
G01*
X16717530Y-7673000D02*
G75*
G03*
X16717530Y-7673000I-16530J0D01*
G01*
X16717530Y-8473000D02*
G75*
G03*
X16717530Y-8473000I-16530J0D01*
G01*
D14*
X8481000Y-6993000D02*
X8481000Y-7033000D01*
X8461000Y-7013000D02*
X8501000Y-7013000D01*
X8591000Y-7985000D02*
X8591000Y-8025000D01*
X8571000Y-8005000D02*
X8611000Y-8005000D01*
X8616000Y-6861000D02*
X8616000Y-6901000D01*
X8596000Y-6881000D02*
X8636000Y-6881000D01*
X8716000Y-6715000D02*
X8716000Y-6755000D01*
X8696000Y-6735000D02*
X8736000Y-6735000D01*
X8813000Y-7931000D02*
X8813000Y-7971000D01*
X8793000Y-7951000D02*
X8833000Y-7951000D01*
X8961762Y-7608682D02*
X8961762Y-7648682D01*
X8941762Y-7628682D02*
X8981762Y-7628682D01*
X9989351Y-7149712D02*
X9989351Y-7189712D01*
X9969351Y-7169712D02*
X10009351Y-7169712D01*
X10075000Y-8704000D02*
X10075000Y-8744000D01*
X10055000Y-8724000D02*
X10095000Y-8724000D01*
X10160000Y-7147000D02*
X10160000Y-7187000D01*
X10140000Y-7167000D02*
X10180000Y-7167000D01*
X10311000Y-7307000D02*
X10311000Y-7347000D01*
X10291000Y-7327000D02*
X10331000Y-7327000D01*
X10338000Y-7168000D02*
X10338000Y-7208000D01*
X10318000Y-7188000D02*
X10358000Y-7188000D01*
X10824000Y-7349000D02*
X10824000Y-7389000D01*
X10804000Y-7369000D02*
X10844000Y-7369000D01*
X11036000Y-7688000D02*
X11036000Y-7728000D01*
X11016000Y-7708000D02*
X11056000Y-7708000D01*
X11649000Y-8748000D02*
X11649000Y-8788000D01*
X11629000Y-8768000D02*
X11669000Y-8768000D01*
X11724000Y-6374000D02*
X11724000Y-6414000D01*
X11704000Y-6394000D02*
X11744000Y-6394000D01*
X11724000Y-6552000D02*
X11724000Y-6592000D01*
X11704000Y-6572000D02*
X11744000Y-6572000D01*
X11737000Y-7052000D02*
X11737000Y-7092000D01*
X11717000Y-7072000D02*
X11757000Y-7072000D01*
X11769142Y-6797935D02*
X11769142Y-6837935D01*
X11749142Y-6817935D02*
X11789142Y-6817935D01*
X11806000Y-7863000D02*
X11806000Y-7903000D01*
X11786000Y-7883000D02*
X11826000Y-7883000D01*
X11880000Y-9187000D02*
X11880000Y-9227000D01*
X11860000Y-9207000D02*
X11900000Y-9207000D01*
X11959000Y-8524000D02*
X11959000Y-8564000D01*
X11939000Y-8544000D02*
X11979000Y-8544000D01*
X11965000Y-6580000D02*
X11965000Y-6620000D01*
X11945000Y-6600000D02*
X11985000Y-6600000D01*
X12092000Y-7361000D02*
X12092000Y-7401000D01*
X12072000Y-7381000D02*
X12112000Y-7381000D01*
X12095000Y-7513000D02*
X12095000Y-7553000D01*
X12075000Y-7533000D02*
X12115000Y-7533000D01*
X12098000Y-7678000D02*
X12098000Y-7718000D01*
X12078000Y-7698000D02*
X12118000Y-7698000D01*
X12127000Y-7209000D02*
X12127000Y-7249000D01*
X12107000Y-7229000D02*
X12147000Y-7229000D01*
X12153000Y-9182000D02*
X12153000Y-9222000D01*
X12133000Y-9202000D02*
X12173000Y-9202000D01*
X12176000Y-8591000D02*
X12176000Y-8631000D01*
X12156000Y-8611000D02*
X12196000Y-8611000D01*
X12272000Y-6575000D02*
X12272000Y-6615000D01*
X12252000Y-6595000D02*
X12292000Y-6595000D01*
X12339000Y-8595000D02*
X12339000Y-8635000D01*
X12319000Y-8615000D02*
X12359000Y-8615000D01*
X12449000Y-9184000D02*
X12449000Y-9224000D01*
X12429000Y-9204000D02*
X12469000Y-9204000D01*
X12583000Y-6426000D02*
X12583000Y-6466000D01*
X12563000Y-6446000D02*
X12603000Y-6446000D01*
X12632000Y-8710000D02*
X12632000Y-8750000D01*
X12612000Y-8730000D02*
X12652000Y-8730000D01*
X12645000Y-7552000D02*
X12645000Y-7592000D01*
X12625000Y-7572000D02*
X12665000Y-7572000D01*
X12649000Y-7060000D02*
X12649000Y-7100000D01*
X12629000Y-7080000D02*
X12669000Y-7080000D01*
X12649000Y-7426000D02*
X12649000Y-7466000D01*
X12629000Y-7446000D02*
X12669000Y-7446000D01*
X12683000Y-6594000D02*
X12683000Y-6634000D01*
X12663000Y-6614000D02*
X12703000Y-6614000D01*
X12690799Y-6232342D02*
X12690799Y-6272342D01*
X12670799Y-6252342D02*
X12710799Y-6252342D01*
X12703000Y-7734000D02*
X12703000Y-7774000D01*
X12683000Y-7754000D02*
X12723000Y-7754000D01*
X12740000Y-6729000D02*
X12740000Y-6769000D01*
X12720000Y-6749000D02*
X12760000Y-6749000D01*
X12770000Y-9188000D02*
X12770000Y-9228000D01*
X12750000Y-9208000D02*
X12790000Y-9208000D01*
X12821000Y-8710000D02*
X12821000Y-8750000D01*
X12801000Y-8730000D02*
X12841000Y-8730000D01*
X12827000Y-7594000D02*
X12827000Y-7634000D01*
X12807000Y-7614000D02*
X12847000Y-7614000D01*
X12854000Y-7728000D02*
X12854000Y-7768000D01*
X12834000Y-7748000D02*
X12874000Y-7748000D01*
X12909000Y-9144000D02*
X12909000Y-9184000D01*
X12889000Y-9164000D02*
X12929000Y-9164000D01*
X12992000Y-7732000D02*
X12992000Y-7772000D01*
X12972000Y-7752000D02*
X13012000Y-7752000D01*
X13021000Y-8473000D02*
X13021000Y-8513000D01*
X13001000Y-8493000D02*
X13041000Y-8493000D01*
X13059000Y-6803000D02*
X13059000Y-6843000D01*
X13039000Y-6823000D02*
X13079000Y-6823000D01*
X13137000Y-9190000D02*
X13137000Y-9230000D01*
X13117000Y-9210000D02*
X13157000Y-9210000D01*
X13188000Y-7814000D02*
X13188000Y-7854000D01*
X13168000Y-7834000D02*
X13208000Y-7834000D01*
X13279000Y-8603000D02*
X13279000Y-8643000D01*
X13259000Y-8623000D02*
X13299000Y-8623000D01*
X13350000Y-6855000D02*
X13350000Y-6895000D01*
X13330000Y-6875000D02*
X13370000Y-6875000D01*
X13356000Y-7001000D02*
X13356000Y-7041000D01*
X13336000Y-7021000D02*
X13376000Y-7021000D01*
X13385000Y-7590000D02*
X13385000Y-7630000D01*
X13365000Y-7610000D02*
X13405000Y-7610000D01*
X13386000Y-7379000D02*
X13386000Y-7419000D01*
X13366000Y-7399000D02*
X13406000Y-7399000D01*
X13415000Y-8718000D02*
X13415000Y-8758000D01*
X13395000Y-8738000D02*
X13435000Y-8738000D01*
X13438000Y-9192000D02*
X13438000Y-9232000D01*
X13418000Y-9212000D02*
X13458000Y-9212000D01*
X13543000Y-7494000D02*
X13543000Y-7534000D01*
X13523000Y-7514000D02*
X13563000Y-7514000D01*
X13557000Y-7079000D02*
X13557000Y-7119000D01*
X13537000Y-7099000D02*
X13577000Y-7099000D01*
X13586000Y-7245000D02*
X13586000Y-7285000D01*
X13566000Y-7265000D02*
X13606000Y-7265000D01*
X13621000Y-8703000D02*
X13621000Y-8743000D01*
X13601000Y-8723000D02*
X13641000Y-8723000D01*
X13696507Y-7353562D02*
X13696507Y-7393562D01*
X13676507Y-7373562D02*
X13716507Y-7373562D01*
X13732000Y-9192000D02*
X13732000Y-9232000D01*
X13712000Y-9212000D02*
X13752000Y-9212000D01*
X13755000Y-7208000D02*
X13755000Y-7248000D01*
X13735000Y-7228000D02*
X13775000Y-7228000D01*
X13824000Y-6083000D02*
X13824000Y-6123000D01*
X13804000Y-6103000D02*
X13844000Y-6103000D01*
X13876000Y-8490000D02*
X13876000Y-8530000D01*
X13856000Y-8510000D02*
X13896000Y-8510000D01*
X13923000Y-6380000D02*
X13923000Y-6420000D01*
X13903000Y-6400000D02*
X13943000Y-6400000D01*
X14006000Y-8487000D02*
X14006000Y-8527000D01*
X13986000Y-8507000D02*
X14026000Y-8507000D01*
X14012000Y-9192000D02*
X14012000Y-9232000D01*
X13992000Y-9212000D02*
X14032000Y-9212000D01*
X14067000Y-8734000D02*
X14067000Y-8774000D01*
X14047000Y-8754000D02*
X14087000Y-8754000D01*
X14192000Y-9147000D02*
X14192000Y-9187000D01*
X14172000Y-9167000D02*
X14212000Y-9167000D01*
X14310000Y-8715000D02*
X14310000Y-8755000D01*
X14290000Y-8735000D02*
X14330000Y-8735000D01*
X14329500Y-8423500D02*
X14329500Y-8463500D01*
X14309500Y-8443500D02*
X14349500Y-8443500D01*
X14449000Y-8593000D02*
X14449000Y-8633000D01*
X14429000Y-8613000D02*
X14469000Y-8613000D01*
X14466000Y-8494000D02*
X14466000Y-8534000D01*
X14446000Y-8514000D02*
X14486000Y-8514000D01*
X14944500Y-7808500D02*
X14944500Y-7848500D01*
X14924500Y-7828500D02*
X14964500Y-7828500D01*
X15084000Y-7908000D02*
X15084000Y-7948000D01*
X15064000Y-7928000D02*
X15104000Y-7928000D01*
X15991000Y-8309000D02*
X15991000Y-8349000D01*
X15971000Y-8329000D02*
X16011000Y-8329000D01*
X16142000Y-8080000D02*
X16142000Y-8120000D01*
X16122000Y-8100000D02*
X16162000Y-8100000D01*
X16143000Y-8253000D02*
X16143000Y-8293000D01*
X16123000Y-8273000D02*
X16163000Y-8273000D01*
D15*
X8104678Y-6310678D02*
X8104678Y-6275322D01*
X8069322Y-6275322D01*
X8069322Y-6310678D01*
X8104678Y-6310678D01*
X8104678Y-6638678D02*
X8104678Y-6603322D01*
X8069322Y-6603322D01*
X8069322Y-6638678D01*
X8104678Y-6638678D01*
X8104678Y-8258678D02*
X8104678Y-8223322D01*
X8069322Y-8223322D01*
X8069322Y-8258678D01*
X8104678Y-8258678D01*
X8104678Y-8438678D02*
X8104678Y-8403322D01*
X8069322Y-8403322D01*
X8069322Y-8438678D01*
X8104678Y-8438678D01*
X8104678Y-8613678D02*
X8104678Y-8578322D01*
X8069322Y-8578322D01*
X8069322Y-8613678D01*
X8104678Y-8613678D01*
X8110678Y-6474678D02*
X8110678Y-6439322D01*
X8075322Y-6439322D01*
X8075322Y-6474678D01*
X8110678Y-6474678D01*
X8482678Y-7799678D02*
X8482678Y-7764322D01*
X8447322Y-7764322D01*
X8447322Y-7799678D01*
X8482678Y-7799678D01*
X8483678Y-7678678D02*
X8483678Y-7643322D01*
X8448322Y-7643322D01*
X8448322Y-7678678D01*
X8483678Y-7678678D01*
X8732078Y-9227678D02*
X8732078Y-9192322D01*
X8696722Y-9192322D01*
X8696722Y-9227678D01*
X8732078Y-9227678D01*
X8738678Y-5697678D02*
X8738678Y-5662322D01*
X8703322Y-5662322D01*
X8703322Y-5697678D01*
X8738678Y-5697678D01*
X8828678Y-7166678D02*
X8828678Y-7131322D01*
X8793322Y-7131322D01*
X8793322Y-7166678D01*
X8828678Y-7166678D01*
X8980678Y-7191678D02*
X8980678Y-7156322D01*
X8945322Y-7156322D01*
X8945322Y-7191678D01*
X8980678Y-7191678D01*
X9001278Y-9227678D02*
X9001278Y-9192322D01*
X8965922Y-9192322D01*
X8965922Y-9227678D01*
X9001278Y-9227678D01*
X9007878Y-5697678D02*
X9007878Y-5662322D01*
X8972522Y-5662322D01*
X8972522Y-5697678D01*
X9007878Y-5697678D01*
X9022678Y-6796678D02*
X9022678Y-6761322D01*
X8987322Y-6761322D01*
X8987322Y-6796678D01*
X9022678Y-6796678D01*
X9085678Y-7485678D02*
X9085678Y-7450322D01*
X9050322Y-7450322D01*
X9050322Y-7485678D01*
X9085678Y-7485678D01*
X9185678Y-7488678D02*
X9185678Y-7453322D01*
X9150322Y-7453322D01*
X9150322Y-7488678D01*
X9185678Y-7488678D01*
X9270478Y-9227678D02*
X9270478Y-9192322D01*
X9235122Y-9192322D01*
X9235122Y-9227678D01*
X9270478Y-9227678D01*
X9277078Y-5697678D02*
X9277078Y-5662322D01*
X9241722Y-5662322D01*
X9241722Y-5697678D01*
X9277078Y-5697678D01*
X9356350Y-7634550D02*
X9356350Y-7599194D01*
X9320995Y-7599194D01*
X9320995Y-7634550D01*
X9356350Y-7634550D01*
X9539678Y-9227678D02*
X9539678Y-9192322D01*
X9504322Y-9192322D01*
X9504322Y-9227678D01*
X9539678Y-9227678D01*
X9546278Y-5697678D02*
X9546278Y-5662322D01*
X9510922Y-5662322D01*
X9510922Y-5697678D01*
X9546278Y-5697678D01*
X9808878Y-9227678D02*
X9808878Y-9192322D01*
X9773522Y-9192322D01*
X9773522Y-9227678D01*
X9808878Y-9227678D01*
X9815478Y-5697678D02*
X9815478Y-5662322D01*
X9780122Y-5662322D01*
X9780122Y-5697678D01*
X9815478Y-5697678D01*
X10064154Y-6271062D02*
X10064154Y-6235706D01*
X10028798Y-6235706D01*
X10028798Y-6271062D01*
X10064154Y-6271062D01*
X10148678Y-7504678D02*
X10148678Y-7469322D01*
X10113322Y-7469322D01*
X10113322Y-7504678D01*
X10148678Y-7504678D01*
X10190678Y-7595678D02*
X10190678Y-7560322D01*
X10155322Y-7560322D01*
X10155322Y-7595678D01*
X10190678Y-7595678D01*
X10475678Y-9227678D02*
X10475678Y-9192322D01*
X10440322Y-9192322D01*
X10440322Y-9227678D01*
X10475678Y-9227678D01*
X10623078Y-5697678D02*
X10623078Y-5662322D01*
X10587722Y-5662322D01*
X10587722Y-5697678D01*
X10623078Y-5697678D01*
X10852678Y-6351678D02*
X10852678Y-6316322D01*
X10817322Y-6316322D01*
X10817322Y-6351678D01*
X10852678Y-6351678D01*
X10860678Y-6497678D02*
X10860678Y-6462322D01*
X10825322Y-6462322D01*
X10825322Y-6497678D01*
X10860678Y-6497678D01*
X10865678Y-6672678D02*
X10865678Y-6637322D01*
X10830322Y-6637322D01*
X10830322Y-6672678D01*
X10865678Y-6672678D01*
X10868678Y-6925678D02*
X10868678Y-6890322D01*
X10833322Y-6890322D01*
X10833322Y-6925678D01*
X10868678Y-6925678D01*
X10868678Y-7044678D02*
X10868678Y-7009322D01*
X10833322Y-7009322D01*
X10833322Y-7044678D01*
X10868678Y-7044678D01*
X10892278Y-5697678D02*
X10892278Y-5662322D01*
X10856922Y-5662322D01*
X10856922Y-5697678D01*
X10892278Y-5697678D01*
X10958678Y-6250678D02*
X10958678Y-6215322D01*
X10923322Y-6215322D01*
X10923322Y-6250678D01*
X10958678Y-6250678D01*
X11074678Y-9227678D02*
X11074678Y-9192322D01*
X11039322Y-9192322D01*
X11039322Y-9227678D01*
X11074678Y-9227678D01*
X11083678Y-7175678D02*
X11083678Y-7140322D01*
X11048322Y-7140322D01*
X11048322Y-7175678D01*
X11083678Y-7175678D01*
X11094678Y-6909678D02*
X11094678Y-6874322D01*
X11059322Y-6874322D01*
X11059322Y-6909678D01*
X11094678Y-6909678D01*
X11110678Y-6726678D02*
X11110678Y-6691322D01*
X11075322Y-6691322D01*
X11075322Y-6726678D01*
X11110678Y-6726678D01*
X11136678Y-6247678D02*
X11136678Y-6212322D01*
X11101322Y-6212322D01*
X11101322Y-6247678D01*
X11136678Y-6247678D01*
X11161478Y-5697678D02*
X11161478Y-5662322D01*
X11126122Y-5662322D01*
X11126122Y-5697678D01*
X11161478Y-5697678D01*
X11203678Y-9227678D02*
X11203678Y-9192322D01*
X11168322Y-9192322D01*
X11168322Y-9227678D01*
X11203678Y-9227678D01*
X11244011Y-6581004D02*
X11244011Y-6545649D01*
X11208656Y-6545649D01*
X11208656Y-6581004D01*
X11244011Y-6581004D01*
X11277678Y-6858678D02*
X11277678Y-6823322D01*
X11242322Y-6823322D01*
X11242322Y-6858678D01*
X11277678Y-6858678D01*
X11304607Y-6250828D02*
X11304607Y-6215472D01*
X11269251Y-6215472D01*
X11269251Y-6250828D01*
X11304607Y-6250828D01*
X11375678Y-6739678D02*
X11375678Y-6704322D01*
X11340322Y-6704322D01*
X11340322Y-6739678D01*
X11375678Y-6739678D01*
X11383678Y-7252678D02*
X11383678Y-7217322D01*
X11348322Y-7217322D01*
X11348322Y-7252678D01*
X11383678Y-7252678D01*
X11386678Y-7063678D02*
X11386678Y-7028322D01*
X11351322Y-7028322D01*
X11351322Y-7063678D01*
X11386678Y-7063678D01*
X11390678Y-7155678D02*
X11390678Y-7120322D01*
X11355322Y-7120322D01*
X11355322Y-7155678D01*
X11390678Y-7155678D01*
X11430678Y-5697678D02*
X11430678Y-5662322D01*
X11395322Y-5662322D01*
X11395322Y-5697678D01*
X11430678Y-5697678D01*
X11696878Y-9226678D02*
X11696878Y-9191322D01*
X11661522Y-9191322D01*
X11661522Y-9226678D01*
X11696878Y-9226678D01*
X11703478Y-5696678D02*
X11703478Y-5661322D01*
X11668122Y-5661322D01*
X11668122Y-5696678D01*
X11703478Y-5696678D01*
X11785678Y-8961678D02*
X11785678Y-8926322D01*
X11750322Y-8926322D01*
X11750322Y-8961678D01*
X11785678Y-8961678D01*
X11789678Y-7425678D02*
X11789678Y-7390322D01*
X11754322Y-7390322D01*
X11754322Y-7425678D01*
X11789678Y-7425678D01*
X11943678Y-8210678D02*
X11943678Y-8175322D01*
X11908322Y-8175322D01*
X11908322Y-8210678D01*
X11943678Y-8210678D01*
X11972678Y-5696678D02*
X11972678Y-5661322D01*
X11937322Y-5661322D01*
X11937322Y-5696678D01*
X11972678Y-5696678D01*
X12072678Y-8210678D02*
X12072678Y-8175322D01*
X12037322Y-8175322D01*
X12037322Y-8210678D01*
X12072678Y-8210678D01*
X12216678Y-8207678D02*
X12216678Y-8172322D01*
X12181322Y-8172322D01*
X12181322Y-8207678D01*
X12216678Y-8207678D01*
X12241878Y-5696678D02*
X12241878Y-5661322D01*
X12206522Y-5661322D01*
X12206522Y-5696678D01*
X12241878Y-5696678D01*
X12303678Y-7647678D02*
X12303678Y-7612322D01*
X12268322Y-7612322D01*
X12268322Y-7647678D01*
X12303678Y-7647678D01*
X12339678Y-8101678D02*
X12339678Y-8066322D01*
X12304322Y-8066322D01*
X12304322Y-8101678D01*
X12339678Y-8101678D01*
X12405687Y-7586678D02*
X12405687Y-7551322D01*
X12370331Y-7551322D01*
X12370331Y-7586678D01*
X12405687Y-7586678D01*
X12438492Y-7793864D02*
X12438492Y-7758508D01*
X12403136Y-7758508D01*
X12403136Y-7793864D01*
X12438492Y-7793864D01*
X12511078Y-5696678D02*
X12511078Y-5661322D01*
X12475722Y-5661322D01*
X12475722Y-5696678D01*
X12511078Y-5696678D01*
X12633992Y-7989364D02*
X12633992Y-7954008D01*
X12598636Y-7954008D01*
X12598636Y-7989364D01*
X12633992Y-7989364D01*
X12700426Y-8096229D02*
X12700426Y-8060873D01*
X12665070Y-8060873D01*
X12665070Y-8096229D01*
X12700426Y-8096229D01*
X12780278Y-5696678D02*
X12780278Y-5661322D01*
X12744922Y-5661322D01*
X12744922Y-5696678D01*
X12780278Y-5696678D01*
X13049478Y-5696678D02*
X13049478Y-5661322D01*
X13014122Y-5661322D01*
X13014122Y-5696678D01*
X13049478Y-5696678D01*
X13071678Y-8054678D02*
X13071678Y-8019322D01*
X13036322Y-8019322D01*
X13036322Y-8054678D01*
X13071678Y-8054678D01*
X13141678Y-8415678D02*
X13141678Y-8380322D01*
X13106322Y-8380322D01*
X13106322Y-8415678D01*
X13141678Y-8415678D01*
X13144678Y-8245678D02*
X13144678Y-8210322D01*
X13109322Y-8210322D01*
X13109322Y-8245678D01*
X13144678Y-8245678D01*
X13273678Y-8198678D02*
X13273678Y-8163322D01*
X13238322Y-8163322D01*
X13238322Y-8198678D01*
X13273678Y-8198678D01*
X13318678Y-5696678D02*
X13318678Y-5661322D01*
X13283322Y-5661322D01*
X13283322Y-5696678D01*
X13318678Y-5696678D01*
X13418678Y-8223678D02*
X13418678Y-8188322D01*
X13383322Y-8188322D01*
X13383322Y-8223678D01*
X13418678Y-8223678D01*
X13568678Y-8198678D02*
X13568678Y-8163322D01*
X13533322Y-8163322D01*
X13533322Y-8198678D01*
X13568678Y-8198678D01*
X13587878Y-5696678D02*
X13587878Y-5661322D01*
X13552522Y-5661322D01*
X13552522Y-5696678D01*
X13587878Y-5696678D01*
X13849678Y-8192678D02*
X13849678Y-8157322D01*
X13814322Y-8157322D01*
X13814322Y-8192678D01*
X13849678Y-8192678D01*
X13857078Y-5696678D02*
X13857078Y-5661322D01*
X13821722Y-5661322D01*
X13821722Y-5696678D01*
X13857078Y-5696678D01*
X14065678Y-8212678D02*
X14065678Y-8177322D01*
X14030322Y-8177322D01*
X14030322Y-8212678D01*
X14065678Y-8212678D01*
X14126278Y-5696678D02*
X14126278Y-5661322D01*
X14090922Y-5661322D01*
X14090922Y-5696678D01*
X14126278Y-5696678D01*
X14388878Y-9226678D02*
X14388878Y-9191322D01*
X14353522Y-9191322D01*
X14353522Y-9226678D01*
X14388878Y-9226678D01*
X14395478Y-5696678D02*
X14395478Y-5661322D01*
X14360122Y-5661322D01*
X14360122Y-5696678D01*
X14395478Y-5696678D01*
X14644878Y-9229678D02*
X14644878Y-9194322D01*
X14609522Y-9194322D01*
X14609522Y-9229678D01*
X14644878Y-9229678D01*
X14651478Y-5699678D02*
X14651478Y-5664322D01*
X14616122Y-5664322D01*
X14616122Y-5699678D01*
X14651478Y-5699678D01*
X14914078Y-9229678D02*
X14914078Y-9194322D01*
X14878722Y-9194322D01*
X14878722Y-9229678D01*
X14914078Y-9229678D01*
X14920678Y-5699678D02*
X14920678Y-5664322D01*
X14885322Y-5664322D01*
X14885322Y-5699678D01*
X14920678Y-5699678D01*
X15183278Y-9229678D02*
X15183278Y-9194322D01*
X15147922Y-9194322D01*
X15147922Y-9229678D01*
X15183278Y-9229678D01*
X15189878Y-5699678D02*
X15189878Y-5664322D01*
X15154522Y-5664322D01*
X15154522Y-5699678D01*
X15189878Y-5699678D01*
X15459078Y-5699678D02*
X15459078Y-5664322D01*
X15423722Y-5664322D01*
X15423722Y-5699678D01*
X15459078Y-5699678D01*
X15728278Y-5699678D02*
X15728278Y-5664322D01*
X15692922Y-5664322D01*
X15692922Y-5699678D01*
X15728278Y-5699678D01*
X15990878Y-9229678D02*
X15990878Y-9194322D01*
X15955522Y-9194322D01*
X15955522Y-9229678D01*
X15990878Y-9229678D01*
X15997478Y-5699678D02*
X15997478Y-5664322D01*
X15962122Y-5664322D01*
X15962122Y-5699678D01*
X15997478Y-5699678D01*
X16260078Y-9229678D02*
X16260078Y-9194322D01*
X16224722Y-9194322D01*
X16224722Y-9229678D01*
X16260078Y-9229678D01*
X16266678Y-5699678D02*
X16266678Y-5664322D01*
X16231322Y-5664322D01*
X16231322Y-5699678D01*
X16266678Y-5699678D01*
X16928678Y-6322878D02*
X16928678Y-6287522D01*
X16893322Y-6287522D01*
X16893322Y-6322878D01*
X16928678Y-6322878D01*
X16928678Y-6592078D02*
X16928678Y-6556722D01*
X16893322Y-6556722D01*
X16893322Y-6592078D01*
X16928678Y-6592078D01*
X16928678Y-6861278D02*
X16928678Y-6825922D01*
X16893322Y-6825922D01*
X16893322Y-6861278D01*
X16928678Y-6861278D01*
X16928678Y-7130478D02*
X16928678Y-7095122D01*
X16893322Y-7095122D01*
X16893322Y-7130478D01*
X16928678Y-7130478D01*
X16928678Y-7399678D02*
X16928678Y-7364322D01*
X16893322Y-7364322D01*
X16893322Y-7399678D01*
X16928678Y-7399678D01*
X16928678Y-7648878D02*
X16928678Y-7613522D01*
X16893322Y-7613522D01*
X16893322Y-7648878D01*
X16928678Y-7648878D01*
X16928678Y-7918078D02*
X16928678Y-7882722D01*
X16893322Y-7882722D01*
X16893322Y-7918078D01*
X16928678Y-7918078D01*
X16928678Y-8187278D02*
X16928678Y-8151922D01*
X16893322Y-8151922D01*
X16893322Y-8187278D01*
X16928678Y-8187278D01*
X16928678Y-8456478D02*
X16928678Y-8421122D01*
X16893322Y-8421122D01*
X16893322Y-8456478D01*
X16928678Y-8456478D01*
D16*
X9551000Y-7453000D02*
X9601000Y-7403000D01*
X9551000Y-7353000D01*
X9501000Y-7403000D01*
X9551000Y-7453000D01*
X9551000Y-7707000D02*
X9601000Y-7657000D01*
X9551000Y-7607000D01*
X9501000Y-7657000D01*
X9551000Y-7707000D01*
X10280000Y-6528500D02*
X10330000Y-6478500D01*
X10280000Y-6428500D01*
X10230000Y-6478500D01*
X10280000Y-6528500D01*
X10280000Y-6782500D02*
X10330000Y-6732500D01*
X10280000Y-6682500D01*
X10230000Y-6732500D01*
X10280000Y-6782500D01*
X10628000Y-8756000D02*
X10678000Y-8706000D01*
X10628000Y-8656000D01*
X10578000Y-8706000D01*
X10628000Y-8756000D01*
X10882000Y-8756000D02*
X10932000Y-8706000D01*
X10882000Y-8656000D01*
X10832000Y-8706000D01*
X10882000Y-8756000D01*
X11276000Y-5993500D02*
X11326000Y-5943500D01*
X11276000Y-5893500D01*
X11226000Y-5943500D01*
X11276000Y-5993500D01*
X11282000Y-8550500D02*
X11332000Y-8500500D01*
X11282000Y-8450500D01*
X11232000Y-8500500D01*
X11282000Y-8550500D01*
X11530000Y-5993500D02*
X11580000Y-5943500D01*
X11530000Y-5893500D01*
X11480000Y-5943500D01*
X11530000Y-5993500D01*
X11536000Y-8550500D02*
X11586000Y-8500500D01*
X11536000Y-8450500D01*
X11486000Y-8500500D01*
X11536000Y-8550500D01*
X11865000Y-6997500D02*
X11915000Y-6947500D01*
X11865000Y-6897500D01*
X11815000Y-6947500D01*
X11865000Y-6997500D01*
X12119000Y-6997500D02*
X12169000Y-6947500D01*
X12119000Y-6897500D01*
X12069000Y-6947500D01*
X12119000Y-6997500D01*
X12841000Y-6381000D02*
X12891000Y-6331000D01*
X12841000Y-6281000D01*
X12791000Y-6331000D01*
X12841000Y-6381000D01*
X12841000Y-6635000D02*
X12891000Y-6585000D01*
X12841000Y-6535000D01*
X12791000Y-6585000D01*
X12841000Y-6635000D01*
X12850000Y-5914000D02*
X12900000Y-5864000D01*
X12850000Y-5814000D01*
X12800000Y-5864000D01*
X12850000Y-5914000D01*
X13208500Y-6299000D02*
X13258500Y-6249000D01*
X13208500Y-6199000D01*
X13158500Y-6249000D01*
X13208500Y-6299000D01*
X13208500Y-6553000D02*
X13258500Y-6503000D01*
X13208500Y-6453000D01*
X13158500Y-6503000D01*
X13208500Y-6553000D01*
X13614000Y-8025500D02*
X13664000Y-7975500D01*
X13614000Y-7925500D01*
X13564000Y-7975500D01*
X13614000Y-8025500D01*
X13868000Y-8025500D02*
X13918000Y-7975500D01*
X13868000Y-7925500D01*
X13818000Y-7975500D01*
X13868000Y-8025500D01*
X14217000Y-6938000D02*
X14267000Y-6888000D01*
X14217000Y-6838000D01*
X14167000Y-6888000D01*
X14217000Y-6938000D01*
X14236000Y-7763000D02*
X14286000Y-7713000D01*
X14236000Y-7663000D01*
X14186000Y-7713000D01*
X14236000Y-7763000D01*
X14471000Y-6938000D02*
X14521000Y-6888000D01*
X14471000Y-6838000D01*
X14421000Y-6888000D01*
X14471000Y-6938000D01*
X14477000Y-6581000D02*
X14527000Y-6531000D01*
X14477000Y-6481000D01*
X14427000Y-6531000D01*
X14477000Y-6581000D01*
X14490000Y-7763000D02*
X14540000Y-7713000D01*
X14490000Y-7663000D01*
X14440000Y-7713000D01*
X14490000Y-7763000D01*
X14746000Y-5964000D02*
X14796000Y-5914000D01*
X14746000Y-5864000D01*
X14696000Y-5914000D01*
X14746000Y-5964000D01*
X14746000Y-6218000D02*
X14796000Y-6168000D01*
X14746000Y-6118000D01*
X14696000Y-6168000D01*
X14746000Y-6218000D01*
X16431000Y-8059500D02*
X16481000Y-8009500D01*
X16431000Y-7959500D01*
X16381000Y-8009500D01*
X16431000Y-8059500D01*
X16431000Y-8313500D02*
X16481000Y-8263500D01*
X16431000Y-8213500D01*
X16381000Y-8263500D01*
X16431000Y-8313500D01*
D17*
X15378000Y-6702000D02*
X15498000Y-6822000D01*
X15498000Y-6702000D02*
X15378000Y-6822000D01*
X15498000Y-6762000D02*
G75*
G03*
X15498000Y-6762000I-60000J0D01*
G01*
X15819000Y-6686000D02*
X15939000Y-6806000D01*
X15939000Y-6686000D02*
X15819000Y-6806000D01*
X15939000Y-6746000D02*
G75*
G03*
X15939000Y-6746000I-60000J0D01*
G01*
X15927000Y-7022000D02*
X16047000Y-7142000D01*
X16047000Y-7022000D02*
X15927000Y-7142000D01*
X16047000Y-7082000D02*
G75*
G03*
X16047000Y-7082000I-60000J0D01*
G01*
X16244000Y-7514000D02*
X16364000Y-7634000D01*
X16364000Y-7514000D02*
X16244000Y-7634000D01*
X16364000Y-7574000D02*
G75*
G03*
X16364000Y-7574000I-60000J0D01*
G01*
D18*
X10002000Y-5718750D02*
X10402000Y-6118750D01*
X10402000Y-5718750D02*
X10002000Y-6118750D01*
X10202000Y-5718750D02*
X10202000Y-6118750D01*
X10002000Y-5918750D02*
X10402000Y-5918750D01*
X15369000Y-8814750D02*
X15769000Y-9214750D01*
X15769000Y-8814750D02*
X15369000Y-9214750D01*
X15569000Y-8814750D02*
X15569000Y-9214750D01*
X15369000Y-9014750D02*
X15769000Y-9014750D01*
D11*
X8252619Y-9615476D02*
X8252619Y-9415476D01*
X8300238Y-9415476D01*
X8328809Y-9425000D01*
X8347857Y-9444048D01*
X8357381Y-9463095D01*
X8366905Y-9501190D01*
X8366905Y-9529762D01*
X8357381Y-9567857D01*
X8347857Y-9586905D01*
X8328809Y-9605952D01*
X8300238Y-9615476D01*
X8252619Y-9615476D01*
X8452619Y-9615476D02*
X8452619Y-9482143D01*
X8452619Y-9520238D02*
X8462143Y-9501190D01*
X8471667Y-9491667D01*
X8490714Y-9482143D01*
X8509762Y-9482143D01*
X8576429Y-9615476D02*
X8576429Y-9482143D01*
X8576429Y-9415476D02*
X8566905Y-9425000D01*
X8576429Y-9434524D01*
X8585952Y-9425000D01*
X8576429Y-9415476D01*
X8576429Y-9434524D01*
X8700238Y-9615476D02*
X8681190Y-9605952D01*
X8671667Y-9586905D01*
X8671667Y-9415476D01*
X8805000Y-9615476D02*
X8785952Y-9605952D01*
X8776429Y-9586905D01*
X8776429Y-9415476D01*
X9033571Y-9615476D02*
X9033571Y-9415476D01*
X9100238Y-9558333D01*
X9166905Y-9415476D01*
X9166905Y-9615476D01*
X9347857Y-9615476D02*
X9347857Y-9510714D01*
X9338333Y-9491667D01*
X9319286Y-9482143D01*
X9281190Y-9482143D01*
X9262143Y-9491667D01*
X9347857Y-9605952D02*
X9328810Y-9615476D01*
X9281190Y-9615476D01*
X9262143Y-9605952D01*
X9252619Y-9586905D01*
X9252619Y-9567857D01*
X9262143Y-9548810D01*
X9281190Y-9539286D01*
X9328810Y-9539286D01*
X9347857Y-9529762D01*
X9443095Y-9482143D02*
X9443095Y-9682143D01*
X9443095Y-9491667D02*
X9462143Y-9482143D01*
X9500238Y-9482143D01*
X9519286Y-9491667D01*
X9528810Y-9501190D01*
X9538333Y-9520238D01*
X9538333Y-9577381D01*
X9528810Y-9596429D01*
X9519286Y-9605952D01*
X9500238Y-9615476D01*
X9462143Y-9615476D01*
X9443095Y-9605952D01*
X9624048Y-9596429D02*
X9633571Y-9605952D01*
X9624048Y-9615476D01*
X9614524Y-9605952D01*
X9624048Y-9596429D01*
X9624048Y-9615476D01*
X9624048Y-9491667D02*
X9633571Y-9501190D01*
X9624048Y-9510714D01*
X9614524Y-9501190D01*
X9624048Y-9491667D01*
X9624048Y-9510714D01*
D12*
X7965000Y-9930000D02*
X7995000Y-9960000D01*
X7995000Y-9930000D02*
X7965000Y-9960000D01*
D11*
X8290714Y-9835476D02*
X8309762Y-9835476D01*
X8328809Y-9845000D01*
X8338333Y-9854524D01*
X8347857Y-9873571D01*
X8357381Y-9911667D01*
X8357381Y-9959286D01*
X8347857Y-9997381D01*
X8338333Y-10016429D01*
X8328809Y-10025952D01*
X8309762Y-10035476D01*
X8290714Y-10035476D01*
X8271667Y-10025952D01*
X8262143Y-10016429D01*
X8252619Y-9997381D01*
X8243095Y-9959286D01*
X8243095Y-9911667D01*
X8252619Y-9873571D01*
X8262143Y-9854524D01*
X8271667Y-9845000D01*
X8290714Y-9835476D01*
X8443095Y-10016429D02*
X8452619Y-10025952D01*
X8443095Y-10035476D01*
X8433571Y-10025952D01*
X8443095Y-10016429D01*
X8443095Y-10035476D01*
X8519286Y-9835476D02*
X8643095Y-9835476D01*
X8576429Y-9911667D01*
X8605000Y-9911667D01*
X8624048Y-9921190D01*
X8633571Y-9930714D01*
X8643095Y-9949762D01*
X8643095Y-9997381D01*
X8633571Y-10016429D01*
X8624048Y-10025952D01*
X8605000Y-10035476D01*
X8547857Y-10035476D01*
X8528810Y-10025952D01*
X8519286Y-10016429D01*
X8766905Y-9835476D02*
X8785952Y-9835476D01*
X8805000Y-9845000D01*
X8814524Y-9854524D01*
X8824048Y-9873571D01*
X8833571Y-9911667D01*
X8833571Y-9959286D01*
X8824048Y-9997381D01*
X8814524Y-10016429D01*
X8805000Y-10025952D01*
X8785952Y-10035476D01*
X8766905Y-10035476D01*
X8747857Y-10025952D01*
X8738333Y-10016429D01*
X8728810Y-9997381D01*
X8719286Y-9959286D01*
X8719286Y-9911667D01*
X8728810Y-9873571D01*
X8738333Y-9854524D01*
X8747857Y-9845000D01*
X8766905Y-9835476D01*
X8957381Y-9835476D02*
X8976429Y-9835476D01*
X8995476Y-9845000D01*
X9005000Y-9854524D01*
X9014524Y-9873571D01*
X9024048Y-9911667D01*
X9024048Y-9959286D01*
X9014524Y-9997381D01*
X9005000Y-10016429D01*
X8995476Y-10025952D01*
X8976429Y-10035476D01*
X8957381Y-10035476D01*
X8938333Y-10025952D01*
X8928810Y-10016429D01*
X8919286Y-9997381D01*
X8909762Y-9959286D01*
X8909762Y-9911667D01*
X8919286Y-9873571D01*
X8928810Y-9854524D01*
X8938333Y-9845000D01*
X8957381Y-9835476D01*
X9109762Y-10035476D02*
X9109762Y-9902143D01*
X9109762Y-9921190D02*
X9119286Y-9911667D01*
X9138333Y-9902143D01*
X9166905Y-9902143D01*
X9185952Y-9911667D01*
X9195476Y-9930714D01*
X9195476Y-10035476D01*
X9195476Y-9930714D02*
X9205000Y-9911667D01*
X9224048Y-9902143D01*
X9252619Y-9902143D01*
X9271667Y-9911667D01*
X9281190Y-9930714D01*
X9281190Y-10035476D01*
X9376429Y-10035476D02*
X9376429Y-9902143D01*
X9376429Y-9921190D02*
X9385952Y-9911667D01*
X9405000Y-9902143D01*
X9433571Y-9902143D01*
X9452619Y-9911667D01*
X9462143Y-9930714D01*
X9462143Y-10035476D01*
X9462143Y-9930714D02*
X9471667Y-9911667D01*
X9490714Y-9902143D01*
X9519286Y-9902143D01*
X9538333Y-9911667D01*
X9547857Y-9930714D01*
X9547857Y-10035476D01*
X9938333Y-9825952D02*
X9766905Y-10083095D01*
X10195476Y-9835476D02*
X10214524Y-9835476D01*
X10233571Y-9845000D01*
X10243095Y-9854524D01*
X10252619Y-9873571D01*
X10262143Y-9911667D01*
X10262143Y-9959286D01*
X10252619Y-9997381D01*
X10243095Y-10016429D01*
X10233571Y-10025952D01*
X10214524Y-10035476D01*
X10195476Y-10035476D01*
X10176429Y-10025952D01*
X10166905Y-10016429D01*
X10157381Y-9997381D01*
X10147857Y-9959286D01*
X10147857Y-9911667D01*
X10157381Y-9873571D01*
X10166905Y-9854524D01*
X10176429Y-9845000D01*
X10195476Y-9835476D01*
X10347857Y-10016429D02*
X10357381Y-10025952D01*
X10347857Y-10035476D01*
X10338333Y-10025952D01*
X10347857Y-10016429D01*
X10347857Y-10035476D01*
X10481190Y-9835476D02*
X10500238Y-9835476D01*
X10519286Y-9845000D01*
X10528810Y-9854524D01*
X10538333Y-9873571D01*
X10547857Y-9911667D01*
X10547857Y-9959286D01*
X10538333Y-9997381D01*
X10528810Y-10016429D01*
X10519286Y-10025952D01*
X10500238Y-10035476D01*
X10481190Y-10035476D01*
X10462143Y-10025952D01*
X10452619Y-10016429D01*
X10443095Y-9997381D01*
X10433571Y-9959286D01*
X10433571Y-9911667D01*
X10443095Y-9873571D01*
X10452619Y-9854524D01*
X10462143Y-9845000D01*
X10481190Y-9835476D01*
X10738333Y-10035476D02*
X10624048Y-10035476D01*
X10681190Y-10035476D02*
X10681190Y-9835476D01*
X10662143Y-9864048D01*
X10643095Y-9883095D01*
X10624048Y-9892619D01*
X10928810Y-10035476D02*
X10814524Y-10035476D01*
X10871667Y-10035476D02*
X10871667Y-9835476D01*
X10852619Y-9864048D01*
X10833571Y-9883095D01*
X10814524Y-9892619D01*
X11043095Y-9921190D02*
X11024048Y-9911667D01*
X11014524Y-9902143D01*
X11005000Y-9883095D01*
X11005000Y-9873571D01*
X11014524Y-9854524D01*
X11024048Y-9845000D01*
X11043095Y-9835476D01*
X11081190Y-9835476D01*
X11100238Y-9845000D01*
X11109762Y-9854524D01*
X11119286Y-9873571D01*
X11119286Y-9883095D01*
X11109762Y-9902143D01*
X11100238Y-9911667D01*
X11081190Y-9921190D01*
X11043095Y-9921190D01*
X11024048Y-9930714D01*
X11014524Y-9940238D01*
X11005000Y-9959286D01*
X11005000Y-9997381D01*
X11014524Y-10016429D01*
X11024048Y-10025952D01*
X11043095Y-10035476D01*
X11081190Y-10035476D01*
X11100238Y-10025952D01*
X11109762Y-10016429D01*
X11119286Y-9997381D01*
X11119286Y-9959286D01*
X11109762Y-9940238D01*
X11100238Y-9930714D01*
X11081190Y-9921190D01*
X11195476Y-9835476D02*
X11195476Y-9873571D01*
X11271667Y-9835476D02*
X11271667Y-9873571D01*
X11566905Y-10111667D02*
X11557381Y-10102143D01*
X11538333Y-10073571D01*
X11528809Y-10054524D01*
X11519286Y-10025952D01*
X11509762Y-9978333D01*
X11509762Y-9940238D01*
X11519286Y-9892619D01*
X11528809Y-9864048D01*
X11538333Y-9845000D01*
X11557381Y-9816429D01*
X11566905Y-9806905D01*
X11652619Y-10035476D02*
X11690714Y-10035476D01*
X11709762Y-10025952D01*
X11719286Y-10016429D01*
X11738333Y-9987857D01*
X11747857Y-9949762D01*
X11747857Y-9873571D01*
X11738333Y-9854524D01*
X11728809Y-9845000D01*
X11709762Y-9835476D01*
X11671667Y-9835476D01*
X11652619Y-9845000D01*
X11643095Y-9854524D01*
X11633571Y-9873571D01*
X11633571Y-9921190D01*
X11643095Y-9940238D01*
X11652619Y-9949762D01*
X11671667Y-9959286D01*
X11709762Y-9959286D01*
X11728809Y-9949762D01*
X11738333Y-9940238D01*
X11747857Y-9921190D01*
X11814524Y-9835476D02*
X11947857Y-9835476D01*
X11862143Y-10035476D01*
X12176428Y-10035476D02*
X12176428Y-9835476D01*
X12262143Y-10035476D02*
X12262143Y-9930714D01*
X12252619Y-9911667D01*
X12233571Y-9902143D01*
X12205000Y-9902143D01*
X12185952Y-9911667D01*
X12176428Y-9921190D01*
X12385952Y-10035476D02*
X12366905Y-10025952D01*
X12357381Y-10016429D01*
X12347857Y-9997381D01*
X12347857Y-9940238D01*
X12357381Y-9921190D01*
X12366905Y-9911667D01*
X12385952Y-9902143D01*
X12414524Y-9902143D01*
X12433571Y-9911667D01*
X12443095Y-9921190D01*
X12452619Y-9940238D01*
X12452619Y-9997381D01*
X12443095Y-10016429D01*
X12433571Y-10025952D01*
X12414524Y-10035476D01*
X12385952Y-10035476D01*
X12566905Y-10035476D02*
X12547857Y-10025952D01*
X12538333Y-10006905D01*
X12538333Y-9835476D01*
X12719286Y-10025952D02*
X12700238Y-10035476D01*
X12662143Y-10035476D01*
X12643095Y-10025952D01*
X12633571Y-10006905D01*
X12633571Y-9930714D01*
X12643095Y-9911667D01*
X12662143Y-9902143D01*
X12700238Y-9902143D01*
X12719286Y-9911667D01*
X12728809Y-9930714D01*
X12728809Y-9949762D01*
X12633571Y-9968810D01*
X12805000Y-10025952D02*
X12824048Y-10035476D01*
X12862143Y-10035476D01*
X12881190Y-10025952D01*
X12890714Y-10006905D01*
X12890714Y-9997381D01*
X12881190Y-9978333D01*
X12862143Y-9968810D01*
X12833571Y-9968810D01*
X12814524Y-9959286D01*
X12805000Y-9940238D01*
X12805000Y-9930714D01*
X12814524Y-9911667D01*
X12833571Y-9902143D01*
X12862143Y-9902143D01*
X12881190Y-9911667D01*
X12957381Y-10111667D02*
X12966905Y-10102143D01*
X12985952Y-10073571D01*
X12995476Y-10054524D01*
X13005000Y-10025952D01*
X13014524Y-9978333D01*
X13014524Y-9940238D01*
X13005000Y-9892619D01*
X12995476Y-9864048D01*
X12985952Y-9845000D01*
X12966905Y-9816429D01*
X12957381Y-9806905D01*
D13*
X7995000Y-10209000D02*
G75*
G03*
X7995000Y-10209000I-16530J0D01*
G01*
D11*
X8290714Y-10099476D02*
X8309762Y-10099476D01*
X8328809Y-10109000D01*
X8338333Y-10118524D01*
X8347857Y-10137571D01*
X8357381Y-10175667D01*
X8357381Y-10223286D01*
X8347857Y-10261381D01*
X8338333Y-10280429D01*
X8328809Y-10289952D01*
X8309762Y-10299476D01*
X8290714Y-10299476D01*
X8271667Y-10289952D01*
X8262143Y-10280429D01*
X8252619Y-10261381D01*
X8243095Y-10223286D01*
X8243095Y-10175667D01*
X8252619Y-10137571D01*
X8262143Y-10118524D01*
X8271667Y-10109000D01*
X8290714Y-10099476D01*
X8443095Y-10280429D02*
X8452619Y-10289952D01*
X8443095Y-10299476D01*
X8433571Y-10289952D01*
X8443095Y-10280429D01*
X8443095Y-10299476D01*
X8519286Y-10099476D02*
X8643095Y-10099476D01*
X8576429Y-10175667D01*
X8605000Y-10175667D01*
X8624048Y-10185190D01*
X8633571Y-10194714D01*
X8643095Y-10213762D01*
X8643095Y-10261381D01*
X8633571Y-10280429D01*
X8624048Y-10289952D01*
X8605000Y-10299476D01*
X8547857Y-10299476D01*
X8528810Y-10289952D01*
X8519286Y-10280429D01*
X8709762Y-10099476D02*
X8833571Y-10099476D01*
X8766905Y-10175667D01*
X8795476Y-10175667D01*
X8814524Y-10185190D01*
X8824048Y-10194714D01*
X8833571Y-10213762D01*
X8833571Y-10261381D01*
X8824048Y-10280429D01*
X8814524Y-10289952D01*
X8795476Y-10299476D01*
X8738333Y-10299476D01*
X8719286Y-10289952D01*
X8709762Y-10280429D01*
X9024048Y-10299476D02*
X8909762Y-10299476D01*
X8966905Y-10299476D02*
X8966905Y-10099476D01*
X8947857Y-10128048D01*
X8928810Y-10147095D01*
X8909762Y-10156619D01*
X9109762Y-10299476D02*
X9109762Y-10166143D01*
X9109762Y-10185190D02*
X9119286Y-10175667D01*
X9138333Y-10166143D01*
X9166905Y-10166143D01*
X9185952Y-10175667D01*
X9195476Y-10194714D01*
X9195476Y-10299476D01*
X9195476Y-10194714D02*
X9205000Y-10175667D01*
X9224048Y-10166143D01*
X9252619Y-10166143D01*
X9271667Y-10175667D01*
X9281190Y-10194714D01*
X9281190Y-10299476D01*
X9376429Y-10299476D02*
X9376429Y-10166143D01*
X9376429Y-10185190D02*
X9385952Y-10175667D01*
X9405000Y-10166143D01*
X9433571Y-10166143D01*
X9452619Y-10175667D01*
X9462143Y-10194714D01*
X9462143Y-10299476D01*
X9462143Y-10194714D02*
X9471667Y-10175667D01*
X9490714Y-10166143D01*
X9519286Y-10166143D01*
X9538333Y-10175667D01*
X9547857Y-10194714D01*
X9547857Y-10299476D01*
X9938333Y-10089952D02*
X9766905Y-10347095D01*
X10195476Y-10099476D02*
X10214524Y-10099476D01*
X10233571Y-10109000D01*
X10243095Y-10118524D01*
X10252619Y-10137571D01*
X10262143Y-10175667D01*
X10262143Y-10223286D01*
X10252619Y-10261381D01*
X10243095Y-10280429D01*
X10233571Y-10289952D01*
X10214524Y-10299476D01*
X10195476Y-10299476D01*
X10176429Y-10289952D01*
X10166905Y-10280429D01*
X10157381Y-10261381D01*
X10147857Y-10223286D01*
X10147857Y-10175667D01*
X10157381Y-10137571D01*
X10166905Y-10118524D01*
X10176429Y-10109000D01*
X10195476Y-10099476D01*
X10347857Y-10280429D02*
X10357381Y-10289952D01*
X10347857Y-10299476D01*
X10338333Y-10289952D01*
X10347857Y-10280429D01*
X10347857Y-10299476D01*
X10481190Y-10099476D02*
X10500238Y-10099476D01*
X10519286Y-10109000D01*
X10528810Y-10118524D01*
X10538333Y-10137571D01*
X10547857Y-10175667D01*
X10547857Y-10223286D01*
X10538333Y-10261381D01*
X10528810Y-10280429D01*
X10519286Y-10289952D01*
X10500238Y-10299476D01*
X10481190Y-10299476D01*
X10462143Y-10289952D01*
X10452619Y-10280429D01*
X10443095Y-10261381D01*
X10433571Y-10223286D01*
X10433571Y-10175667D01*
X10443095Y-10137571D01*
X10452619Y-10118524D01*
X10462143Y-10109000D01*
X10481190Y-10099476D01*
X10738333Y-10299476D02*
X10624048Y-10299476D01*
X10681190Y-10299476D02*
X10681190Y-10099476D01*
X10662143Y-10128048D01*
X10643095Y-10147095D01*
X10624048Y-10156619D01*
X10805000Y-10099476D02*
X10928810Y-10099476D01*
X10862143Y-10175667D01*
X10890714Y-10175667D01*
X10909762Y-10185190D01*
X10919286Y-10194714D01*
X10928810Y-10213762D01*
X10928810Y-10261381D01*
X10919286Y-10280429D01*
X10909762Y-10289952D01*
X10890714Y-10299476D01*
X10833571Y-10299476D01*
X10814524Y-10289952D01*
X10805000Y-10280429D01*
X11052619Y-10099476D02*
X11071667Y-10099476D01*
X11090714Y-10109000D01*
X11100238Y-10118524D01*
X11109762Y-10137571D01*
X11119286Y-10175667D01*
X11119286Y-10223286D01*
X11109762Y-10261381D01*
X11100238Y-10280429D01*
X11090714Y-10289952D01*
X11071667Y-10299476D01*
X11052619Y-10299476D01*
X11033571Y-10289952D01*
X11024048Y-10280429D01*
X11014524Y-10261381D01*
X11005000Y-10223286D01*
X11005000Y-10175667D01*
X11014524Y-10137571D01*
X11024048Y-10118524D01*
X11033571Y-10109000D01*
X11052619Y-10099476D01*
X11195476Y-10099476D02*
X11195476Y-10137571D01*
X11271667Y-10099476D02*
X11271667Y-10137571D01*
X11566905Y-10375667D02*
X11557381Y-10366143D01*
X11538333Y-10337571D01*
X11528809Y-10318524D01*
X11519286Y-10289952D01*
X11509762Y-10242333D01*
X11509762Y-10204238D01*
X11519286Y-10156619D01*
X11528809Y-10128048D01*
X11538333Y-10109000D01*
X11557381Y-10080429D01*
X11566905Y-10070905D01*
X11728809Y-10099476D02*
X11690714Y-10099476D01*
X11671667Y-10109000D01*
X11662143Y-10118524D01*
X11643095Y-10147095D01*
X11633571Y-10185190D01*
X11633571Y-10261381D01*
X11643095Y-10280429D01*
X11652619Y-10289952D01*
X11671667Y-10299476D01*
X11709762Y-10299476D01*
X11728809Y-10289952D01*
X11738333Y-10280429D01*
X11747857Y-10261381D01*
X11747857Y-10213762D01*
X11738333Y-10194714D01*
X11728809Y-10185190D01*
X11709762Y-10175667D01*
X11671667Y-10175667D01*
X11652619Y-10185190D01*
X11643095Y-10194714D01*
X11633571Y-10213762D01*
X11985952Y-10299476D02*
X11985952Y-10099476D01*
X12071667Y-10299476D02*
X12071667Y-10194714D01*
X12062143Y-10175667D01*
X12043095Y-10166143D01*
X12014524Y-10166143D01*
X11995476Y-10175667D01*
X11985952Y-10185190D01*
X12195476Y-10299476D02*
X12176428Y-10289952D01*
X12166905Y-10280429D01*
X12157381Y-10261381D01*
X12157381Y-10204238D01*
X12166905Y-10185190D01*
X12176428Y-10175667D01*
X12195476Y-10166143D01*
X12224048Y-10166143D01*
X12243095Y-10175667D01*
X12252619Y-10185190D01*
X12262143Y-10204238D01*
X12262143Y-10261381D01*
X12252619Y-10280429D01*
X12243095Y-10289952D01*
X12224048Y-10299476D01*
X12195476Y-10299476D01*
X12376428Y-10299476D02*
X12357381Y-10289952D01*
X12347857Y-10270905D01*
X12347857Y-10099476D01*
X12528809Y-10289952D02*
X12509762Y-10299476D01*
X12471667Y-10299476D01*
X12452619Y-10289952D01*
X12443095Y-10270905D01*
X12443095Y-10194714D01*
X12452619Y-10175667D01*
X12471667Y-10166143D01*
X12509762Y-10166143D01*
X12528809Y-10175667D01*
X12538333Y-10194714D01*
X12538333Y-10213762D01*
X12443095Y-10232810D01*
X12614524Y-10289952D02*
X12633571Y-10299476D01*
X12671667Y-10299476D01*
X12690714Y-10289952D01*
X12700238Y-10270905D01*
X12700238Y-10261381D01*
X12690714Y-10242333D01*
X12671667Y-10232810D01*
X12643095Y-10232810D01*
X12624048Y-10223286D01*
X12614524Y-10204238D01*
X12614524Y-10194714D01*
X12624048Y-10175667D01*
X12643095Y-10166143D01*
X12671667Y-10166143D01*
X12690714Y-10175667D01*
X12766905Y-10375667D02*
X12776428Y-10366143D01*
X12795476Y-10337571D01*
X12805000Y-10318524D01*
X12814524Y-10289952D01*
X12824048Y-10242333D01*
X12824048Y-10204238D01*
X12814524Y-10156619D01*
X12805000Y-10128048D01*
X12795476Y-10109000D01*
X12776428Y-10080429D01*
X12766905Y-10070905D01*
D14*
X7975000Y-10453000D02*
X7975000Y-10493000D01*
X7955000Y-10473000D02*
X7995000Y-10473000D01*
D11*
X8290714Y-10363476D02*
X8309762Y-10363476D01*
X8328809Y-10373000D01*
X8338333Y-10382524D01*
X8347857Y-10401571D01*
X8357381Y-10439667D01*
X8357381Y-10487286D01*
X8347857Y-10525381D01*
X8338333Y-10544429D01*
X8328809Y-10553952D01*
X8309762Y-10563476D01*
X8290714Y-10563476D01*
X8271667Y-10553952D01*
X8262143Y-10544429D01*
X8252619Y-10525381D01*
X8243095Y-10487286D01*
X8243095Y-10439667D01*
X8252619Y-10401571D01*
X8262143Y-10382524D01*
X8271667Y-10373000D01*
X8290714Y-10363476D01*
X8443095Y-10544429D02*
X8452619Y-10553952D01*
X8443095Y-10563476D01*
X8433571Y-10553952D01*
X8443095Y-10544429D01*
X8443095Y-10563476D01*
X8624048Y-10430143D02*
X8624048Y-10563476D01*
X8576429Y-10353952D02*
X8528810Y-10496810D01*
X8652619Y-10496810D01*
X8766905Y-10363476D02*
X8785952Y-10363476D01*
X8805000Y-10373000D01*
X8814524Y-10382524D01*
X8824048Y-10401571D01*
X8833571Y-10439667D01*
X8833571Y-10487286D01*
X8824048Y-10525381D01*
X8814524Y-10544429D01*
X8805000Y-10553952D01*
X8785952Y-10563476D01*
X8766905Y-10563476D01*
X8747857Y-10553952D01*
X8738333Y-10544429D01*
X8728810Y-10525381D01*
X8719286Y-10487286D01*
X8719286Y-10439667D01*
X8728810Y-10401571D01*
X8738333Y-10382524D01*
X8747857Y-10373000D01*
X8766905Y-10363476D01*
X8957381Y-10363476D02*
X8976429Y-10363476D01*
X8995476Y-10373000D01*
X9005000Y-10382524D01*
X9014524Y-10401571D01*
X9024048Y-10439667D01*
X9024048Y-10487286D01*
X9014524Y-10525381D01*
X9005000Y-10544429D01*
X8995476Y-10553952D01*
X8976429Y-10563476D01*
X8957381Y-10563476D01*
X8938333Y-10553952D01*
X8928810Y-10544429D01*
X8919286Y-10525381D01*
X8909762Y-10487286D01*
X8909762Y-10439667D01*
X8919286Y-10401571D01*
X8928810Y-10382524D01*
X8938333Y-10373000D01*
X8957381Y-10363476D01*
X9109762Y-10563476D02*
X9109762Y-10430143D01*
X9109762Y-10449190D02*
X9119286Y-10439667D01*
X9138333Y-10430143D01*
X9166905Y-10430143D01*
X9185952Y-10439667D01*
X9195476Y-10458714D01*
X9195476Y-10563476D01*
X9195476Y-10458714D02*
X9205000Y-10439667D01*
X9224048Y-10430143D01*
X9252619Y-10430143D01*
X9271667Y-10439667D01*
X9281190Y-10458714D01*
X9281190Y-10563476D01*
X9376429Y-10563476D02*
X9376429Y-10430143D01*
X9376429Y-10449190D02*
X9385952Y-10439667D01*
X9405000Y-10430143D01*
X9433571Y-10430143D01*
X9452619Y-10439667D01*
X9462143Y-10458714D01*
X9462143Y-10563476D01*
X9462143Y-10458714D02*
X9471667Y-10439667D01*
X9490714Y-10430143D01*
X9519286Y-10430143D01*
X9538333Y-10439667D01*
X9547857Y-10458714D01*
X9547857Y-10563476D01*
X9938333Y-10353952D02*
X9766905Y-10611095D01*
X10195476Y-10363476D02*
X10214524Y-10363476D01*
X10233571Y-10373000D01*
X10243095Y-10382524D01*
X10252619Y-10401571D01*
X10262143Y-10439667D01*
X10262143Y-10487286D01*
X10252619Y-10525381D01*
X10243095Y-10544429D01*
X10233571Y-10553952D01*
X10214524Y-10563476D01*
X10195476Y-10563476D01*
X10176429Y-10553952D01*
X10166905Y-10544429D01*
X10157381Y-10525381D01*
X10147857Y-10487286D01*
X10147857Y-10439667D01*
X10157381Y-10401571D01*
X10166905Y-10382524D01*
X10176429Y-10373000D01*
X10195476Y-10363476D01*
X10347857Y-10544429D02*
X10357381Y-10553952D01*
X10347857Y-10563476D01*
X10338333Y-10553952D01*
X10347857Y-10544429D01*
X10347857Y-10563476D01*
X10481190Y-10363476D02*
X10500238Y-10363476D01*
X10519286Y-10373000D01*
X10528810Y-10382524D01*
X10538333Y-10401571D01*
X10547857Y-10439667D01*
X10547857Y-10487286D01*
X10538333Y-10525381D01*
X10528810Y-10544429D01*
X10519286Y-10553952D01*
X10500238Y-10563476D01*
X10481190Y-10563476D01*
X10462143Y-10553952D01*
X10452619Y-10544429D01*
X10443095Y-10525381D01*
X10433571Y-10487286D01*
X10433571Y-10439667D01*
X10443095Y-10401571D01*
X10452619Y-10382524D01*
X10462143Y-10373000D01*
X10481190Y-10363476D01*
X10738333Y-10563476D02*
X10624048Y-10563476D01*
X10681190Y-10563476D02*
X10681190Y-10363476D01*
X10662143Y-10392048D01*
X10643095Y-10411095D01*
X10624048Y-10420619D01*
X10919286Y-10363476D02*
X10824048Y-10363476D01*
X10814524Y-10458714D01*
X10824048Y-10449190D01*
X10843095Y-10439667D01*
X10890714Y-10439667D01*
X10909762Y-10449190D01*
X10919286Y-10458714D01*
X10928810Y-10477762D01*
X10928810Y-10525381D01*
X10919286Y-10544429D01*
X10909762Y-10553952D01*
X10890714Y-10563476D01*
X10843095Y-10563476D01*
X10824048Y-10553952D01*
X10814524Y-10544429D01*
X10995476Y-10363476D02*
X11128810Y-10363476D01*
X11043095Y-10563476D01*
X11195476Y-10363476D02*
X11195476Y-10401571D01*
X11271667Y-10363476D02*
X11271667Y-10401571D01*
X11566905Y-10639667D02*
X11557381Y-10630143D01*
X11538333Y-10601571D01*
X11528809Y-10582524D01*
X11519286Y-10553952D01*
X11509762Y-10506333D01*
X11509762Y-10468238D01*
X11519286Y-10420619D01*
X11528809Y-10392048D01*
X11538333Y-10373000D01*
X11557381Y-10344429D01*
X11566905Y-10334905D01*
X11671667Y-10449190D02*
X11652619Y-10439667D01*
X11643095Y-10430143D01*
X11633571Y-10411095D01*
X11633571Y-10401571D01*
X11643095Y-10382524D01*
X11652619Y-10373000D01*
X11671667Y-10363476D01*
X11709762Y-10363476D01*
X11728809Y-10373000D01*
X11738333Y-10382524D01*
X11747857Y-10401571D01*
X11747857Y-10411095D01*
X11738333Y-10430143D01*
X11728809Y-10439667D01*
X11709762Y-10449190D01*
X11671667Y-10449190D01*
X11652619Y-10458714D01*
X11643095Y-10468238D01*
X11633571Y-10487286D01*
X11633571Y-10525381D01*
X11643095Y-10544429D01*
X11652619Y-10553952D01*
X11671667Y-10563476D01*
X11709762Y-10563476D01*
X11728809Y-10553952D01*
X11738333Y-10544429D01*
X11747857Y-10525381D01*
X11747857Y-10487286D01*
X11738333Y-10468238D01*
X11728809Y-10458714D01*
X11709762Y-10449190D01*
X11871667Y-10363476D02*
X11890714Y-10363476D01*
X11909762Y-10373000D01*
X11919286Y-10382524D01*
X11928809Y-10401571D01*
X11938333Y-10439667D01*
X11938333Y-10487286D01*
X11928809Y-10525381D01*
X11919286Y-10544429D01*
X11909762Y-10553952D01*
X11890714Y-10563476D01*
X11871667Y-10563476D01*
X11852619Y-10553952D01*
X11843095Y-10544429D01*
X11833571Y-10525381D01*
X11824048Y-10487286D01*
X11824048Y-10439667D01*
X11833571Y-10401571D01*
X11843095Y-10382524D01*
X11852619Y-10373000D01*
X11871667Y-10363476D01*
X12176428Y-10563476D02*
X12176428Y-10363476D01*
X12262143Y-10563476D02*
X12262143Y-10458714D01*
X12252619Y-10439667D01*
X12233571Y-10430143D01*
X12205000Y-10430143D01*
X12185952Y-10439667D01*
X12176428Y-10449190D01*
X12385952Y-10563476D02*
X12366905Y-10553952D01*
X12357381Y-10544429D01*
X12347857Y-10525381D01*
X12347857Y-10468238D01*
X12357381Y-10449190D01*
X12366905Y-10439667D01*
X12385952Y-10430143D01*
X12414524Y-10430143D01*
X12433571Y-10439667D01*
X12443095Y-10449190D01*
X12452619Y-10468238D01*
X12452619Y-10525381D01*
X12443095Y-10544429D01*
X12433571Y-10553952D01*
X12414524Y-10563476D01*
X12385952Y-10563476D01*
X12566905Y-10563476D02*
X12547857Y-10553952D01*
X12538333Y-10534905D01*
X12538333Y-10363476D01*
X12719286Y-10553952D02*
X12700238Y-10563476D01*
X12662143Y-10563476D01*
X12643095Y-10553952D01*
X12633571Y-10534905D01*
X12633571Y-10458714D01*
X12643095Y-10439667D01*
X12662143Y-10430143D01*
X12700238Y-10430143D01*
X12719286Y-10439667D01*
X12728809Y-10458714D01*
X12728809Y-10477762D01*
X12633571Y-10496810D01*
X12805000Y-10553952D02*
X12824048Y-10563476D01*
X12862143Y-10563476D01*
X12881190Y-10553952D01*
X12890714Y-10534905D01*
X12890714Y-10525381D01*
X12881190Y-10506333D01*
X12862143Y-10496810D01*
X12833571Y-10496810D01*
X12814524Y-10487286D01*
X12805000Y-10468238D01*
X12805000Y-10458714D01*
X12814524Y-10439667D01*
X12833571Y-10430143D01*
X12862143Y-10430143D01*
X12881190Y-10439667D01*
X12957381Y-10639667D02*
X12966905Y-10630143D01*
X12985952Y-10601571D01*
X12995476Y-10582524D01*
X13005000Y-10553952D01*
X13014524Y-10506333D01*
X13014524Y-10468238D01*
X13005000Y-10420619D01*
X12995476Y-10392048D01*
X12985952Y-10373000D01*
X12966905Y-10344429D01*
X12957381Y-10334905D01*
D15*
X7987678Y-10754678D02*
X7987678Y-10719322D01*
X7952322Y-10719322D01*
X7952322Y-10754678D01*
X7987678Y-10754678D01*
D11*
X8290714Y-10627476D02*
X8309762Y-10627476D01*
X8328809Y-10637000D01*
X8338333Y-10646524D01*
X8347857Y-10665571D01*
X8357381Y-10703667D01*
X8357381Y-10751286D01*
X8347857Y-10789381D01*
X8338333Y-10808429D01*
X8328809Y-10817952D01*
X8309762Y-10827476D01*
X8290714Y-10827476D01*
X8271667Y-10817952D01*
X8262143Y-10808429D01*
X8252619Y-10789381D01*
X8243095Y-10751286D01*
X8243095Y-10703667D01*
X8252619Y-10665571D01*
X8262143Y-10646524D01*
X8271667Y-10637000D01*
X8290714Y-10627476D01*
X8443095Y-10808429D02*
X8452619Y-10817952D01*
X8443095Y-10827476D01*
X8433571Y-10817952D01*
X8443095Y-10808429D01*
X8443095Y-10827476D01*
X8633571Y-10627476D02*
X8538333Y-10627476D01*
X8528810Y-10722714D01*
X8538333Y-10713190D01*
X8557381Y-10703667D01*
X8605000Y-10703667D01*
X8624048Y-10713190D01*
X8633571Y-10722714D01*
X8643095Y-10741762D01*
X8643095Y-10789381D01*
X8633571Y-10808429D01*
X8624048Y-10817952D01*
X8605000Y-10827476D01*
X8557381Y-10827476D01*
X8538333Y-10817952D01*
X8528810Y-10808429D01*
X8766905Y-10627476D02*
X8785952Y-10627476D01*
X8805000Y-10637000D01*
X8814524Y-10646524D01*
X8824048Y-10665571D01*
X8833571Y-10703667D01*
X8833571Y-10751286D01*
X8824048Y-10789381D01*
X8814524Y-10808429D01*
X8805000Y-10817952D01*
X8785952Y-10827476D01*
X8766905Y-10827476D01*
X8747857Y-10817952D01*
X8738333Y-10808429D01*
X8728810Y-10789381D01*
X8719286Y-10751286D01*
X8719286Y-10703667D01*
X8728810Y-10665571D01*
X8738333Y-10646524D01*
X8747857Y-10637000D01*
X8766905Y-10627476D01*
X8957381Y-10627476D02*
X8976429Y-10627476D01*
X8995476Y-10637000D01*
X9005000Y-10646524D01*
X9014524Y-10665571D01*
X9024048Y-10703667D01*
X9024048Y-10751286D01*
X9014524Y-10789381D01*
X9005000Y-10808429D01*
X8995476Y-10817952D01*
X8976429Y-10827476D01*
X8957381Y-10827476D01*
X8938333Y-10817952D01*
X8928810Y-10808429D01*
X8919286Y-10789381D01*
X8909762Y-10751286D01*
X8909762Y-10703667D01*
X8919286Y-10665571D01*
X8928810Y-10646524D01*
X8938333Y-10637000D01*
X8957381Y-10627476D01*
X9109762Y-10827476D02*
X9109762Y-10694143D01*
X9109762Y-10713190D02*
X9119286Y-10703667D01*
X9138333Y-10694143D01*
X9166905Y-10694143D01*
X9185952Y-10703667D01*
X9195476Y-10722714D01*
X9195476Y-10827476D01*
X9195476Y-10722714D02*
X9205000Y-10703667D01*
X9224048Y-10694143D01*
X9252619Y-10694143D01*
X9271667Y-10703667D01*
X9281190Y-10722714D01*
X9281190Y-10827476D01*
X9376429Y-10827476D02*
X9376429Y-10694143D01*
X9376429Y-10713190D02*
X9385952Y-10703667D01*
X9405000Y-10694143D01*
X9433571Y-10694143D01*
X9452619Y-10703667D01*
X9462143Y-10722714D01*
X9462143Y-10827476D01*
X9462143Y-10722714D02*
X9471667Y-10703667D01*
X9490714Y-10694143D01*
X9519286Y-10694143D01*
X9538333Y-10703667D01*
X9547857Y-10722714D01*
X9547857Y-10827476D01*
X9938333Y-10617952D02*
X9766905Y-10875095D01*
X10195476Y-10627476D02*
X10214524Y-10627476D01*
X10233571Y-10637000D01*
X10243095Y-10646524D01*
X10252619Y-10665571D01*
X10262143Y-10703667D01*
X10262143Y-10751286D01*
X10252619Y-10789381D01*
X10243095Y-10808429D01*
X10233571Y-10817952D01*
X10214524Y-10827476D01*
X10195476Y-10827476D01*
X10176429Y-10817952D01*
X10166905Y-10808429D01*
X10157381Y-10789381D01*
X10147857Y-10751286D01*
X10147857Y-10703667D01*
X10157381Y-10665571D01*
X10166905Y-10646524D01*
X10176429Y-10637000D01*
X10195476Y-10627476D01*
X10347857Y-10808429D02*
X10357381Y-10817952D01*
X10347857Y-10827476D01*
X10338333Y-10817952D01*
X10347857Y-10808429D01*
X10347857Y-10827476D01*
X10481190Y-10627476D02*
X10500238Y-10627476D01*
X10519286Y-10637000D01*
X10528810Y-10646524D01*
X10538333Y-10665571D01*
X10547857Y-10703667D01*
X10547857Y-10751286D01*
X10538333Y-10789381D01*
X10528810Y-10808429D01*
X10519286Y-10817952D01*
X10500238Y-10827476D01*
X10481190Y-10827476D01*
X10462143Y-10817952D01*
X10452619Y-10808429D01*
X10443095Y-10789381D01*
X10433571Y-10751286D01*
X10433571Y-10703667D01*
X10443095Y-10665571D01*
X10452619Y-10646524D01*
X10462143Y-10637000D01*
X10481190Y-10627476D01*
X10738333Y-10827476D02*
X10624048Y-10827476D01*
X10681190Y-10827476D02*
X10681190Y-10627476D01*
X10662143Y-10656048D01*
X10643095Y-10675095D01*
X10624048Y-10684619D01*
X10833571Y-10827476D02*
X10871667Y-10827476D01*
X10890714Y-10817952D01*
X10900238Y-10808429D01*
X10919286Y-10779857D01*
X10928810Y-10741762D01*
X10928810Y-10665571D01*
X10919286Y-10646524D01*
X10909762Y-10637000D01*
X10890714Y-10627476D01*
X10852619Y-10627476D01*
X10833571Y-10637000D01*
X10824048Y-10646524D01*
X10814524Y-10665571D01*
X10814524Y-10713190D01*
X10824048Y-10732238D01*
X10833571Y-10741762D01*
X10852619Y-10751286D01*
X10890714Y-10751286D01*
X10909762Y-10741762D01*
X10919286Y-10732238D01*
X10928810Y-10713190D01*
X10995476Y-10627476D02*
X11128810Y-10627476D01*
X11043095Y-10827476D01*
X11195476Y-10627476D02*
X11195476Y-10665571D01*
X11271667Y-10627476D02*
X11271667Y-10665571D01*
X11566905Y-10903667D02*
X11557381Y-10894143D01*
X11538333Y-10865571D01*
X11528809Y-10846524D01*
X11519286Y-10817952D01*
X11509762Y-10770333D01*
X11509762Y-10732238D01*
X11519286Y-10684619D01*
X11528809Y-10656048D01*
X11538333Y-10637000D01*
X11557381Y-10608429D01*
X11566905Y-10598905D01*
X11747857Y-10827476D02*
X11633571Y-10827476D01*
X11690714Y-10827476D02*
X11690714Y-10627476D01*
X11671667Y-10656048D01*
X11652619Y-10675095D01*
X11633571Y-10684619D01*
X11871667Y-10627476D02*
X11890714Y-10627476D01*
X11909762Y-10637000D01*
X11919286Y-10646524D01*
X11928809Y-10665571D01*
X11938333Y-10703667D01*
X11938333Y-10751286D01*
X11928809Y-10789381D01*
X11919286Y-10808429D01*
X11909762Y-10817952D01*
X11890714Y-10827476D01*
X11871667Y-10827476D01*
X11852619Y-10817952D01*
X11843095Y-10808429D01*
X11833571Y-10789381D01*
X11824048Y-10751286D01*
X11824048Y-10703667D01*
X11833571Y-10665571D01*
X11843095Y-10646524D01*
X11852619Y-10637000D01*
X11871667Y-10627476D01*
X12109762Y-10694143D02*
X12109762Y-10827476D01*
X12062143Y-10617952D02*
X12014524Y-10760810D01*
X12138333Y-10760810D01*
X12366905Y-10827476D02*
X12366905Y-10627476D01*
X12452619Y-10827476D02*
X12452619Y-10722714D01*
X12443095Y-10703667D01*
X12424048Y-10694143D01*
X12395476Y-10694143D01*
X12376428Y-10703667D01*
X12366905Y-10713190D01*
X12576428Y-10827476D02*
X12557381Y-10817952D01*
X12547857Y-10808429D01*
X12538333Y-10789381D01*
X12538333Y-10732238D01*
X12547857Y-10713190D01*
X12557381Y-10703667D01*
X12576428Y-10694143D01*
X12605000Y-10694143D01*
X12624048Y-10703667D01*
X12633571Y-10713190D01*
X12643095Y-10732238D01*
X12643095Y-10789381D01*
X12633571Y-10808429D01*
X12624048Y-10817952D01*
X12605000Y-10827476D01*
X12576428Y-10827476D01*
X12757381Y-10827476D02*
X12738333Y-10817952D01*
X12728809Y-10798905D01*
X12728809Y-10627476D01*
X12909762Y-10817952D02*
X12890714Y-10827476D01*
X12852619Y-10827476D01*
X12833571Y-10817952D01*
X12824048Y-10798905D01*
X12824048Y-10722714D01*
X12833571Y-10703667D01*
X12852619Y-10694143D01*
X12890714Y-10694143D01*
X12909762Y-10703667D01*
X12919286Y-10722714D01*
X12919286Y-10741762D01*
X12824048Y-10760810D01*
X12995476Y-10817952D02*
X13014524Y-10827476D01*
X13052619Y-10827476D01*
X13071667Y-10817952D01*
X13081190Y-10798905D01*
X13081190Y-10789381D01*
X13071667Y-10770333D01*
X13052619Y-10760810D01*
X13024048Y-10760810D01*
X13005000Y-10751286D01*
X12995476Y-10732238D01*
X12995476Y-10722714D01*
X13005000Y-10703667D01*
X13024048Y-10694143D01*
X13052619Y-10694143D01*
X13071667Y-10703667D01*
X13147857Y-10903667D02*
X13157381Y-10894143D01*
X13176428Y-10865571D01*
X13185952Y-10846524D01*
X13195476Y-10817952D01*
X13205000Y-10770333D01*
X13205000Y-10732238D01*
X13195476Y-10684619D01*
X13185952Y-10656048D01*
X13176428Y-10637000D01*
X13157381Y-10608429D01*
X13147857Y-10598905D01*
D16*
X7945000Y-11051000D02*
X7995000Y-11001000D01*
X7945000Y-10951000D01*
X7895000Y-11001000D01*
X7945000Y-11051000D01*
D11*
X8357381Y-11091476D02*
X8243095Y-11091476D01*
X8300238Y-11091476D02*
X8300238Y-10891476D01*
X8281190Y-10920048D01*
X8262143Y-10939095D01*
X8243095Y-10948619D01*
X8443095Y-11072429D02*
X8452619Y-11081952D01*
X8443095Y-11091476D01*
X8433571Y-11081952D01*
X8443095Y-11072429D01*
X8443095Y-11091476D01*
X8576429Y-10891476D02*
X8595476Y-10891476D01*
X8614524Y-10901000D01*
X8624048Y-10910524D01*
X8633571Y-10929571D01*
X8643095Y-10967667D01*
X8643095Y-11015286D01*
X8633571Y-11053381D01*
X8624048Y-11072429D01*
X8614524Y-11081952D01*
X8595476Y-11091476D01*
X8576429Y-11091476D01*
X8557381Y-11081952D01*
X8547857Y-11072429D01*
X8538333Y-11053381D01*
X8528810Y-11015286D01*
X8528810Y-10967667D01*
X8538333Y-10929571D01*
X8547857Y-10910524D01*
X8557381Y-10901000D01*
X8576429Y-10891476D01*
X8766905Y-10891476D02*
X8785952Y-10891476D01*
X8805000Y-10901000D01*
X8814524Y-10910524D01*
X8824048Y-10929571D01*
X8833571Y-10967667D01*
X8833571Y-11015286D01*
X8824048Y-11053381D01*
X8814524Y-11072429D01*
X8805000Y-11081952D01*
X8785952Y-11091476D01*
X8766905Y-11091476D01*
X8747857Y-11081952D01*
X8738333Y-11072429D01*
X8728810Y-11053381D01*
X8719286Y-11015286D01*
X8719286Y-10967667D01*
X8728810Y-10929571D01*
X8738333Y-10910524D01*
X8747857Y-10901000D01*
X8766905Y-10891476D01*
X8957381Y-10891476D02*
X8976429Y-10891476D01*
X8995476Y-10901000D01*
X9005000Y-10910524D01*
X9014524Y-10929571D01*
X9024048Y-10967667D01*
X9024048Y-11015286D01*
X9014524Y-11053381D01*
X9005000Y-11072429D01*
X8995476Y-11081952D01*
X8976429Y-11091476D01*
X8957381Y-11091476D01*
X8938333Y-11081952D01*
X8928810Y-11072429D01*
X8919286Y-11053381D01*
X8909762Y-11015286D01*
X8909762Y-10967667D01*
X8919286Y-10929571D01*
X8928810Y-10910524D01*
X8938333Y-10901000D01*
X8957381Y-10891476D01*
X9109762Y-11091476D02*
X9109762Y-10958143D01*
X9109762Y-10977190D02*
X9119286Y-10967667D01*
X9138333Y-10958143D01*
X9166905Y-10958143D01*
X9185952Y-10967667D01*
X9195476Y-10986714D01*
X9195476Y-11091476D01*
X9195476Y-10986714D02*
X9205000Y-10967667D01*
X9224048Y-10958143D01*
X9252619Y-10958143D01*
X9271667Y-10967667D01*
X9281190Y-10986714D01*
X9281190Y-11091476D01*
X9376429Y-11091476D02*
X9376429Y-10958143D01*
X9376429Y-10977190D02*
X9385952Y-10967667D01*
X9405000Y-10958143D01*
X9433571Y-10958143D01*
X9452619Y-10967667D01*
X9462143Y-10986714D01*
X9462143Y-11091476D01*
X9462143Y-10986714D02*
X9471667Y-10967667D01*
X9490714Y-10958143D01*
X9519286Y-10958143D01*
X9538333Y-10967667D01*
X9547857Y-10986714D01*
X9547857Y-11091476D01*
X9938333Y-10881952D02*
X9766905Y-11139095D01*
X10195476Y-10891476D02*
X10214524Y-10891476D01*
X10233571Y-10901000D01*
X10243095Y-10910524D01*
X10252619Y-10929571D01*
X10262143Y-10967667D01*
X10262143Y-11015286D01*
X10252619Y-11053381D01*
X10243095Y-11072429D01*
X10233571Y-11081952D01*
X10214524Y-11091476D01*
X10195476Y-11091476D01*
X10176429Y-11081952D01*
X10166905Y-11072429D01*
X10157381Y-11053381D01*
X10147857Y-11015286D01*
X10147857Y-10967667D01*
X10157381Y-10929571D01*
X10166905Y-10910524D01*
X10176429Y-10901000D01*
X10195476Y-10891476D01*
X10347857Y-11072429D02*
X10357381Y-11081952D01*
X10347857Y-11091476D01*
X10338333Y-11081952D01*
X10347857Y-11072429D01*
X10347857Y-11091476D01*
X10481190Y-10891476D02*
X10500238Y-10891476D01*
X10519286Y-10901000D01*
X10528810Y-10910524D01*
X10538333Y-10929571D01*
X10547857Y-10967667D01*
X10547857Y-11015286D01*
X10538333Y-11053381D01*
X10528810Y-11072429D01*
X10519286Y-11081952D01*
X10500238Y-11091476D01*
X10481190Y-11091476D01*
X10462143Y-11081952D01*
X10452619Y-11072429D01*
X10443095Y-11053381D01*
X10433571Y-11015286D01*
X10433571Y-10967667D01*
X10443095Y-10929571D01*
X10452619Y-10910524D01*
X10462143Y-10901000D01*
X10481190Y-10891476D01*
X10614524Y-10891476D02*
X10738333Y-10891476D01*
X10671667Y-10967667D01*
X10700238Y-10967667D01*
X10719286Y-10977190D01*
X10728810Y-10986714D01*
X10738333Y-11005762D01*
X10738333Y-11053381D01*
X10728810Y-11072429D01*
X10719286Y-11081952D01*
X10700238Y-11091476D01*
X10643095Y-11091476D01*
X10624048Y-11081952D01*
X10614524Y-11072429D01*
X10833571Y-11091476D02*
X10871667Y-11091476D01*
X10890714Y-11081952D01*
X10900238Y-11072429D01*
X10919286Y-11043857D01*
X10928810Y-11005762D01*
X10928810Y-10929571D01*
X10919286Y-10910524D01*
X10909762Y-10901000D01*
X10890714Y-10891476D01*
X10852619Y-10891476D01*
X10833571Y-10901000D01*
X10824048Y-10910524D01*
X10814524Y-10929571D01*
X10814524Y-10977190D01*
X10824048Y-10996238D01*
X10833571Y-11005762D01*
X10852619Y-11015286D01*
X10890714Y-11015286D01*
X10909762Y-11005762D01*
X10919286Y-10996238D01*
X10928810Y-10977190D01*
X11100238Y-10958143D02*
X11100238Y-11091476D01*
X11052619Y-10881952D02*
X11005000Y-11024810D01*
X11128810Y-11024810D01*
X11195476Y-10891476D02*
X11195476Y-10929571D01*
X11271667Y-10891476D02*
X11271667Y-10929571D01*
X11566905Y-11167667D02*
X11557381Y-11158143D01*
X11538333Y-11129571D01*
X11528809Y-11110524D01*
X11519286Y-11081952D01*
X11509762Y-11034333D01*
X11509762Y-10996238D01*
X11519286Y-10948619D01*
X11528809Y-10920048D01*
X11538333Y-10901000D01*
X11557381Y-10872429D01*
X11566905Y-10862905D01*
X11633571Y-10910524D02*
X11643095Y-10901000D01*
X11662143Y-10891476D01*
X11709762Y-10891476D01*
X11728809Y-10901000D01*
X11738333Y-10910524D01*
X11747857Y-10929571D01*
X11747857Y-10948619D01*
X11738333Y-10977190D01*
X11624048Y-11091476D01*
X11747857Y-11091476D01*
X11862143Y-10977190D02*
X11843095Y-10967667D01*
X11833571Y-10958143D01*
X11824048Y-10939095D01*
X11824048Y-10929571D01*
X11833571Y-10910524D01*
X11843095Y-10901000D01*
X11862143Y-10891476D01*
X11900238Y-10891476D01*
X11919286Y-10901000D01*
X11928809Y-10910524D01*
X11938333Y-10929571D01*
X11938333Y-10939095D01*
X11928809Y-10958143D01*
X11919286Y-10967667D01*
X11900238Y-10977190D01*
X11862143Y-10977190D01*
X11843095Y-10986714D01*
X11833571Y-10996238D01*
X11824048Y-11015286D01*
X11824048Y-11053381D01*
X11833571Y-11072429D01*
X11843095Y-11081952D01*
X11862143Y-11091476D01*
X11900238Y-11091476D01*
X11919286Y-11081952D01*
X11928809Y-11072429D01*
X11938333Y-11053381D01*
X11938333Y-11015286D01*
X11928809Y-10996238D01*
X11919286Y-10986714D01*
X11900238Y-10977190D01*
X12176428Y-11091476D02*
X12176428Y-10891476D01*
X12262143Y-11091476D02*
X12262143Y-10986714D01*
X12252619Y-10967667D01*
X12233571Y-10958143D01*
X12205000Y-10958143D01*
X12185952Y-10967667D01*
X12176428Y-10977190D01*
X12385952Y-11091476D02*
X12366905Y-11081952D01*
X12357381Y-11072429D01*
X12347857Y-11053381D01*
X12347857Y-10996238D01*
X12357381Y-10977190D01*
X12366905Y-10967667D01*
X12385952Y-10958143D01*
X12414524Y-10958143D01*
X12433571Y-10967667D01*
X12443095Y-10977190D01*
X12452619Y-10996238D01*
X12452619Y-11053381D01*
X12443095Y-11072429D01*
X12433571Y-11081952D01*
X12414524Y-11091476D01*
X12385952Y-11091476D01*
X12566905Y-11091476D02*
X12547857Y-11081952D01*
X12538333Y-11062905D01*
X12538333Y-10891476D01*
X12719286Y-11081952D02*
X12700238Y-11091476D01*
X12662143Y-11091476D01*
X12643095Y-11081952D01*
X12633571Y-11062905D01*
X12633571Y-10986714D01*
X12643095Y-10967667D01*
X12662143Y-10958143D01*
X12700238Y-10958143D01*
X12719286Y-10967667D01*
X12728809Y-10986714D01*
X12728809Y-11005762D01*
X12633571Y-11024810D01*
X12805000Y-11081952D02*
X12824048Y-11091476D01*
X12862143Y-11091476D01*
X12881190Y-11081952D01*
X12890714Y-11062905D01*
X12890714Y-11053381D01*
X12881190Y-11034333D01*
X12862143Y-11024810D01*
X12833571Y-11024810D01*
X12814524Y-11015286D01*
X12805000Y-10996238D01*
X12805000Y-10986714D01*
X12814524Y-10967667D01*
X12833571Y-10958143D01*
X12862143Y-10958143D01*
X12881190Y-10967667D01*
X12957381Y-11167667D02*
X12966905Y-11158143D01*
X12985952Y-11129571D01*
X12995476Y-11110524D01*
X13005000Y-11081952D01*
X13014524Y-11034333D01*
X13014524Y-10996238D01*
X13005000Y-10948619D01*
X12995476Y-10920048D01*
X12985952Y-10901000D01*
X12966905Y-10872429D01*
X12957381Y-10862905D01*
D17*
X7875000Y-11205000D02*
X7995000Y-11325000D01*
X7995000Y-11205000D02*
X7875000Y-11325000D01*
X7995000Y-11265000D02*
G75*
G03*
X7995000Y-11265000I-60000J0D01*
G01*
D11*
X8357381Y-11355476D02*
X8243095Y-11355476D01*
X8300238Y-11355476D02*
X8300238Y-11155476D01*
X8281190Y-11184048D01*
X8262143Y-11203095D01*
X8243095Y-11212619D01*
X8443095Y-11336428D02*
X8452619Y-11345952D01*
X8443095Y-11355476D01*
X8433571Y-11345952D01*
X8443095Y-11336428D01*
X8443095Y-11355476D01*
X8528810Y-11174524D02*
X8538333Y-11165000D01*
X8557381Y-11155476D01*
X8605000Y-11155476D01*
X8624048Y-11165000D01*
X8633571Y-11174524D01*
X8643095Y-11193571D01*
X8643095Y-11212619D01*
X8633571Y-11241190D01*
X8519286Y-11355476D01*
X8643095Y-11355476D01*
X8766905Y-11155476D02*
X8785952Y-11155476D01*
X8805000Y-11165000D01*
X8814524Y-11174524D01*
X8824048Y-11193571D01*
X8833571Y-11231667D01*
X8833571Y-11279286D01*
X8824048Y-11317381D01*
X8814524Y-11336428D01*
X8805000Y-11345952D01*
X8785952Y-11355476D01*
X8766905Y-11355476D01*
X8747857Y-11345952D01*
X8738333Y-11336428D01*
X8728810Y-11317381D01*
X8719286Y-11279286D01*
X8719286Y-11231667D01*
X8728810Y-11193571D01*
X8738333Y-11174524D01*
X8747857Y-11165000D01*
X8766905Y-11155476D01*
X8957381Y-11155476D02*
X8976429Y-11155476D01*
X8995476Y-11165000D01*
X9005000Y-11174524D01*
X9014524Y-11193571D01*
X9024048Y-11231667D01*
X9024048Y-11279286D01*
X9014524Y-11317381D01*
X9005000Y-11336428D01*
X8995476Y-11345952D01*
X8976429Y-11355476D01*
X8957381Y-11355476D01*
X8938333Y-11345952D01*
X8928810Y-11336428D01*
X8919286Y-11317381D01*
X8909762Y-11279286D01*
X8909762Y-11231667D01*
X8919286Y-11193571D01*
X8928810Y-11174524D01*
X8938333Y-11165000D01*
X8957381Y-11155476D01*
X9109762Y-11355476D02*
X9109762Y-11222143D01*
X9109762Y-11241190D02*
X9119286Y-11231667D01*
X9138333Y-11222143D01*
X9166905Y-11222143D01*
X9185952Y-11231667D01*
X9195476Y-11250714D01*
X9195476Y-11355476D01*
X9195476Y-11250714D02*
X9205000Y-11231667D01*
X9224048Y-11222143D01*
X9252619Y-11222143D01*
X9271667Y-11231667D01*
X9281190Y-11250714D01*
X9281190Y-11355476D01*
X9376429Y-11355476D02*
X9376429Y-11222143D01*
X9376429Y-11241190D02*
X9385952Y-11231667D01*
X9405000Y-11222143D01*
X9433571Y-11222143D01*
X9452619Y-11231667D01*
X9462143Y-11250714D01*
X9462143Y-11355476D01*
X9462143Y-11250714D02*
X9471667Y-11231667D01*
X9490714Y-11222143D01*
X9519286Y-11222143D01*
X9538333Y-11231667D01*
X9547857Y-11250714D01*
X9547857Y-11355476D01*
X9938333Y-11145952D02*
X9766905Y-11403095D01*
X10195476Y-11155476D02*
X10214524Y-11155476D01*
X10233571Y-11165000D01*
X10243095Y-11174524D01*
X10252619Y-11193571D01*
X10262143Y-11231667D01*
X10262143Y-11279286D01*
X10252619Y-11317381D01*
X10243095Y-11336428D01*
X10233571Y-11345952D01*
X10214524Y-11355476D01*
X10195476Y-11355476D01*
X10176429Y-11345952D01*
X10166905Y-11336428D01*
X10157381Y-11317381D01*
X10147857Y-11279286D01*
X10147857Y-11231667D01*
X10157381Y-11193571D01*
X10166905Y-11174524D01*
X10176429Y-11165000D01*
X10195476Y-11155476D01*
X10347857Y-11336428D02*
X10357381Y-11345952D01*
X10347857Y-11355476D01*
X10338333Y-11345952D01*
X10347857Y-11336428D01*
X10347857Y-11355476D01*
X10481190Y-11155476D02*
X10500238Y-11155476D01*
X10519286Y-11165000D01*
X10528810Y-11174524D01*
X10538333Y-11193571D01*
X10547857Y-11231667D01*
X10547857Y-11279286D01*
X10538333Y-11317381D01*
X10528810Y-11336428D01*
X10519286Y-11345952D01*
X10500238Y-11355476D01*
X10481190Y-11355476D01*
X10462143Y-11345952D01*
X10452619Y-11336428D01*
X10443095Y-11317381D01*
X10433571Y-11279286D01*
X10433571Y-11231667D01*
X10443095Y-11193571D01*
X10452619Y-11174524D01*
X10462143Y-11165000D01*
X10481190Y-11155476D01*
X10719286Y-11222143D02*
X10719286Y-11355476D01*
X10671667Y-11145952D02*
X10624048Y-11288809D01*
X10747857Y-11288809D01*
X10805000Y-11155476D02*
X10938333Y-11155476D01*
X10852619Y-11355476D01*
X11005000Y-11174524D02*
X11014524Y-11165000D01*
X11033571Y-11155476D01*
X11081190Y-11155476D01*
X11100238Y-11165000D01*
X11109762Y-11174524D01*
X11119286Y-11193571D01*
X11119286Y-11212619D01*
X11109762Y-11241190D01*
X10995476Y-11355476D01*
X11119286Y-11355476D01*
X11195476Y-11155476D02*
X11195476Y-11193571D01*
X11271667Y-11155476D02*
X11271667Y-11193571D01*
X11566905Y-11431667D02*
X11557381Y-11422143D01*
X11538333Y-11393571D01*
X11528809Y-11374524D01*
X11519286Y-11345952D01*
X11509762Y-11298333D01*
X11509762Y-11260238D01*
X11519286Y-11212619D01*
X11528809Y-11184048D01*
X11538333Y-11165000D01*
X11557381Y-11136429D01*
X11566905Y-11126905D01*
X11728809Y-11222143D02*
X11728809Y-11355476D01*
X11681190Y-11145952D02*
X11633571Y-11288809D01*
X11757381Y-11288809D01*
X11985952Y-11355476D02*
X11985952Y-11155476D01*
X12071667Y-11355476D02*
X12071667Y-11250714D01*
X12062143Y-11231667D01*
X12043095Y-11222143D01*
X12014524Y-11222143D01*
X11995476Y-11231667D01*
X11985952Y-11241190D01*
X12195476Y-11355476D02*
X12176428Y-11345952D01*
X12166905Y-11336428D01*
X12157381Y-11317381D01*
X12157381Y-11260238D01*
X12166905Y-11241190D01*
X12176428Y-11231667D01*
X12195476Y-11222143D01*
X12224048Y-11222143D01*
X12243095Y-11231667D01*
X12252619Y-11241190D01*
X12262143Y-11260238D01*
X12262143Y-11317381D01*
X12252619Y-11336428D01*
X12243095Y-11345952D01*
X12224048Y-11355476D01*
X12195476Y-11355476D01*
X12376428Y-11355476D02*
X12357381Y-11345952D01*
X12347857Y-11326905D01*
X12347857Y-11155476D01*
X12528809Y-11345952D02*
X12509762Y-11355476D01*
X12471667Y-11355476D01*
X12452619Y-11345952D01*
X12443095Y-11326905D01*
X12443095Y-11250714D01*
X12452619Y-11231667D01*
X12471667Y-11222143D01*
X12509762Y-11222143D01*
X12528809Y-11231667D01*
X12538333Y-11250714D01*
X12538333Y-11269762D01*
X12443095Y-11288809D01*
X12614524Y-11345952D02*
X12633571Y-11355476D01*
X12671667Y-11355476D01*
X12690714Y-11345952D01*
X12700238Y-11326905D01*
X12700238Y-11317381D01*
X12690714Y-11298333D01*
X12671667Y-11288809D01*
X12643095Y-11288809D01*
X12624048Y-11279286D01*
X12614524Y-11260238D01*
X12614524Y-11250714D01*
X12624048Y-11231667D01*
X12643095Y-11222143D01*
X12671667Y-11222143D01*
X12690714Y-11231667D01*
X12766905Y-11431667D02*
X12776428Y-11422143D01*
X12795476Y-11393571D01*
X12805000Y-11374524D01*
X12814524Y-11345952D01*
X12824048Y-11298333D01*
X12824048Y-11260238D01*
X12814524Y-11212619D01*
X12805000Y-11184048D01*
X12795476Y-11165000D01*
X12776428Y-11136429D01*
X12766905Y-11126905D01*
X7795000Y-11429000D02*
X7995000Y-11629000D01*
X7995000Y-11429000D02*
X7795000Y-11629000D01*
X7895000Y-11429000D02*
X7895000Y-11629000D01*
X7795000Y-11529000D02*
X7995000Y-11529000D01*
X8338333Y-11486143D02*
X8338333Y-11619476D01*
X8290714Y-11409952D02*
X8243095Y-11552809D01*
X8366905Y-11552809D01*
X8443095Y-11600428D02*
X8452619Y-11609952D01*
X8443095Y-11619476D01*
X8433571Y-11609952D01*
X8443095Y-11600428D01*
X8443095Y-11619476D01*
X8576429Y-11419476D02*
X8595476Y-11419476D01*
X8614524Y-11429000D01*
X8624048Y-11438524D01*
X8633571Y-11457571D01*
X8643095Y-11495667D01*
X8643095Y-11543286D01*
X8633571Y-11581381D01*
X8624048Y-11600428D01*
X8614524Y-11609952D01*
X8595476Y-11619476D01*
X8576429Y-11619476D01*
X8557381Y-11609952D01*
X8547857Y-11600428D01*
X8538333Y-11581381D01*
X8528810Y-11543286D01*
X8528810Y-11495667D01*
X8538333Y-11457571D01*
X8547857Y-11438524D01*
X8557381Y-11429000D01*
X8576429Y-11419476D01*
X8766905Y-11419476D02*
X8785952Y-11419476D01*
X8805000Y-11429000D01*
X8814524Y-11438524D01*
X8824048Y-11457571D01*
X8833571Y-11495667D01*
X8833571Y-11543286D01*
X8824048Y-11581381D01*
X8814524Y-11600428D01*
X8805000Y-11609952D01*
X8785952Y-11619476D01*
X8766905Y-11619476D01*
X8747857Y-11609952D01*
X8738333Y-11600428D01*
X8728810Y-11581381D01*
X8719286Y-11543286D01*
X8719286Y-11495667D01*
X8728810Y-11457571D01*
X8738333Y-11438524D01*
X8747857Y-11429000D01*
X8766905Y-11419476D01*
X8957381Y-11419476D02*
X8976429Y-11419476D01*
X8995476Y-11429000D01*
X9005000Y-11438524D01*
X9014524Y-11457571D01*
X9024048Y-11495667D01*
X9024048Y-11543286D01*
X9014524Y-11581381D01*
X9005000Y-11600428D01*
X8995476Y-11609952D01*
X8976429Y-11619476D01*
X8957381Y-11619476D01*
X8938333Y-11609952D01*
X8928810Y-11600428D01*
X8919286Y-11581381D01*
X8909762Y-11543286D01*
X8909762Y-11495667D01*
X8919286Y-11457571D01*
X8928810Y-11438524D01*
X8938333Y-11429000D01*
X8957381Y-11419476D01*
X9109762Y-11619476D02*
X9109762Y-11486143D01*
X9109762Y-11505190D02*
X9119286Y-11495667D01*
X9138333Y-11486143D01*
X9166905Y-11486143D01*
X9185952Y-11495667D01*
X9195476Y-11514714D01*
X9195476Y-11619476D01*
X9195476Y-11514714D02*
X9205000Y-11495667D01*
X9224048Y-11486143D01*
X9252619Y-11486143D01*
X9271667Y-11495667D01*
X9281190Y-11514714D01*
X9281190Y-11619476D01*
X9376429Y-11619476D02*
X9376429Y-11486143D01*
X9376429Y-11505190D02*
X9385952Y-11495667D01*
X9405000Y-11486143D01*
X9433571Y-11486143D01*
X9452619Y-11495667D01*
X9462143Y-11514714D01*
X9462143Y-11619476D01*
X9462143Y-11514714D02*
X9471667Y-11495667D01*
X9490714Y-11486143D01*
X9519286Y-11486143D01*
X9538333Y-11495667D01*
X9547857Y-11514714D01*
X9547857Y-11619476D01*
X9938333Y-11409952D02*
X9766905Y-11667095D01*
X10195476Y-11419476D02*
X10214524Y-11419476D01*
X10233571Y-11429000D01*
X10243095Y-11438524D01*
X10252619Y-11457571D01*
X10262143Y-11495667D01*
X10262143Y-11543286D01*
X10252619Y-11581381D01*
X10243095Y-11600428D01*
X10233571Y-11609952D01*
X10214524Y-11619476D01*
X10195476Y-11619476D01*
X10176429Y-11609952D01*
X10166905Y-11600428D01*
X10157381Y-11581381D01*
X10147857Y-11543286D01*
X10147857Y-11495667D01*
X10157381Y-11457571D01*
X10166905Y-11438524D01*
X10176429Y-11429000D01*
X10195476Y-11419476D01*
X10347857Y-11600428D02*
X10357381Y-11609952D01*
X10347857Y-11619476D01*
X10338333Y-11609952D01*
X10347857Y-11600428D01*
X10347857Y-11619476D01*
X10547857Y-11619476D02*
X10433571Y-11619476D01*
X10490714Y-11619476D02*
X10490714Y-11419476D01*
X10471667Y-11448048D01*
X10452619Y-11467095D01*
X10433571Y-11476619D01*
X10728810Y-11419476D02*
X10633571Y-11419476D01*
X10624048Y-11514714D01*
X10633571Y-11505190D01*
X10652619Y-11495667D01*
X10700238Y-11495667D01*
X10719286Y-11505190D01*
X10728810Y-11514714D01*
X10738333Y-11533762D01*
X10738333Y-11581381D01*
X10728810Y-11600428D01*
X10719286Y-11609952D01*
X10700238Y-11619476D01*
X10652619Y-11619476D01*
X10633571Y-11609952D01*
X10624048Y-11600428D01*
X10805000Y-11419476D02*
X10938333Y-11419476D01*
X10852619Y-11619476D01*
X11109762Y-11419476D02*
X11014524Y-11419476D01*
X11005000Y-11514714D01*
X11014524Y-11505190D01*
X11033571Y-11495667D01*
X11081190Y-11495667D01*
X11100238Y-11505190D01*
X11109762Y-11514714D01*
X11119286Y-11533762D01*
X11119286Y-11581381D01*
X11109762Y-11600428D01*
X11100238Y-11609952D01*
X11081190Y-11619476D01*
X11033571Y-11619476D01*
X11014524Y-11609952D01*
X11005000Y-11600428D01*
X11195476Y-11419476D02*
X11195476Y-11457571D01*
X11271667Y-11419476D02*
X11271667Y-11457571D01*
X11566905Y-11695667D02*
X11557381Y-11686143D01*
X11538333Y-11657571D01*
X11528809Y-11638524D01*
X11519286Y-11609952D01*
X11509762Y-11562333D01*
X11509762Y-11524238D01*
X11519286Y-11476619D01*
X11528809Y-11448048D01*
X11538333Y-11429000D01*
X11557381Y-11400428D01*
X11566905Y-11390905D01*
X11633571Y-11438524D02*
X11643095Y-11429000D01*
X11662143Y-11419476D01*
X11709762Y-11419476D01*
X11728809Y-11429000D01*
X11738333Y-11438524D01*
X11747857Y-11457571D01*
X11747857Y-11476619D01*
X11738333Y-11505190D01*
X11624048Y-11619476D01*
X11747857Y-11619476D01*
X11985952Y-11619476D02*
X11985952Y-11419476D01*
X12071667Y-11619476D02*
X12071667Y-11514714D01*
X12062143Y-11495667D01*
X12043095Y-11486143D01*
X12014524Y-11486143D01*
X11995476Y-11495667D01*
X11985952Y-11505190D01*
X12195476Y-11619476D02*
X12176428Y-11609952D01*
X12166905Y-11600428D01*
X12157381Y-11581381D01*
X12157381Y-11524238D01*
X12166905Y-11505190D01*
X12176428Y-11495667D01*
X12195476Y-11486143D01*
X12224048Y-11486143D01*
X12243095Y-11495667D01*
X12252619Y-11505190D01*
X12262143Y-11524238D01*
X12262143Y-11581381D01*
X12252619Y-11600428D01*
X12243095Y-11609952D01*
X12224048Y-11619476D01*
X12195476Y-11619476D01*
X12376428Y-11619476D02*
X12357381Y-11609952D01*
X12347857Y-11590905D01*
X12347857Y-11419476D01*
X12528809Y-11609952D02*
X12509762Y-11619476D01*
X12471667Y-11619476D01*
X12452619Y-11609952D01*
X12443095Y-11590905D01*
X12443095Y-11514714D01*
X12452619Y-11495667D01*
X12471667Y-11486143D01*
X12509762Y-11486143D01*
X12528809Y-11495667D01*
X12538333Y-11514714D01*
X12538333Y-11533762D01*
X12443095Y-11552809D01*
X12614524Y-11609952D02*
X12633571Y-11619476D01*
X12671667Y-11619476D01*
X12690714Y-11609952D01*
X12700238Y-11590905D01*
X12700238Y-11581381D01*
X12690714Y-11562333D01*
X12671667Y-11552809D01*
X12643095Y-11552809D01*
X12624048Y-11543286D01*
X12614524Y-11524238D01*
X12614524Y-11514714D01*
X12624048Y-11495667D01*
X12643095Y-11486143D01*
X12671667Y-11486143D01*
X12690714Y-11495667D01*
X12766905Y-11695667D02*
X12776428Y-11686143D01*
X12795476Y-11657571D01*
X12805000Y-11638524D01*
X12814524Y-11609952D01*
X12824048Y-11562333D01*
X12824048Y-11524238D01*
X12814524Y-11476619D01*
X12805000Y-11448048D01*
X12795476Y-11429000D01*
X12776428Y-11400428D01*
X12766905Y-11390905D01*
M02*
