%FSLAX45Y45*%
G04 Gerber Fmt 4.5, Leading zero omitted, Abs format (unit mm)*
G04 Created by KiCad (PCBNEW (6.0.4-0)) date 2022-05-03 08:29:12*
%MOMM*%
%LPD*%
G01*
G04 APERTURE LIST*
%TA.AperFunction,Profile*%
%ADD10C,0.100000*%
%TD*%
%ADD11C,0.200000*%
%ADD12C,0.080000*%
%ADD13C,0.320000*%
G04 APERTURE END LIST*
D10*
X8000000Y-9300000D02*
X8000000Y-5600000D01*
X17000000Y-5600000D02*
X17000000Y-9300000D01*
X17000000Y-9300000D02*
X8000000Y-9300000D01*
X8000000Y-5600000D02*
X17000000Y-5600000D01*
D11*
D12*
X10722000Y-9138000D02*
X10802000Y-9218000D01*
X10802000Y-9138000D02*
X10722000Y-9218000D01*
D13*
X8520000Y-5960000D02*
G75*
G03*
X8520000Y-5960000I-160000J0D01*
G01*
X8520000Y-8940000D02*
G75*
G03*
X8520000Y-8940000I-160000J0D01*
G01*
X16800000Y-5960000D02*
G75*
G03*
X16800000Y-5960000I-160000J0D01*
G01*
X16800000Y-8940000D02*
G75*
G03*
X16800000Y-8940000I-160000J0D01*
G01*
D11*
X8252619Y-9615476D02*
X8252619Y-9415476D01*
X8300238Y-9415476D01*
X8328809Y-9425000D01*
X8347857Y-9444048D01*
X8357381Y-9463095D01*
X8366905Y-9501190D01*
X8366905Y-9529762D01*
X8357381Y-9567857D01*
X8347857Y-9586905D01*
X8328809Y-9605952D01*
X8300238Y-9615476D01*
X8252619Y-9615476D01*
X8452619Y-9615476D02*
X8452619Y-9482143D01*
X8452619Y-9520238D02*
X8462143Y-9501190D01*
X8471667Y-9491667D01*
X8490714Y-9482143D01*
X8509762Y-9482143D01*
X8576429Y-9615476D02*
X8576429Y-9482143D01*
X8576429Y-9415476D02*
X8566905Y-9425000D01*
X8576429Y-9434524D01*
X8585952Y-9425000D01*
X8576429Y-9415476D01*
X8576429Y-9434524D01*
X8700238Y-9615476D02*
X8681190Y-9605952D01*
X8671667Y-9586905D01*
X8671667Y-9415476D01*
X8805000Y-9615476D02*
X8785952Y-9605952D01*
X8776429Y-9586905D01*
X8776429Y-9415476D01*
X9033571Y-9615476D02*
X9033571Y-9415476D01*
X9100238Y-9558333D01*
X9166905Y-9415476D01*
X9166905Y-9615476D01*
X9347857Y-9615476D02*
X9347857Y-9510714D01*
X9338333Y-9491667D01*
X9319286Y-9482143D01*
X9281190Y-9482143D01*
X9262143Y-9491667D01*
X9347857Y-9605952D02*
X9328810Y-9615476D01*
X9281190Y-9615476D01*
X9262143Y-9605952D01*
X9252619Y-9586905D01*
X9252619Y-9567857D01*
X9262143Y-9548810D01*
X9281190Y-9539286D01*
X9328810Y-9539286D01*
X9347857Y-9529762D01*
X9443095Y-9482143D02*
X9443095Y-9682143D01*
X9443095Y-9491667D02*
X9462143Y-9482143D01*
X9500238Y-9482143D01*
X9519286Y-9491667D01*
X9528810Y-9501190D01*
X9538333Y-9520238D01*
X9538333Y-9577381D01*
X9528810Y-9596429D01*
X9519286Y-9605952D01*
X9500238Y-9615476D01*
X9462143Y-9615476D01*
X9443095Y-9605952D01*
X9624048Y-9596429D02*
X9633571Y-9605952D01*
X9624048Y-9615476D01*
X9614524Y-9605952D01*
X9624048Y-9596429D01*
X9624048Y-9615476D01*
X9624048Y-9491667D02*
X9633571Y-9501190D01*
X9624048Y-9510714D01*
X9614524Y-9501190D01*
X9624048Y-9491667D01*
X9624048Y-9510714D01*
D12*
X7915000Y-9905000D02*
X7995000Y-9985000D01*
X7995000Y-9905000D02*
X7915000Y-9985000D01*
D11*
X8290714Y-9835476D02*
X8309762Y-9835476D01*
X8328809Y-9845000D01*
X8338333Y-9854524D01*
X8347857Y-9873571D01*
X8357381Y-9911667D01*
X8357381Y-9959286D01*
X8347857Y-9997381D01*
X8338333Y-10016429D01*
X8328809Y-10025952D01*
X8309762Y-10035476D01*
X8290714Y-10035476D01*
X8271667Y-10025952D01*
X8262143Y-10016429D01*
X8252619Y-9997381D01*
X8243095Y-9959286D01*
X8243095Y-9911667D01*
X8252619Y-9873571D01*
X8262143Y-9854524D01*
X8271667Y-9845000D01*
X8290714Y-9835476D01*
X8443095Y-10016429D02*
X8452619Y-10025952D01*
X8443095Y-10035476D01*
X8433571Y-10025952D01*
X8443095Y-10016429D01*
X8443095Y-10035476D01*
X8566905Y-9921190D02*
X8547857Y-9911667D01*
X8538333Y-9902143D01*
X8528810Y-9883095D01*
X8528810Y-9873571D01*
X8538333Y-9854524D01*
X8547857Y-9845000D01*
X8566905Y-9835476D01*
X8605000Y-9835476D01*
X8624048Y-9845000D01*
X8633571Y-9854524D01*
X8643095Y-9873571D01*
X8643095Y-9883095D01*
X8633571Y-9902143D01*
X8624048Y-9911667D01*
X8605000Y-9921190D01*
X8566905Y-9921190D01*
X8547857Y-9930714D01*
X8538333Y-9940238D01*
X8528810Y-9959286D01*
X8528810Y-9997381D01*
X8538333Y-10016429D01*
X8547857Y-10025952D01*
X8566905Y-10035476D01*
X8605000Y-10035476D01*
X8624048Y-10025952D01*
X8633571Y-10016429D01*
X8643095Y-9997381D01*
X8643095Y-9959286D01*
X8633571Y-9940238D01*
X8624048Y-9930714D01*
X8605000Y-9921190D01*
X8766905Y-9835476D02*
X8785952Y-9835476D01*
X8805000Y-9845000D01*
X8814524Y-9854524D01*
X8824048Y-9873571D01*
X8833571Y-9911667D01*
X8833571Y-9959286D01*
X8824048Y-9997381D01*
X8814524Y-10016429D01*
X8805000Y-10025952D01*
X8785952Y-10035476D01*
X8766905Y-10035476D01*
X8747857Y-10025952D01*
X8738333Y-10016429D01*
X8728810Y-9997381D01*
X8719286Y-9959286D01*
X8719286Y-9911667D01*
X8728810Y-9873571D01*
X8738333Y-9854524D01*
X8747857Y-9845000D01*
X8766905Y-9835476D01*
X8957381Y-9835476D02*
X8976429Y-9835476D01*
X8995476Y-9845000D01*
X9005000Y-9854524D01*
X9014524Y-9873571D01*
X9024048Y-9911667D01*
X9024048Y-9959286D01*
X9014524Y-9997381D01*
X9005000Y-10016429D01*
X8995476Y-10025952D01*
X8976429Y-10035476D01*
X8957381Y-10035476D01*
X8938333Y-10025952D01*
X8928810Y-10016429D01*
X8919286Y-9997381D01*
X8909762Y-9959286D01*
X8909762Y-9911667D01*
X8919286Y-9873571D01*
X8928810Y-9854524D01*
X8938333Y-9845000D01*
X8957381Y-9835476D01*
X9109762Y-10035476D02*
X9109762Y-9902143D01*
X9109762Y-9921190D02*
X9119286Y-9911667D01*
X9138333Y-9902143D01*
X9166905Y-9902143D01*
X9185952Y-9911667D01*
X9195476Y-9930714D01*
X9195476Y-10035476D01*
X9195476Y-9930714D02*
X9205000Y-9911667D01*
X9224048Y-9902143D01*
X9252619Y-9902143D01*
X9271667Y-9911667D01*
X9281190Y-9930714D01*
X9281190Y-10035476D01*
X9376429Y-10035476D02*
X9376429Y-9902143D01*
X9376429Y-9921190D02*
X9385952Y-9911667D01*
X9405000Y-9902143D01*
X9433571Y-9902143D01*
X9452619Y-9911667D01*
X9462143Y-9930714D01*
X9462143Y-10035476D01*
X9462143Y-9930714D02*
X9471667Y-9911667D01*
X9490714Y-9902143D01*
X9519286Y-9902143D01*
X9538333Y-9911667D01*
X9547857Y-9930714D01*
X9547857Y-10035476D01*
X9938333Y-9825952D02*
X9766905Y-10083095D01*
X10195476Y-9835476D02*
X10214524Y-9835476D01*
X10233571Y-9845000D01*
X10243095Y-9854524D01*
X10252619Y-9873571D01*
X10262143Y-9911667D01*
X10262143Y-9959286D01*
X10252619Y-9997381D01*
X10243095Y-10016429D01*
X10233571Y-10025952D01*
X10214524Y-10035476D01*
X10195476Y-10035476D01*
X10176429Y-10025952D01*
X10166905Y-10016429D01*
X10157381Y-9997381D01*
X10147857Y-9959286D01*
X10147857Y-9911667D01*
X10157381Y-9873571D01*
X10166905Y-9854524D01*
X10176429Y-9845000D01*
X10195476Y-9835476D01*
X10347857Y-10016429D02*
X10357381Y-10025952D01*
X10347857Y-10035476D01*
X10338333Y-10025952D01*
X10347857Y-10016429D01*
X10347857Y-10035476D01*
X10481190Y-9835476D02*
X10500238Y-9835476D01*
X10519286Y-9845000D01*
X10528810Y-9854524D01*
X10538333Y-9873571D01*
X10547857Y-9911667D01*
X10547857Y-9959286D01*
X10538333Y-9997381D01*
X10528810Y-10016429D01*
X10519286Y-10025952D01*
X10500238Y-10035476D01*
X10481190Y-10035476D01*
X10462143Y-10025952D01*
X10452619Y-10016429D01*
X10443095Y-9997381D01*
X10433571Y-9959286D01*
X10433571Y-9911667D01*
X10443095Y-9873571D01*
X10452619Y-9854524D01*
X10462143Y-9845000D01*
X10481190Y-9835476D01*
X10614524Y-9835476D02*
X10738333Y-9835476D01*
X10671667Y-9911667D01*
X10700238Y-9911667D01*
X10719286Y-9921190D01*
X10728810Y-9930714D01*
X10738333Y-9949762D01*
X10738333Y-9997381D01*
X10728810Y-10016429D01*
X10719286Y-10025952D01*
X10700238Y-10035476D01*
X10643095Y-10035476D01*
X10624048Y-10025952D01*
X10614524Y-10016429D01*
X10928810Y-10035476D02*
X10814524Y-10035476D01*
X10871667Y-10035476D02*
X10871667Y-9835476D01*
X10852619Y-9864048D01*
X10833571Y-9883095D01*
X10814524Y-9892619D01*
X11109762Y-9835476D02*
X11014524Y-9835476D01*
X11005000Y-9930714D01*
X11014524Y-9921190D01*
X11033571Y-9911667D01*
X11081190Y-9911667D01*
X11100238Y-9921190D01*
X11109762Y-9930714D01*
X11119286Y-9949762D01*
X11119286Y-9997381D01*
X11109762Y-10016429D01*
X11100238Y-10025952D01*
X11081190Y-10035476D01*
X11033571Y-10035476D01*
X11014524Y-10025952D01*
X11005000Y-10016429D01*
X11195476Y-9835476D02*
X11195476Y-9873571D01*
X11271667Y-9835476D02*
X11271667Y-9873571D01*
X11566905Y-10111667D02*
X11557381Y-10102143D01*
X11538333Y-10073571D01*
X11528809Y-10054524D01*
X11519286Y-10025952D01*
X11509762Y-9978333D01*
X11509762Y-9940238D01*
X11519286Y-9892619D01*
X11528809Y-9864048D01*
X11538333Y-9845000D01*
X11557381Y-9816429D01*
X11566905Y-9806905D01*
X11747857Y-10035476D02*
X11633571Y-10035476D01*
X11690714Y-10035476D02*
X11690714Y-9835476D01*
X11671667Y-9864048D01*
X11652619Y-9883095D01*
X11633571Y-9892619D01*
X11985952Y-10035476D02*
X11985952Y-9835476D01*
X12071667Y-10035476D02*
X12071667Y-9930714D01*
X12062143Y-9911667D01*
X12043095Y-9902143D01*
X12014524Y-9902143D01*
X11995476Y-9911667D01*
X11985952Y-9921190D01*
X12195476Y-10035476D02*
X12176428Y-10025952D01*
X12166905Y-10016429D01*
X12157381Y-9997381D01*
X12157381Y-9940238D01*
X12166905Y-9921190D01*
X12176428Y-9911667D01*
X12195476Y-9902143D01*
X12224048Y-9902143D01*
X12243095Y-9911667D01*
X12252619Y-9921190D01*
X12262143Y-9940238D01*
X12262143Y-9997381D01*
X12252619Y-10016429D01*
X12243095Y-10025952D01*
X12224048Y-10035476D01*
X12195476Y-10035476D01*
X12376428Y-10035476D02*
X12357381Y-10025952D01*
X12347857Y-10006905D01*
X12347857Y-9835476D01*
X12528809Y-10025952D02*
X12509762Y-10035476D01*
X12471667Y-10035476D01*
X12452619Y-10025952D01*
X12443095Y-10006905D01*
X12443095Y-9930714D01*
X12452619Y-9911667D01*
X12471667Y-9902143D01*
X12509762Y-9902143D01*
X12528809Y-9911667D01*
X12538333Y-9930714D01*
X12538333Y-9949762D01*
X12443095Y-9968810D01*
X12605000Y-10111667D02*
X12614524Y-10102143D01*
X12633571Y-10073571D01*
X12643095Y-10054524D01*
X12652619Y-10025952D01*
X12662143Y-9978333D01*
X12662143Y-9940238D01*
X12652619Y-9892619D01*
X12643095Y-9864048D01*
X12633571Y-9845000D01*
X12614524Y-9816429D01*
X12605000Y-9806905D01*
X12966905Y-10111667D02*
X12957381Y-10102143D01*
X12938333Y-10073571D01*
X12928809Y-10054524D01*
X12919286Y-10025952D01*
X12909762Y-9978333D01*
X12909762Y-9940238D01*
X12919286Y-9892619D01*
X12928809Y-9864048D01*
X12938333Y-9845000D01*
X12957381Y-9816429D01*
X12966905Y-9806905D01*
X13043095Y-9902143D02*
X13043095Y-10035476D01*
X13043095Y-9921190D02*
X13052619Y-9911667D01*
X13071667Y-9902143D01*
X13100238Y-9902143D01*
X13119286Y-9911667D01*
X13128809Y-9930714D01*
X13128809Y-10035476D01*
X13252619Y-10035476D02*
X13233571Y-10025952D01*
X13224048Y-10016429D01*
X13214524Y-9997381D01*
X13214524Y-9940238D01*
X13224048Y-9921190D01*
X13233571Y-9911667D01*
X13252619Y-9902143D01*
X13281190Y-9902143D01*
X13300238Y-9911667D01*
X13309762Y-9921190D01*
X13319286Y-9940238D01*
X13319286Y-9997381D01*
X13309762Y-10016429D01*
X13300238Y-10025952D01*
X13281190Y-10035476D01*
X13252619Y-10035476D01*
X13376428Y-9902143D02*
X13452619Y-9902143D01*
X13405000Y-9835476D02*
X13405000Y-10006905D01*
X13414524Y-10025952D01*
X13433571Y-10035476D01*
X13452619Y-10035476D01*
X13671667Y-9902143D02*
X13671667Y-10102143D01*
X13671667Y-9911667D02*
X13690714Y-9902143D01*
X13728809Y-9902143D01*
X13747857Y-9911667D01*
X13757381Y-9921190D01*
X13766905Y-9940238D01*
X13766905Y-9997381D01*
X13757381Y-10016429D01*
X13747857Y-10025952D01*
X13728809Y-10035476D01*
X13690714Y-10035476D01*
X13671667Y-10025952D01*
X13881190Y-10035476D02*
X13862143Y-10025952D01*
X13852619Y-10006905D01*
X13852619Y-9835476D01*
X14043095Y-10035476D02*
X14043095Y-9930714D01*
X14033571Y-9911667D01*
X14014524Y-9902143D01*
X13976428Y-9902143D01*
X13957381Y-9911667D01*
X14043095Y-10025952D02*
X14024048Y-10035476D01*
X13976428Y-10035476D01*
X13957381Y-10025952D01*
X13947857Y-10006905D01*
X13947857Y-9987857D01*
X13957381Y-9968810D01*
X13976428Y-9959286D01*
X14024048Y-9959286D01*
X14043095Y-9949762D01*
X14109762Y-9902143D02*
X14185952Y-9902143D01*
X14138333Y-9835476D02*
X14138333Y-10006905D01*
X14147857Y-10025952D01*
X14166905Y-10035476D01*
X14185952Y-10035476D01*
X14328809Y-10025952D02*
X14309762Y-10035476D01*
X14271667Y-10035476D01*
X14252619Y-10025952D01*
X14243095Y-10006905D01*
X14243095Y-9930714D01*
X14252619Y-9911667D01*
X14271667Y-9902143D01*
X14309762Y-9902143D01*
X14328809Y-9911667D01*
X14338333Y-9930714D01*
X14338333Y-9949762D01*
X14243095Y-9968810D01*
X14509762Y-10035476D02*
X14509762Y-9835476D01*
X14509762Y-10025952D02*
X14490714Y-10035476D01*
X14452619Y-10035476D01*
X14433571Y-10025952D01*
X14424048Y-10016429D01*
X14414524Y-9997381D01*
X14414524Y-9940238D01*
X14424048Y-9921190D01*
X14433571Y-9911667D01*
X14452619Y-9902143D01*
X14490714Y-9902143D01*
X14509762Y-9911667D01*
X14585952Y-10111667D02*
X14595476Y-10102143D01*
X14614524Y-10073571D01*
X14624048Y-10054524D01*
X14633571Y-10025952D01*
X14643095Y-9978333D01*
X14643095Y-9940238D01*
X14633571Y-9892619D01*
X14624048Y-9864048D01*
X14614524Y-9845000D01*
X14595476Y-9816429D01*
X14585952Y-9806905D01*
X7995000Y-10209000D02*
G75*
G03*
X7995000Y-10209000I-100000J0D01*
G01*
X8233571Y-10099476D02*
X8357381Y-10099476D01*
X8290714Y-10175667D01*
X8319286Y-10175667D01*
X8338333Y-10185190D01*
X8347857Y-10194714D01*
X8357381Y-10213762D01*
X8357381Y-10261381D01*
X8347857Y-10280429D01*
X8338333Y-10289952D01*
X8319286Y-10299476D01*
X8262143Y-10299476D01*
X8243095Y-10289952D01*
X8233571Y-10280429D01*
X8443095Y-10280429D02*
X8452619Y-10289952D01*
X8443095Y-10299476D01*
X8433571Y-10289952D01*
X8443095Y-10280429D01*
X8443095Y-10299476D01*
X8528810Y-10118524D02*
X8538333Y-10109000D01*
X8557381Y-10099476D01*
X8605000Y-10099476D01*
X8624048Y-10109000D01*
X8633571Y-10118524D01*
X8643095Y-10137571D01*
X8643095Y-10156619D01*
X8633571Y-10185190D01*
X8519286Y-10299476D01*
X8643095Y-10299476D01*
X8766905Y-10099476D02*
X8785952Y-10099476D01*
X8805000Y-10109000D01*
X8814524Y-10118524D01*
X8824048Y-10137571D01*
X8833571Y-10175667D01*
X8833571Y-10223286D01*
X8824048Y-10261381D01*
X8814524Y-10280429D01*
X8805000Y-10289952D01*
X8785952Y-10299476D01*
X8766905Y-10299476D01*
X8747857Y-10289952D01*
X8738333Y-10280429D01*
X8728810Y-10261381D01*
X8719286Y-10223286D01*
X8719286Y-10175667D01*
X8728810Y-10137571D01*
X8738333Y-10118524D01*
X8747857Y-10109000D01*
X8766905Y-10099476D01*
X8957381Y-10099476D02*
X8976429Y-10099476D01*
X8995476Y-10109000D01*
X9005000Y-10118524D01*
X9014524Y-10137571D01*
X9024048Y-10175667D01*
X9024048Y-10223286D01*
X9014524Y-10261381D01*
X9005000Y-10280429D01*
X8995476Y-10289952D01*
X8976429Y-10299476D01*
X8957381Y-10299476D01*
X8938333Y-10289952D01*
X8928810Y-10280429D01*
X8919286Y-10261381D01*
X8909762Y-10223286D01*
X8909762Y-10175667D01*
X8919286Y-10137571D01*
X8928810Y-10118524D01*
X8938333Y-10109000D01*
X8957381Y-10099476D01*
X9109762Y-10299476D02*
X9109762Y-10166143D01*
X9109762Y-10185190D02*
X9119286Y-10175667D01*
X9138333Y-10166143D01*
X9166905Y-10166143D01*
X9185952Y-10175667D01*
X9195476Y-10194714D01*
X9195476Y-10299476D01*
X9195476Y-10194714D02*
X9205000Y-10175667D01*
X9224048Y-10166143D01*
X9252619Y-10166143D01*
X9271667Y-10175667D01*
X9281190Y-10194714D01*
X9281190Y-10299476D01*
X9376429Y-10299476D02*
X9376429Y-10166143D01*
X9376429Y-10185190D02*
X9385952Y-10175667D01*
X9405000Y-10166143D01*
X9433571Y-10166143D01*
X9452619Y-10175667D01*
X9462143Y-10194714D01*
X9462143Y-10299476D01*
X9462143Y-10194714D02*
X9471667Y-10175667D01*
X9490714Y-10166143D01*
X9519286Y-10166143D01*
X9538333Y-10175667D01*
X9547857Y-10194714D01*
X9547857Y-10299476D01*
X9938333Y-10089952D02*
X9766905Y-10347095D01*
X10195476Y-10099476D02*
X10214524Y-10099476D01*
X10233571Y-10109000D01*
X10243095Y-10118524D01*
X10252619Y-10137571D01*
X10262143Y-10175667D01*
X10262143Y-10223286D01*
X10252619Y-10261381D01*
X10243095Y-10280429D01*
X10233571Y-10289952D01*
X10214524Y-10299476D01*
X10195476Y-10299476D01*
X10176429Y-10289952D01*
X10166905Y-10280429D01*
X10157381Y-10261381D01*
X10147857Y-10223286D01*
X10147857Y-10175667D01*
X10157381Y-10137571D01*
X10166905Y-10118524D01*
X10176429Y-10109000D01*
X10195476Y-10099476D01*
X10347857Y-10280429D02*
X10357381Y-10289952D01*
X10347857Y-10299476D01*
X10338333Y-10289952D01*
X10347857Y-10280429D01*
X10347857Y-10299476D01*
X10547857Y-10299476D02*
X10433571Y-10299476D01*
X10490714Y-10299476D02*
X10490714Y-10099476D01*
X10471667Y-10128048D01*
X10452619Y-10147095D01*
X10433571Y-10156619D01*
X10624048Y-10118524D02*
X10633571Y-10109000D01*
X10652619Y-10099476D01*
X10700238Y-10099476D01*
X10719286Y-10109000D01*
X10728810Y-10118524D01*
X10738333Y-10137571D01*
X10738333Y-10156619D01*
X10728810Y-10185190D01*
X10614524Y-10299476D01*
X10738333Y-10299476D01*
X10909762Y-10099476D02*
X10871667Y-10099476D01*
X10852619Y-10109000D01*
X10843095Y-10118524D01*
X10824048Y-10147095D01*
X10814524Y-10185190D01*
X10814524Y-10261381D01*
X10824048Y-10280429D01*
X10833571Y-10289952D01*
X10852619Y-10299476D01*
X10890714Y-10299476D01*
X10909762Y-10289952D01*
X10919286Y-10280429D01*
X10928810Y-10261381D01*
X10928810Y-10213762D01*
X10919286Y-10194714D01*
X10909762Y-10185190D01*
X10890714Y-10175667D01*
X10852619Y-10175667D01*
X10833571Y-10185190D01*
X10824048Y-10194714D01*
X10814524Y-10213762D01*
X11052619Y-10099476D02*
X11071667Y-10099476D01*
X11090714Y-10109000D01*
X11100238Y-10118524D01*
X11109762Y-10137571D01*
X11119286Y-10175667D01*
X11119286Y-10223286D01*
X11109762Y-10261381D01*
X11100238Y-10280429D01*
X11090714Y-10289952D01*
X11071667Y-10299476D01*
X11052619Y-10299476D01*
X11033571Y-10289952D01*
X11024048Y-10280429D01*
X11014524Y-10261381D01*
X11005000Y-10223286D01*
X11005000Y-10175667D01*
X11014524Y-10137571D01*
X11024048Y-10118524D01*
X11033571Y-10109000D01*
X11052619Y-10099476D01*
X11195476Y-10099476D02*
X11195476Y-10137571D01*
X11271667Y-10099476D02*
X11271667Y-10137571D01*
X11566905Y-10375667D02*
X11557381Y-10366143D01*
X11538333Y-10337571D01*
X11528809Y-10318524D01*
X11519286Y-10289952D01*
X11509762Y-10242333D01*
X11509762Y-10204238D01*
X11519286Y-10156619D01*
X11528809Y-10128048D01*
X11538333Y-10109000D01*
X11557381Y-10080429D01*
X11566905Y-10070905D01*
X11728809Y-10166143D02*
X11728809Y-10299476D01*
X11681190Y-10089952D02*
X11633571Y-10232810D01*
X11757381Y-10232810D01*
X11985952Y-10299476D02*
X11985952Y-10099476D01*
X12071667Y-10299476D02*
X12071667Y-10194714D01*
X12062143Y-10175667D01*
X12043095Y-10166143D01*
X12014524Y-10166143D01*
X11995476Y-10175667D01*
X11985952Y-10185190D01*
X12195476Y-10299476D02*
X12176428Y-10289952D01*
X12166905Y-10280429D01*
X12157381Y-10261381D01*
X12157381Y-10204238D01*
X12166905Y-10185190D01*
X12176428Y-10175667D01*
X12195476Y-10166143D01*
X12224048Y-10166143D01*
X12243095Y-10175667D01*
X12252619Y-10185190D01*
X12262143Y-10204238D01*
X12262143Y-10261381D01*
X12252619Y-10280429D01*
X12243095Y-10289952D01*
X12224048Y-10299476D01*
X12195476Y-10299476D01*
X12376428Y-10299476D02*
X12357381Y-10289952D01*
X12347857Y-10270905D01*
X12347857Y-10099476D01*
X12528809Y-10289952D02*
X12509762Y-10299476D01*
X12471667Y-10299476D01*
X12452619Y-10289952D01*
X12443095Y-10270905D01*
X12443095Y-10194714D01*
X12452619Y-10175667D01*
X12471667Y-10166143D01*
X12509762Y-10166143D01*
X12528809Y-10175667D01*
X12538333Y-10194714D01*
X12538333Y-10213762D01*
X12443095Y-10232810D01*
X12614524Y-10289952D02*
X12633571Y-10299476D01*
X12671667Y-10299476D01*
X12690714Y-10289952D01*
X12700238Y-10270905D01*
X12700238Y-10261381D01*
X12690714Y-10242333D01*
X12671667Y-10232810D01*
X12643095Y-10232810D01*
X12624048Y-10223286D01*
X12614524Y-10204238D01*
X12614524Y-10194714D01*
X12624048Y-10175667D01*
X12643095Y-10166143D01*
X12671667Y-10166143D01*
X12690714Y-10175667D01*
X12766905Y-10375667D02*
X12776428Y-10366143D01*
X12795476Y-10337571D01*
X12805000Y-10318524D01*
X12814524Y-10289952D01*
X12824048Y-10242333D01*
X12824048Y-10204238D01*
X12814524Y-10156619D01*
X12805000Y-10128048D01*
X12795476Y-10109000D01*
X12776428Y-10080429D01*
X12766905Y-10070905D01*
X13128809Y-10375667D02*
X13119286Y-10366143D01*
X13100238Y-10337571D01*
X13090714Y-10318524D01*
X13081190Y-10289952D01*
X13071667Y-10242333D01*
X13071667Y-10204238D01*
X13081190Y-10156619D01*
X13090714Y-10128048D01*
X13100238Y-10109000D01*
X13119286Y-10080429D01*
X13128809Y-10070905D01*
X13205000Y-10166143D02*
X13205000Y-10299476D01*
X13205000Y-10185190D02*
X13214524Y-10175667D01*
X13233571Y-10166143D01*
X13262143Y-10166143D01*
X13281190Y-10175667D01*
X13290714Y-10194714D01*
X13290714Y-10299476D01*
X13414524Y-10299476D02*
X13395476Y-10289952D01*
X13385952Y-10280429D01*
X13376428Y-10261381D01*
X13376428Y-10204238D01*
X13385952Y-10185190D01*
X13395476Y-10175667D01*
X13414524Y-10166143D01*
X13443095Y-10166143D01*
X13462143Y-10175667D01*
X13471667Y-10185190D01*
X13481190Y-10204238D01*
X13481190Y-10261381D01*
X13471667Y-10280429D01*
X13462143Y-10289952D01*
X13443095Y-10299476D01*
X13414524Y-10299476D01*
X13538333Y-10166143D02*
X13614524Y-10166143D01*
X13566905Y-10099476D02*
X13566905Y-10270905D01*
X13576428Y-10289952D01*
X13595476Y-10299476D01*
X13614524Y-10299476D01*
X13833571Y-10166143D02*
X13833571Y-10366143D01*
X13833571Y-10175667D02*
X13852619Y-10166143D01*
X13890714Y-10166143D01*
X13909762Y-10175667D01*
X13919286Y-10185190D01*
X13928809Y-10204238D01*
X13928809Y-10261381D01*
X13919286Y-10280429D01*
X13909762Y-10289952D01*
X13890714Y-10299476D01*
X13852619Y-10299476D01*
X13833571Y-10289952D01*
X14043095Y-10299476D02*
X14024048Y-10289952D01*
X14014524Y-10270905D01*
X14014524Y-10099476D01*
X14205000Y-10299476D02*
X14205000Y-10194714D01*
X14195476Y-10175667D01*
X14176428Y-10166143D01*
X14138333Y-10166143D01*
X14119286Y-10175667D01*
X14205000Y-10289952D02*
X14185952Y-10299476D01*
X14138333Y-10299476D01*
X14119286Y-10289952D01*
X14109762Y-10270905D01*
X14109762Y-10251857D01*
X14119286Y-10232810D01*
X14138333Y-10223286D01*
X14185952Y-10223286D01*
X14205000Y-10213762D01*
X14271667Y-10166143D02*
X14347857Y-10166143D01*
X14300238Y-10099476D02*
X14300238Y-10270905D01*
X14309762Y-10289952D01*
X14328809Y-10299476D01*
X14347857Y-10299476D01*
X14490714Y-10289952D02*
X14471667Y-10299476D01*
X14433571Y-10299476D01*
X14414524Y-10289952D01*
X14405000Y-10270905D01*
X14405000Y-10194714D01*
X14414524Y-10175667D01*
X14433571Y-10166143D01*
X14471667Y-10166143D01*
X14490714Y-10175667D01*
X14500238Y-10194714D01*
X14500238Y-10213762D01*
X14405000Y-10232810D01*
X14671667Y-10299476D02*
X14671667Y-10099476D01*
X14671667Y-10289952D02*
X14652619Y-10299476D01*
X14614524Y-10299476D01*
X14595476Y-10289952D01*
X14585952Y-10280429D01*
X14576428Y-10261381D01*
X14576428Y-10204238D01*
X14585952Y-10185190D01*
X14595476Y-10175667D01*
X14614524Y-10166143D01*
X14652619Y-10166143D01*
X14671667Y-10175667D01*
X14747857Y-10375667D02*
X14757381Y-10366143D01*
X14776428Y-10337571D01*
X14785952Y-10318524D01*
X14795476Y-10289952D01*
X14805000Y-10242333D01*
X14805000Y-10204238D01*
X14795476Y-10156619D01*
X14785952Y-10128048D01*
X14776428Y-10109000D01*
X14757381Y-10080429D01*
X14747857Y-10070905D01*
M02*
