%TF.GenerationSoftware,KiCad,Pcbnew,(6.0.4-0)*%
%TF.CreationDate,2022-04-30T10:11:23-04:00*%
%TF.ProjectId,NanoFox80,4e616e6f-466f-4783-9830-2e6b69636164,rev?*%
%TF.SameCoordinates,Original*%
%TF.FileFunction,Legend,Bot*%
%TF.FilePolarity,Positive*%
%FSLAX46Y46*%
G04 Gerber Fmt 4.6, Leading zero omitted, Abs format (unit mm)*
G04 Created by KiCad (PCBNEW (6.0.4-0)) date 2022-04-30 10:11:23*
%MOMM*%
%LPD*%
G01*
G04 APERTURE LIST*
G04 Aperture macros list*
%AMRotRect*
0 Rectangle, with rotation*
0 The origin of the aperture is its center*
0 $1 length*
0 $2 width*
0 $3 Rotation angle, in degrees counterclockwise*
0 Add horizontal line*
21,1,$1,$2,0,0,$3*%
G04 Aperture macros list end*
%ADD10C,0.250000*%
%ADD11C,0.300000*%
%ADD12C,0.150000*%
%ADD13C,0.100000*%
%ADD14C,0.120000*%
%ADD15R,5.760000X0.595000*%
%ADD16C,3.000000*%
%ADD17RotRect,3.000000X3.000000X25.000000*%
%ADD18C,1.700000*%
%ADD19O,1.700000X1.700000*%
%ADD20R,1.700000X1.700000*%
%ADD21C,0.600000*%
%ADD22C,1.524000*%
%ADD23C,0.800000*%
%ADD24C,3.200000*%
%ADD25R,3.480000X1.846667*%
G04 APERTURE END LIST*
D10*
X151905238Y-62762380D02*
X151905238Y-63571904D01*
X151857619Y-63667142D01*
X151810000Y-63714761D01*
X151714761Y-63762380D01*
X151524285Y-63762380D01*
X151429047Y-63714761D01*
X151381428Y-63667142D01*
X151333809Y-63571904D01*
X151333809Y-62762380D01*
X150333809Y-63762380D02*
X150905238Y-63762380D01*
X150619523Y-63762380D02*
X150619523Y-62762380D01*
X150714761Y-62905238D01*
X150810000Y-63000476D01*
X150905238Y-63048095D01*
X149714761Y-62762380D02*
X149619523Y-62762380D01*
X149524285Y-62810000D01*
X149476666Y-62857619D01*
X149429047Y-62952857D01*
X149381428Y-63143333D01*
X149381428Y-63381428D01*
X149429047Y-63571904D01*
X149476666Y-63667142D01*
X149524285Y-63714761D01*
X149619523Y-63762380D01*
X149714761Y-63762380D01*
X149810000Y-63714761D01*
X149857619Y-63667142D01*
X149905238Y-63571904D01*
X149952857Y-63381428D01*
X149952857Y-63143333D01*
X149905238Y-62952857D01*
X149857619Y-62857619D01*
X149810000Y-62810000D01*
X149714761Y-62762380D01*
X148429047Y-63762380D02*
X149000476Y-63762380D01*
X148714761Y-63762380D02*
X148714761Y-62762380D01*
X148810000Y-62905238D01*
X148905238Y-63000476D01*
X149000476Y-63048095D01*
X148000476Y-63381428D02*
X147238571Y-63381428D01*
X146571904Y-62762380D02*
X146381428Y-62762380D01*
X146286190Y-62810000D01*
X146190952Y-62905238D01*
X146143333Y-63095714D01*
X146143333Y-63429047D01*
X146190952Y-63619523D01*
X146286190Y-63714761D01*
X146381428Y-63762380D01*
X146571904Y-63762380D01*
X146667142Y-63714761D01*
X146762380Y-63619523D01*
X146810000Y-63429047D01*
X146810000Y-63095714D01*
X146762380Y-62905238D01*
X146667142Y-62810000D01*
X146571904Y-62762380D01*
X145286190Y-63095714D02*
X145286190Y-63762380D01*
X145714761Y-63095714D02*
X145714761Y-63619523D01*
X145667142Y-63714761D01*
X145571904Y-63762380D01*
X145429047Y-63762380D01*
X145333809Y-63714761D01*
X145286190Y-63667142D01*
X144952857Y-63095714D02*
X144571904Y-63095714D01*
X144810000Y-62762380D02*
X144810000Y-63619523D01*
X144762380Y-63714761D01*
X144667142Y-63762380D01*
X144571904Y-63762380D01*
X167512380Y-79520952D02*
X167036190Y-79187619D01*
X167512380Y-78949523D02*
X166512380Y-78949523D01*
X166512380Y-79330476D01*
X166560000Y-79425714D01*
X166607619Y-79473333D01*
X166702857Y-79520952D01*
X166845714Y-79520952D01*
X166940952Y-79473333D01*
X166988571Y-79425714D01*
X167036190Y-79330476D01*
X167036190Y-78949523D01*
X166988571Y-80282857D02*
X166988571Y-79949523D01*
X167512380Y-79949523D02*
X166512380Y-79949523D01*
X166512380Y-80425714D01*
X129178571Y-73402380D02*
X129178571Y-73069047D01*
X129702380Y-73069047D02*
X128702380Y-73069047D01*
X128702380Y-73545238D01*
X129702380Y-74069047D02*
X129654761Y-73973809D01*
X129607142Y-73926190D01*
X129511904Y-73878571D01*
X129226190Y-73878571D01*
X129130952Y-73926190D01*
X129083333Y-73973809D01*
X129035714Y-74069047D01*
X129035714Y-74211904D01*
X129083333Y-74307142D01*
X129130952Y-74354761D01*
X129226190Y-74402380D01*
X129511904Y-74402380D01*
X129607142Y-74354761D01*
X129654761Y-74307142D01*
X129702380Y-74211904D01*
X129702380Y-74069047D01*
X129035714Y-75259523D02*
X129702380Y-75259523D01*
X129035714Y-74830952D02*
X129559523Y-74830952D01*
X129654761Y-74878571D01*
X129702380Y-74973809D01*
X129702380Y-75116666D01*
X129654761Y-75211904D01*
X129607142Y-75259523D01*
X129035714Y-75592857D02*
X129035714Y-75973809D01*
X128702380Y-75735714D02*
X129559523Y-75735714D01*
X129654761Y-75783333D01*
X129702380Y-75878571D01*
X129702380Y-75973809D01*
D11*
X100211428Y-82691071D02*
X100211428Y-81191071D01*
X99354285Y-82691071D01*
X99354285Y-81191071D01*
X97997142Y-82691071D02*
X97997142Y-81905357D01*
X98068571Y-81762500D01*
X98211428Y-81691071D01*
X98497142Y-81691071D01*
X98640000Y-81762500D01*
X97997142Y-82619642D02*
X98140000Y-82691071D01*
X98497142Y-82691071D01*
X98640000Y-82619642D01*
X98711428Y-82476785D01*
X98711428Y-82333928D01*
X98640000Y-82191071D01*
X98497142Y-82119642D01*
X98140000Y-82119642D01*
X97997142Y-82048214D01*
X97282857Y-81691071D02*
X97282857Y-82691071D01*
X97282857Y-81833928D02*
X97211428Y-81762500D01*
X97068571Y-81691071D01*
X96854285Y-81691071D01*
X96711428Y-81762500D01*
X96640000Y-81905357D01*
X96640000Y-82691071D01*
X95711428Y-82691071D02*
X95854285Y-82619642D01*
X95925714Y-82548214D01*
X95997142Y-82405357D01*
X95997142Y-81976785D01*
X95925714Y-81833928D01*
X95854285Y-81762500D01*
X95711428Y-81691071D01*
X95497142Y-81691071D01*
X95354285Y-81762500D01*
X95282857Y-81833928D01*
X95211428Y-81976785D01*
X95211428Y-82405357D01*
X95282857Y-82548214D01*
X95354285Y-82619642D01*
X95497142Y-82691071D01*
X95711428Y-82691071D01*
X94068571Y-81905357D02*
X94568571Y-81905357D01*
X94568571Y-82691071D02*
X94568571Y-81191071D01*
X93854285Y-81191071D01*
X93068571Y-82691071D02*
X93211428Y-82619642D01*
X93282857Y-82548214D01*
X93354285Y-82405357D01*
X93354285Y-81976785D01*
X93282857Y-81833928D01*
X93211428Y-81762500D01*
X93068571Y-81691071D01*
X92854285Y-81691071D01*
X92711428Y-81762500D01*
X92640000Y-81833928D01*
X92568571Y-81976785D01*
X92568571Y-82405357D01*
X92640000Y-82548214D01*
X92711428Y-82619642D01*
X92854285Y-82691071D01*
X93068571Y-82691071D01*
X92068571Y-82691071D02*
X91282857Y-81691071D01*
X92068571Y-81691071D02*
X91282857Y-82691071D01*
X90497142Y-81833928D02*
X90640000Y-81762500D01*
X90711428Y-81691071D01*
X90782857Y-81548214D01*
X90782857Y-81476785D01*
X90711428Y-81333928D01*
X90640000Y-81262500D01*
X90497142Y-81191071D01*
X90211428Y-81191071D01*
X90068571Y-81262500D01*
X89997142Y-81333928D01*
X89925714Y-81476785D01*
X89925714Y-81548214D01*
X89997142Y-81691071D01*
X90068571Y-81762500D01*
X90211428Y-81833928D01*
X90497142Y-81833928D01*
X90640000Y-81905357D01*
X90711428Y-81976785D01*
X90782857Y-82119642D01*
X90782857Y-82405357D01*
X90711428Y-82548214D01*
X90640000Y-82619642D01*
X90497142Y-82691071D01*
X90211428Y-82691071D01*
X90068571Y-82619642D01*
X89997142Y-82548214D01*
X89925714Y-82405357D01*
X89925714Y-82119642D01*
X89997142Y-81976785D01*
X90068571Y-81905357D01*
X90211428Y-81833928D01*
X88997142Y-81191071D02*
X88854285Y-81191071D01*
X88711428Y-81262500D01*
X88640000Y-81333928D01*
X88568571Y-81476785D01*
X88497142Y-81762500D01*
X88497142Y-82119642D01*
X88568571Y-82405357D01*
X88640000Y-82548214D01*
X88711428Y-82619642D01*
X88854285Y-82691071D01*
X88997142Y-82691071D01*
X89140000Y-82619642D01*
X89211428Y-82548214D01*
X89282857Y-82405357D01*
X89354285Y-82119642D01*
X89354285Y-81762500D01*
X89282857Y-81476785D01*
X89211428Y-81333928D01*
X89140000Y-81262500D01*
X88997142Y-81191071D01*
X103997142Y-85106071D02*
X104497142Y-84391785D01*
X104854285Y-85106071D02*
X104854285Y-83606071D01*
X104282857Y-83606071D01*
X104140000Y-83677500D01*
X104068571Y-83748928D01*
X103997142Y-83891785D01*
X103997142Y-84106071D01*
X104068571Y-84248928D01*
X104140000Y-84320357D01*
X104282857Y-84391785D01*
X104854285Y-84391785D01*
X102782857Y-85034642D02*
X102925714Y-85106071D01*
X103211428Y-85106071D01*
X103354285Y-85034642D01*
X103425714Y-84891785D01*
X103425714Y-84320357D01*
X103354285Y-84177500D01*
X103211428Y-84106071D01*
X102925714Y-84106071D01*
X102782857Y-84177500D01*
X102711428Y-84320357D01*
X102711428Y-84463214D01*
X103425714Y-84606071D01*
X102211428Y-84106071D02*
X101854285Y-85106071D01*
X101497142Y-84106071D01*
X100925714Y-84963214D02*
X100854285Y-85034642D01*
X100925714Y-85106071D01*
X100997142Y-85034642D01*
X100925714Y-84963214D01*
X100925714Y-85106071D01*
X100925714Y-84177500D02*
X100854285Y-84248928D01*
X100925714Y-84320357D01*
X100997142Y-84248928D01*
X100925714Y-84177500D01*
X100925714Y-84320357D01*
X99211428Y-83606071D02*
X98282857Y-83606071D01*
X98782857Y-84177500D01*
X98568571Y-84177500D01*
X98425714Y-84248928D01*
X98354285Y-84320357D01*
X98282857Y-84463214D01*
X98282857Y-84820357D01*
X98354285Y-84963214D01*
X98425714Y-85034642D01*
X98568571Y-85106071D01*
X98997142Y-85106071D01*
X99140000Y-85034642D01*
X99211428Y-84963214D01*
X97354285Y-83606071D02*
X97211428Y-83606071D01*
X97068571Y-83677500D01*
X96997142Y-83748928D01*
X96925714Y-83891785D01*
X96854285Y-84177500D01*
X96854285Y-84534642D01*
X96925714Y-84820357D01*
X96997142Y-84963214D01*
X97068571Y-85034642D01*
X97211428Y-85106071D01*
X97354285Y-85106071D01*
X97497142Y-85034642D01*
X97568571Y-84963214D01*
X97640000Y-84820357D01*
X97711428Y-84534642D01*
X97711428Y-84177500D01*
X97640000Y-83891785D01*
X97568571Y-83748928D01*
X97497142Y-83677500D01*
X97354285Y-83606071D01*
X96211428Y-84534642D02*
X95068571Y-84534642D01*
X94425714Y-84677500D02*
X93711428Y-84677500D01*
X94568571Y-85106071D02*
X94068571Y-83606071D01*
X93568571Y-85106071D01*
X93068571Y-84106071D02*
X93068571Y-85606071D01*
X93068571Y-84177500D02*
X92925714Y-84106071D01*
X92640000Y-84106071D01*
X92497142Y-84177500D01*
X92425714Y-84248928D01*
X92354285Y-84391785D01*
X92354285Y-84820357D01*
X92425714Y-84963214D01*
X92497142Y-85034642D01*
X92640000Y-85106071D01*
X92925714Y-85106071D01*
X93068571Y-85034642D01*
X91711428Y-85106071D02*
X91711428Y-84106071D01*
X91711428Y-84391785D02*
X91640000Y-84248928D01*
X91568571Y-84177500D01*
X91425714Y-84106071D01*
X91282857Y-84106071D01*
X90782857Y-84534642D02*
X89640000Y-84534642D01*
X88997142Y-83748928D02*
X88925714Y-83677500D01*
X88782857Y-83606071D01*
X88425714Y-83606071D01*
X88282857Y-83677500D01*
X88211428Y-83748928D01*
X88140000Y-83891785D01*
X88140000Y-84034642D01*
X88211428Y-84248928D01*
X89068571Y-85106071D01*
X88140000Y-85106071D01*
X87211428Y-83606071D02*
X87068571Y-83606071D01*
X86925714Y-83677500D01*
X86854285Y-83748928D01*
X86782857Y-83891785D01*
X86711428Y-84177500D01*
X86711428Y-84534642D01*
X86782857Y-84820357D01*
X86854285Y-84963214D01*
X86925714Y-85034642D01*
X87068571Y-85106071D01*
X87211428Y-85106071D01*
X87354285Y-85034642D01*
X87425714Y-84963214D01*
X87497142Y-84820357D01*
X87568571Y-84534642D01*
X87568571Y-84177500D01*
X87497142Y-83891785D01*
X87425714Y-83748928D01*
X87354285Y-83677500D01*
X87211428Y-83606071D01*
X86140000Y-83748928D02*
X86068571Y-83677500D01*
X85925714Y-83606071D01*
X85568571Y-83606071D01*
X85425714Y-83677500D01*
X85354285Y-83748928D01*
X85282857Y-83891785D01*
X85282857Y-84034642D01*
X85354285Y-84248928D01*
X86211428Y-85106071D01*
X85282857Y-85106071D01*
X84711428Y-83748928D02*
X84640000Y-83677500D01*
X84497142Y-83606071D01*
X84140000Y-83606071D01*
X83997142Y-83677500D01*
X83925714Y-83748928D01*
X83854285Y-83891785D01*
X83854285Y-84034642D01*
X83925714Y-84248928D01*
X84782857Y-85106071D01*
X83854285Y-85106071D01*
D12*
X164710952Y-62563571D02*
X165044285Y-62563571D01*
X165044285Y-63087380D02*
X165044285Y-62087380D01*
X164568095Y-62087380D01*
X164330000Y-62087380D02*
X163758571Y-62087380D01*
X164044285Y-63087380D02*
X164044285Y-62087380D01*
X163425238Y-62706428D02*
X162663333Y-62706428D01*
X161710952Y-62087380D02*
X162187142Y-62087380D01*
X162234761Y-62563571D01*
X162187142Y-62515952D01*
X162091904Y-62468333D01*
X161853809Y-62468333D01*
X161758571Y-62515952D01*
X161710952Y-62563571D01*
X161663333Y-62658809D01*
X161663333Y-62896904D01*
X161710952Y-62992142D01*
X161758571Y-63039761D01*
X161853809Y-63087380D01*
X162091904Y-63087380D01*
X162187142Y-63039761D01*
X162234761Y-62992142D01*
X161044285Y-62087380D02*
X160949047Y-62087380D01*
X160853809Y-62135000D01*
X160806190Y-62182619D01*
X160758571Y-62277857D01*
X160710952Y-62468333D01*
X160710952Y-62706428D01*
X160758571Y-62896904D01*
X160806190Y-62992142D01*
X160853809Y-63039761D01*
X160949047Y-63087380D01*
X161044285Y-63087380D01*
X161139523Y-63039761D01*
X161187142Y-62992142D01*
X161234761Y-62896904D01*
X161282380Y-62706428D01*
X161282380Y-62468333D01*
X161234761Y-62277857D01*
X161187142Y-62182619D01*
X161139523Y-62135000D01*
X161044285Y-62087380D01*
X160282380Y-62706428D02*
X159520476Y-62706428D01*
X158615714Y-62087380D02*
X158806190Y-62087380D01*
X158901428Y-62135000D01*
X158949047Y-62182619D01*
X159044285Y-62325476D01*
X159091904Y-62515952D01*
X159091904Y-62896904D01*
X159044285Y-62992142D01*
X158996666Y-63039761D01*
X158901428Y-63087380D01*
X158710952Y-63087380D01*
X158615714Y-63039761D01*
X158568095Y-62992142D01*
X158520476Y-62896904D01*
X158520476Y-62658809D01*
X158568095Y-62563571D01*
X158615714Y-62515952D01*
X158710952Y-62468333D01*
X158901428Y-62468333D01*
X158996666Y-62515952D01*
X159044285Y-62563571D01*
X159091904Y-62658809D01*
X158187142Y-62087380D02*
X157520476Y-62087380D01*
X157949047Y-63087380D01*
X164710952Y-64173571D02*
X165044285Y-64173571D01*
X165044285Y-64697380D02*
X165044285Y-63697380D01*
X164568095Y-63697380D01*
X164330000Y-63697380D02*
X163758571Y-63697380D01*
X164044285Y-64697380D02*
X164044285Y-63697380D01*
X163425238Y-64316428D02*
X162663333Y-64316428D01*
X162044285Y-64125952D02*
X162139523Y-64078333D01*
X162187142Y-64030714D01*
X162234761Y-63935476D01*
X162234761Y-63887857D01*
X162187142Y-63792619D01*
X162139523Y-63745000D01*
X162044285Y-63697380D01*
X161853809Y-63697380D01*
X161758571Y-63745000D01*
X161710952Y-63792619D01*
X161663333Y-63887857D01*
X161663333Y-63935476D01*
X161710952Y-64030714D01*
X161758571Y-64078333D01*
X161853809Y-64125952D01*
X162044285Y-64125952D01*
X162139523Y-64173571D01*
X162187142Y-64221190D01*
X162234761Y-64316428D01*
X162234761Y-64506904D01*
X162187142Y-64602142D01*
X162139523Y-64649761D01*
X162044285Y-64697380D01*
X161853809Y-64697380D01*
X161758571Y-64649761D01*
X161710952Y-64602142D01*
X161663333Y-64506904D01*
X161663333Y-64316428D01*
X161710952Y-64221190D01*
X161758571Y-64173571D01*
X161853809Y-64125952D01*
X161282380Y-63792619D02*
X161234761Y-63745000D01*
X161139523Y-63697380D01*
X160901428Y-63697380D01*
X160806190Y-63745000D01*
X160758571Y-63792619D01*
X160710952Y-63887857D01*
X160710952Y-63983095D01*
X160758571Y-64125952D01*
X161330000Y-64697380D01*
X160710952Y-64697380D01*
X160282380Y-64316428D02*
X159520476Y-64316428D01*
X158615714Y-63697380D02*
X158806190Y-63697380D01*
X158901428Y-63745000D01*
X158949047Y-63792619D01*
X159044285Y-63935476D01*
X159091904Y-64125952D01*
X159091904Y-64506904D01*
X159044285Y-64602142D01*
X158996666Y-64649761D01*
X158901428Y-64697380D01*
X158710952Y-64697380D01*
X158615714Y-64649761D01*
X158568095Y-64602142D01*
X158520476Y-64506904D01*
X158520476Y-64268809D01*
X158568095Y-64173571D01*
X158615714Y-64125952D01*
X158710952Y-64078333D01*
X158901428Y-64078333D01*
X158996666Y-64125952D01*
X159044285Y-64173571D01*
X159091904Y-64268809D01*
X158187142Y-63697380D02*
X157520476Y-63697380D01*
X157949047Y-64697380D01*
%TO.C,L101*%
X163379047Y-68082380D02*
X163855238Y-68082380D01*
X163855238Y-67082380D01*
X162521904Y-68082380D02*
X163093333Y-68082380D01*
X162807619Y-68082380D02*
X162807619Y-67082380D01*
X162902857Y-67225238D01*
X162998095Y-67320476D01*
X163093333Y-67368095D01*
X161902857Y-67082380D02*
X161807619Y-67082380D01*
X161712380Y-67130000D01*
X161664761Y-67177619D01*
X161617142Y-67272857D01*
X161569523Y-67463333D01*
X161569523Y-67701428D01*
X161617142Y-67891904D01*
X161664761Y-67987142D01*
X161712380Y-68034761D01*
X161807619Y-68082380D01*
X161902857Y-68082380D01*
X161998095Y-68034761D01*
X162045714Y-67987142D01*
X162093333Y-67891904D01*
X162140952Y-67701428D01*
X162140952Y-67463333D01*
X162093333Y-67272857D01*
X162045714Y-67177619D01*
X161998095Y-67130000D01*
X161902857Y-67082380D01*
X160617142Y-68082380D02*
X161188571Y-68082380D01*
X160902857Y-68082380D02*
X160902857Y-67082380D01*
X160998095Y-67225238D01*
X161093333Y-67320476D01*
X161188571Y-67368095D01*
D13*
%TO.C,W103*%
X127710000Y-78775238D02*
X127690952Y-78737142D01*
X127690952Y-78680000D01*
X127710000Y-78622857D01*
X127748095Y-78584761D01*
X127786190Y-78565714D01*
X127862380Y-78546666D01*
X127919523Y-78546666D01*
X127995714Y-78565714D01*
X128033809Y-78584761D01*
X128071904Y-78622857D01*
X128090952Y-78680000D01*
X128090952Y-78718095D01*
X128071904Y-78775238D01*
X128052857Y-78794285D01*
X127919523Y-78794285D01*
X127919523Y-78718095D01*
X128090952Y-78965714D02*
X127690952Y-78965714D01*
X128090952Y-79194285D01*
X127690952Y-79194285D01*
X128090952Y-79384761D02*
X127690952Y-79384761D01*
X127690952Y-79480000D01*
X127710000Y-79537142D01*
X127748095Y-79575238D01*
X127786190Y-79594285D01*
X127862380Y-79613333D01*
X127919523Y-79613333D01*
X127995714Y-79594285D01*
X128033809Y-79575238D01*
X128071904Y-79537142D01*
X128090952Y-79480000D01*
X128090952Y-79384761D01*
%TO.C,W102*%
X165400000Y-84445238D02*
X165380952Y-84407142D01*
X165380952Y-84350000D01*
X165400000Y-84292857D01*
X165438095Y-84254761D01*
X165476190Y-84235714D01*
X165552380Y-84216666D01*
X165609523Y-84216666D01*
X165685714Y-84235714D01*
X165723809Y-84254761D01*
X165761904Y-84292857D01*
X165780952Y-84350000D01*
X165780952Y-84388095D01*
X165761904Y-84445238D01*
X165742857Y-84464285D01*
X165609523Y-84464285D01*
X165609523Y-84388095D01*
X165780952Y-84635714D02*
X165380952Y-84635714D01*
X165780952Y-84864285D01*
X165380952Y-84864285D01*
X165780952Y-85054761D02*
X165380952Y-85054761D01*
X165380952Y-85150000D01*
X165400000Y-85207142D01*
X165438095Y-85245238D01*
X165476190Y-85264285D01*
X165552380Y-85283333D01*
X165609523Y-85283333D01*
X165685714Y-85264285D01*
X165723809Y-85245238D01*
X165761904Y-85207142D01*
X165780952Y-85150000D01*
X165780952Y-85054761D01*
%TO.C,W101*%
X152164761Y-60340000D02*
X152202857Y-60320952D01*
X152260000Y-60320952D01*
X152317142Y-60340000D01*
X152355238Y-60378095D01*
X152374285Y-60416190D01*
X152393333Y-60492380D01*
X152393333Y-60549523D01*
X152374285Y-60625714D01*
X152355238Y-60663809D01*
X152317142Y-60701904D01*
X152260000Y-60720952D01*
X152221904Y-60720952D01*
X152164761Y-60701904D01*
X152145714Y-60682857D01*
X152145714Y-60549523D01*
X152221904Y-60549523D01*
X151974285Y-60720952D02*
X151974285Y-60320952D01*
X151745714Y-60720952D01*
X151745714Y-60320952D01*
X151555238Y-60720952D02*
X151555238Y-60320952D01*
X151460000Y-60320952D01*
X151402857Y-60340000D01*
X151364761Y-60378095D01*
X151345714Y-60416190D01*
X151326666Y-60492380D01*
X151326666Y-60549523D01*
X151345714Y-60625714D01*
X151364761Y-60663809D01*
X151402857Y-60701904D01*
X151460000Y-60720952D01*
X151555238Y-60720952D01*
D12*
%TO.C,J111*%
X81249880Y-64254285D02*
X81964166Y-64254285D01*
X82107023Y-64206666D01*
X82202261Y-64111428D01*
X82249880Y-63968571D01*
X82249880Y-63873333D01*
X82249880Y-65254285D02*
X82249880Y-64682857D01*
X82249880Y-64968571D02*
X81249880Y-64968571D01*
X81392738Y-64873333D01*
X81487976Y-64778095D01*
X81535595Y-64682857D01*
X82249880Y-66206666D02*
X82249880Y-65635238D01*
X82249880Y-65920952D02*
X81249880Y-65920952D01*
X81392738Y-65825714D01*
X81487976Y-65730476D01*
X81535595Y-65635238D01*
X82249880Y-67159047D02*
X82249880Y-66587619D01*
X82249880Y-66873333D02*
X81249880Y-66873333D01*
X81392738Y-66778095D01*
X81487976Y-66682857D01*
X81535595Y-66587619D01*
D14*
%TO.C,L101*%
X165010000Y-68330000D02*
G75*
G03*
X165010000Y-68330000I-3300000J0D01*
G01*
X169310000Y-68330000D02*
G75*
G03*
X169310000Y-68330000I-7600000J0D01*
G01*
D13*
%TO.C,W103*%
X129294600Y-72177600D02*
X129294600Y-72545900D01*
X129320000Y-77655850D02*
X129320000Y-78024150D01*
D10*
X130345442Y-71060000D02*
G75*
G03*
X130345442Y-71060000I-1038142J0D01*
G01*
D13*
%TO.C,W102*%
X167010000Y-83455850D02*
X167010000Y-83824150D01*
X167000000Y-77965850D02*
X167000000Y-78334150D01*
D10*
X168035442Y-76730000D02*
G75*
G03*
X168035442Y-76730000I-1038142J0D01*
G01*
D13*
%TO.C,W101*%
X150395850Y-61790000D02*
X150764150Y-61790000D01*
X144917600Y-61815400D02*
X145285900Y-61815400D01*
D10*
X144838142Y-61802700D02*
G75*
G03*
X144838142Y-61802700I-1038142J0D01*
G01*
D14*
%TO.C,J111*%
X84000000Y-81223333D02*
X80260000Y-81223333D01*
X80260000Y-67776667D02*
X84000000Y-67776667D01*
X84240000Y-67536667D02*
X84240000Y-71730000D01*
X84000000Y-67776667D02*
X84000000Y-81223333D01*
X82000000Y-67536667D02*
X84240000Y-67536667D01*
%TD*%
%LPC*%
D15*
%TO.C,L101*%
X156690000Y-67530000D03*
D16*
X158790000Y-67460000D03*
X163040000Y-75740000D03*
X154380000Y-67620000D03*
D17*
X159870000Y-70820000D03*
%TD*%
D18*
%TO.C,J107*%
X142170000Y-68880000D03*
D19*
X144710000Y-68880000D03*
%TD*%
D20*
%TO.C,J109*%
X115300000Y-59435000D03*
D19*
X112760000Y-59435000D03*
%TD*%
D20*
%TO.C,BT101*%
X95510000Y-74030000D03*
D19*
X95510000Y-76570000D03*
%TD*%
D21*
%TO.C,W103*%
X129320000Y-71060000D03*
D22*
X129320000Y-71060000D03*
X129320000Y-79060000D03*
D21*
X129320000Y-79060000D03*
%TD*%
D23*
%TO.C,SW101*%
X107620000Y-91780000D03*
%TD*%
D20*
%TO.C,J106*%
X144900000Y-77130000D03*
D19*
X142360000Y-77130000D03*
%TD*%
D18*
%TO.C,J110*%
X102800000Y-64785000D03*
D19*
X102800000Y-67325000D03*
%TD*%
D18*
%TO.C,J104*%
X128410000Y-63310000D03*
D19*
X128410000Y-65850000D03*
%TD*%
D24*
%TO.C,REF\u002A\u002A*%
X166400000Y-59600000D03*
%TD*%
D20*
%TO.C,AE101*%
X164310000Y-82635000D03*
D19*
X164310000Y-80095000D03*
%TD*%
D22*
%TO.C,W102*%
X167010000Y-76730000D03*
D21*
X167010000Y-76730000D03*
X167010000Y-84730000D03*
D22*
X167010000Y-84730000D03*
%TD*%
D24*
%TO.C,REF\u002A\u002A*%
X166400000Y-89400000D03*
%TD*%
D20*
%TO.C,J112*%
X106280000Y-87060000D03*
D19*
X108820000Y-87060000D03*
%TD*%
D18*
%TO.C,J108*%
X144770000Y-65310000D03*
%TD*%
D22*
%TO.C,W101*%
X143800000Y-61790000D03*
D21*
X143800000Y-61790000D03*
X151800000Y-61790000D03*
D22*
X151800000Y-61790000D03*
%TD*%
D20*
%TO.C,J113*%
X115360000Y-85005000D03*
D19*
X112820000Y-85005000D03*
%TD*%
D20*
%TO.C,J114*%
X136140000Y-79755000D03*
D19*
X138680000Y-79755000D03*
%TD*%
D18*
%TO.C,J103*%
X128500000Y-58640000D03*
%TD*%
D24*
%TO.C,REF\u002A\u002A*%
X83600000Y-89400000D03*
%TD*%
D20*
%TO.C,J101*%
X147460000Y-59140000D03*
D19*
X147460000Y-61680000D03*
%TD*%
D24*
%TO.C,REF\u002A\u002A*%
X83600000Y-59600000D03*
%TD*%
D20*
%TO.C,J105*%
X132085000Y-62490000D03*
D19*
X132085000Y-65030000D03*
%TD*%
D25*
%TO.C,J111*%
X82000000Y-68960000D03*
X82000000Y-71730000D03*
X82000000Y-74500000D03*
X82000000Y-77270000D03*
X82000000Y-80040000D03*
%TD*%
M02*
