%TF.GenerationSoftware,KiCad,Pcbnew,(6.0.4-0)*%
%TF.CreationDate,2022-04-30T10:11:23-04:00*%
%TF.ProjectId,NanoFox80,4e616e6f-466f-4783-9830-2e6b69636164,rev?*%
%TF.SameCoordinates,Original*%
%TF.FileFunction,Soldermask,Bot*%
%TF.FilePolarity,Negative*%
%FSLAX46Y46*%
G04 Gerber Fmt 4.6, Leading zero omitted, Abs format (unit mm)*
G04 Created by KiCad (PCBNEW (6.0.4-0)) date 2022-04-30 10:11:23*
%MOMM*%
%LPD*%
G01*
G04 APERTURE LIST*
G04 Aperture macros list*
%AMRotRect*
0 Rectangle, with rotation*
0 The origin of the aperture is its center*
0 $1 length*
0 $2 width*
0 $3 Rotation angle, in degrees counterclockwise*
0 Add horizontal line*
21,1,$1,$2,0,0,$3*%
G04 Aperture macros list end*
%ADD10R,5.760000X0.595000*%
%ADD11C,3.000000*%
%ADD12RotRect,3.000000X3.000000X25.000000*%
%ADD13C,1.700000*%
%ADD14O,1.700000X1.700000*%
%ADD15R,1.700000X1.700000*%
%ADD16C,0.600000*%
%ADD17C,1.524000*%
%ADD18C,0.800000*%
%ADD19C,3.200000*%
%ADD20R,3.480000X1.846667*%
G04 APERTURE END LIST*
D10*
%TO.C,L101*%
X156690000Y-67530000D03*
D11*
X158790000Y-67460000D03*
X163040000Y-75740000D03*
X154380000Y-67620000D03*
D12*
X159870000Y-70820000D03*
%TD*%
D13*
%TO.C,J107*%
X142170000Y-68880000D03*
D14*
X144710000Y-68880000D03*
%TD*%
D15*
%TO.C,J109*%
X115300000Y-59435000D03*
D14*
X112760000Y-59435000D03*
%TD*%
D15*
%TO.C,BT101*%
X95510000Y-74030000D03*
D14*
X95510000Y-76570000D03*
%TD*%
D16*
%TO.C,W103*%
X129320000Y-71060000D03*
D17*
X129320000Y-71060000D03*
X129320000Y-79060000D03*
D16*
X129320000Y-79060000D03*
%TD*%
D18*
%TO.C,SW101*%
X107620000Y-91780000D03*
%TD*%
D15*
%TO.C,J106*%
X144900000Y-77130000D03*
D14*
X142360000Y-77130000D03*
%TD*%
D13*
%TO.C,J110*%
X102800000Y-64785000D03*
D14*
X102800000Y-67325000D03*
%TD*%
D13*
%TO.C,J104*%
X128410000Y-63310000D03*
D14*
X128410000Y-65850000D03*
%TD*%
D19*
%TO.C,REF\u002A\u002A*%
X166400000Y-59600000D03*
%TD*%
D15*
%TO.C,AE101*%
X164310000Y-82635000D03*
D14*
X164310000Y-80095000D03*
%TD*%
D17*
%TO.C,W102*%
X167010000Y-76730000D03*
D16*
X167010000Y-76730000D03*
X167010000Y-84730000D03*
D17*
X167010000Y-84730000D03*
%TD*%
D19*
%TO.C,REF\u002A\u002A*%
X166400000Y-89400000D03*
%TD*%
D15*
%TO.C,J112*%
X106280000Y-87060000D03*
D14*
X108820000Y-87060000D03*
%TD*%
D13*
%TO.C,J108*%
X144770000Y-65310000D03*
%TD*%
D17*
%TO.C,W101*%
X143800000Y-61790000D03*
D16*
X143800000Y-61790000D03*
X151800000Y-61790000D03*
D17*
X151800000Y-61790000D03*
%TD*%
D15*
%TO.C,J113*%
X115360000Y-85005000D03*
D14*
X112820000Y-85005000D03*
%TD*%
D15*
%TO.C,J114*%
X136140000Y-79755000D03*
D14*
X138680000Y-79755000D03*
%TD*%
D13*
%TO.C,J103*%
X128500000Y-58640000D03*
%TD*%
D19*
%TO.C,REF\u002A\u002A*%
X83600000Y-89400000D03*
%TD*%
D15*
%TO.C,J101*%
X147460000Y-59140000D03*
D14*
X147460000Y-61680000D03*
%TD*%
D19*
%TO.C,REF\u002A\u002A*%
X83600000Y-59600000D03*
%TD*%
D15*
%TO.C,J105*%
X132085000Y-62490000D03*
D14*
X132085000Y-65030000D03*
%TD*%
D20*
%TO.C,J111*%
X82000000Y-68960000D03*
X82000000Y-71730000D03*
X82000000Y-74500000D03*
X82000000Y-77270000D03*
X82000000Y-80040000D03*
%TD*%
M02*
