%FSLAX45Y45*%
G04 Gerber Fmt 4.5, Leading zero omitted, Abs format (unit mm)*
G04 Created by KiCad (PCBNEW (6.0.4-0)) date 2022-07-12 16:50:58*
%MOMM*%
%LPD*%
G01*
G04 APERTURE LIST*
%TA.AperFunction,Profile*%
%ADD10C,0.100000*%
%TD*%
%ADD11C,0.200000*%
%ADD12C,0.030000*%
%ADD13C,0.033060*%
%ADD14C,0.040000*%
%ADD15C,0.050000*%
%ADD16C,0.100000*%
%ADD17C,0.110000*%
%ADD18C,0.120000*%
G04 APERTURE END LIST*
D10*
X8000000Y-5600000D02*
X17000000Y-5600000D01*
X17000000Y-5600000D02*
X17000000Y-9300000D01*
X17000000Y-9300000D02*
X8000000Y-9300000D01*
X8000000Y-9300000D02*
X8000000Y-5600000D01*
D11*
D12*
X9840000Y-8136000D02*
X9870000Y-8166000D01*
X9870000Y-8136000D02*
X9840000Y-8166000D01*
X9949964Y-6772029D02*
X9979964Y-6802029D01*
X9979964Y-6772029D02*
X9949964Y-6802029D01*
X10397000Y-7833000D02*
X10427000Y-7863000D01*
X10427000Y-7833000D02*
X10397000Y-7863000D01*
X10870000Y-7565000D02*
X10900000Y-7595000D01*
X10900000Y-7565000D02*
X10870000Y-7595000D01*
X10944000Y-7771000D02*
X10974000Y-7801000D01*
X10974000Y-7771000D02*
X10944000Y-7801000D01*
X11233000Y-7325000D02*
X11263000Y-7355000D01*
X11263000Y-7325000D02*
X11233000Y-7355000D01*
X12880000Y-8977000D02*
X12910000Y-9007000D01*
X12910000Y-8977000D02*
X12880000Y-9007000D01*
D13*
X14428530Y-6004000D02*
G75*
G03*
X14428530Y-6004000I-16530J0D01*
G01*
X15228530Y-6004000D02*
G75*
G03*
X15228530Y-6004000I-16530J0D01*
G01*
X16805530Y-7596000D02*
G75*
G03*
X16805530Y-7596000I-16530J0D01*
G01*
X16805530Y-8396000D02*
G75*
G03*
X16805530Y-8396000I-16530J0D01*
G01*
D14*
X8124000Y-8229000D02*
X8124000Y-8269000D01*
X8104000Y-8249000D02*
X8144000Y-8249000D01*
X8128000Y-8442000D02*
X8128000Y-8482000D01*
X8108000Y-8462000D02*
X8148000Y-8462000D01*
X8128000Y-8633000D02*
X8128000Y-8673000D01*
X8108000Y-8653000D02*
X8148000Y-8653000D01*
X8237000Y-6469000D02*
X8237000Y-6509000D01*
X8217000Y-6489000D02*
X8257000Y-6489000D01*
X8239000Y-6324000D02*
X8239000Y-6364000D01*
X8219000Y-6344000D02*
X8259000Y-6344000D01*
X8291000Y-6670000D02*
X8291000Y-6710000D01*
X8271000Y-6690000D02*
X8311000Y-6690000D01*
X8447865Y-7367979D02*
X8447865Y-7407979D01*
X8427865Y-7387979D02*
X8467865Y-7387979D01*
X8542000Y-6926000D02*
X8542000Y-6966000D01*
X8522000Y-6946000D02*
X8562000Y-6946000D01*
X8653000Y-9160000D02*
X8653000Y-9200000D01*
X8633000Y-9180000D02*
X8673000Y-9180000D01*
X8691000Y-7528000D02*
X8691000Y-7568000D01*
X8671000Y-7548000D02*
X8711000Y-7548000D01*
X8691000Y-7669000D02*
X8691000Y-7709000D01*
X8671000Y-7689000D02*
X8711000Y-7689000D01*
X8693000Y-7182000D02*
X8693000Y-7222000D01*
X8673000Y-7202000D02*
X8713000Y-7202000D01*
X8694000Y-7370000D02*
X8694000Y-7410000D01*
X8674000Y-7390000D02*
X8714000Y-7390000D01*
X8744000Y-5713000D02*
X8744000Y-5753000D01*
X8724000Y-5733000D02*
X8764000Y-5733000D01*
X8853000Y-9160000D02*
X8853000Y-9200000D01*
X8833000Y-9180000D02*
X8873000Y-9180000D01*
X8901000Y-7852000D02*
X8901000Y-7892000D01*
X8881000Y-7872000D02*
X8921000Y-7872000D01*
X8944000Y-5713000D02*
X8944000Y-5753000D01*
X8924000Y-5733000D02*
X8964000Y-5733000D01*
X8955000Y-6254000D02*
X8955000Y-6294000D01*
X8935000Y-6274000D02*
X8975000Y-6274000D01*
X9012000Y-7560000D02*
X9012000Y-7600000D01*
X8992000Y-7580000D02*
X9032000Y-7580000D01*
X9054000Y-6097000D02*
X9054000Y-6137000D01*
X9034000Y-6117000D02*
X9074000Y-6117000D01*
X9057000Y-9157000D02*
X9057000Y-9197000D01*
X9037000Y-9177000D02*
X9077000Y-9177000D01*
X9145000Y-7455000D02*
X9145000Y-7495000D01*
X9125000Y-7475000D02*
X9165000Y-7475000D01*
X9153000Y-5711000D02*
X9153000Y-5751000D01*
X9133000Y-5731000D02*
X9173000Y-5731000D01*
X9228000Y-7284000D02*
X9228000Y-7324000D01*
X9208000Y-7304000D02*
X9248000Y-7304000D01*
X9241000Y-6098000D02*
X9241000Y-6138000D01*
X9221000Y-6118000D02*
X9261000Y-6118000D01*
X9258000Y-9155000D02*
X9258000Y-9195000D01*
X9238000Y-9175000D02*
X9278000Y-9175000D01*
X9350000Y-5711000D02*
X9350000Y-5751000D01*
X9330000Y-5731000D02*
X9370000Y-5731000D01*
X9459000Y-9152000D02*
X9459000Y-9192000D01*
X9439000Y-9172000D02*
X9479000Y-9172000D01*
X9483000Y-8447000D02*
X9483000Y-8487000D01*
X9463000Y-8467000D02*
X9503000Y-8467000D01*
X9492000Y-6157000D02*
X9492000Y-6197000D01*
X9472000Y-6177000D02*
X9512000Y-6177000D01*
X9497369Y-6442427D02*
X9497369Y-6482427D01*
X9477369Y-6462427D02*
X9517369Y-6462427D01*
X9501000Y-6639000D02*
X9501000Y-6679000D01*
X9481000Y-6659000D02*
X9521000Y-6659000D01*
X9503000Y-6830000D02*
X9503000Y-6870000D01*
X9483000Y-6850000D02*
X9523000Y-6850000D01*
X9553000Y-5711000D02*
X9553000Y-5751000D01*
X9533000Y-5731000D02*
X9573000Y-5731000D01*
X9631000Y-8541000D02*
X9631000Y-8581000D01*
X9611000Y-8561000D02*
X9651000Y-8561000D01*
X9657000Y-9159000D02*
X9657000Y-9199000D01*
X9637000Y-9179000D02*
X9677000Y-9179000D01*
X9742000Y-5708000D02*
X9742000Y-5748000D01*
X9722000Y-5728000D02*
X9762000Y-5728000D01*
X9781000Y-8451000D02*
X9781000Y-8491000D01*
X9761000Y-8471000D02*
X9801000Y-8471000D01*
X9855000Y-9159000D02*
X9855000Y-9199000D01*
X9835000Y-9179000D02*
X9875000Y-9179000D01*
X9953000Y-5711000D02*
X9953000Y-5751000D01*
X9933000Y-5731000D02*
X9973000Y-5731000D01*
X9997000Y-7155000D02*
X9997000Y-7195000D01*
X9977000Y-7175000D02*
X10017000Y-7175000D01*
X10018000Y-7785000D02*
X10018000Y-7825000D01*
X9998000Y-7805000D02*
X10038000Y-7805000D01*
X10061000Y-9156000D02*
X10061000Y-9196000D01*
X10041000Y-9176000D02*
X10081000Y-9176000D01*
X10137000Y-6383000D02*
X10137000Y-6423000D01*
X10117000Y-6403000D02*
X10157000Y-6403000D01*
X10146000Y-6631000D02*
X10146000Y-6671000D01*
X10126000Y-6651000D02*
X10166000Y-6651000D01*
X10152000Y-5715000D02*
X10152000Y-5755000D01*
X10132000Y-5735000D02*
X10172000Y-5735000D01*
X10166000Y-7131000D02*
X10166000Y-7171000D01*
X10146000Y-7151000D02*
X10186000Y-7151000D01*
X10213000Y-8223000D02*
X10213000Y-8263000D01*
X10193000Y-8243000D02*
X10233000Y-8243000D01*
X10217000Y-7778000D02*
X10217000Y-7818000D01*
X10197000Y-7798000D02*
X10237000Y-7798000D01*
X10253000Y-9150000D02*
X10253000Y-9190000D01*
X10233000Y-9170000D02*
X10273000Y-9170000D01*
X10308000Y-7316000D02*
X10308000Y-7356000D01*
X10288000Y-7336000D02*
X10328000Y-7336000D01*
X10329000Y-7175000D02*
X10329000Y-7215000D01*
X10309000Y-7195000D02*
X10349000Y-7195000D01*
X10355000Y-5711000D02*
X10355000Y-5751000D01*
X10335000Y-5731000D02*
X10375000Y-5731000D01*
X10358000Y-6428000D02*
X10358000Y-6468000D01*
X10338000Y-6448000D02*
X10378000Y-6448000D01*
X10433000Y-6629000D02*
X10433000Y-6669000D01*
X10413000Y-6649000D02*
X10453000Y-6649000D01*
X10454000Y-9153000D02*
X10454000Y-9193000D01*
X10434000Y-9173000D02*
X10474000Y-9173000D01*
X10455000Y-8221000D02*
X10455000Y-8261000D01*
X10435000Y-8241000D02*
X10475000Y-8241000D01*
X10551000Y-5711000D02*
X10551000Y-5751000D01*
X10531000Y-5731000D02*
X10571000Y-5731000D01*
X10751000Y-5705000D02*
X10751000Y-5745000D01*
X10731000Y-5725000D02*
X10771000Y-5725000D01*
X10822000Y-7867000D02*
X10822000Y-7907000D01*
X10802000Y-7887000D02*
X10842000Y-7887000D01*
X10897000Y-8330000D02*
X10897000Y-8370000D01*
X10877000Y-8350000D02*
X10917000Y-8350000D01*
X10907000Y-6080000D02*
X10907000Y-6120000D01*
X10887000Y-6100000D02*
X10927000Y-6100000D01*
X10916569Y-6938630D02*
X10916569Y-6978630D01*
X10896569Y-6958630D02*
X10936569Y-6958630D01*
X10950000Y-5711000D02*
X10950000Y-5751000D01*
X10930000Y-5731000D02*
X10970000Y-5731000D01*
X10981000Y-7968000D02*
X10981000Y-8008000D01*
X10961000Y-7988000D02*
X11001000Y-7988000D01*
X10981000Y-8140000D02*
X10981000Y-8180000D01*
X10961000Y-8160000D02*
X11001000Y-8160000D01*
X10986000Y-6432000D02*
X10986000Y-6472000D01*
X10966000Y-6452000D02*
X11006000Y-6452000D01*
X10999000Y-6212000D02*
X10999000Y-6252000D01*
X10979000Y-6232000D02*
X11019000Y-6232000D01*
X11005000Y-6587000D02*
X11005000Y-6627000D01*
X10985000Y-6607000D02*
X11025000Y-6607000D01*
X11062000Y-9159000D02*
X11062000Y-9199000D01*
X11042000Y-9179000D02*
X11082000Y-9179000D01*
X11138000Y-6989000D02*
X11138000Y-7029000D01*
X11118000Y-7009000D02*
X11158000Y-7009000D01*
X11153000Y-5711000D02*
X11153000Y-5751000D01*
X11133000Y-5731000D02*
X11173000Y-5731000D01*
X11170000Y-7585000D02*
X11170000Y-7625000D01*
X11150000Y-7605000D02*
X11190000Y-7605000D01*
X11203000Y-6314000D02*
X11203000Y-6354000D01*
X11183000Y-6334000D02*
X11223000Y-6334000D01*
X11204000Y-9159000D02*
X11204000Y-9199000D01*
X11184000Y-9179000D02*
X11224000Y-9179000D01*
X11247000Y-6883000D02*
X11247000Y-6923000D01*
X11227000Y-6903000D02*
X11267000Y-6903000D01*
X11300000Y-6494000D02*
X11300000Y-6534000D01*
X11280000Y-6514000D02*
X11320000Y-6514000D01*
X11306434Y-7678087D02*
X11306434Y-7718087D01*
X11286434Y-7698087D02*
X11326434Y-7698087D01*
X11311001Y-7094306D02*
X11311001Y-7134306D01*
X11291001Y-7114306D02*
X11331001Y-7114306D01*
X11350000Y-5712000D02*
X11350000Y-5752000D01*
X11330000Y-5732000D02*
X11370000Y-5732000D01*
X11477000Y-8106000D02*
X11477000Y-8146000D01*
X11457000Y-8126000D02*
X11497000Y-8126000D01*
X11557000Y-5716000D02*
X11557000Y-5756000D01*
X11537000Y-5736000D02*
X11577000Y-5736000D01*
X11593000Y-8220000D02*
X11593000Y-8260000D01*
X11573000Y-8240000D02*
X11613000Y-8240000D01*
X11611000Y-8394000D02*
X11611000Y-8434000D01*
X11591000Y-8414000D02*
X11631000Y-8414000D01*
X11647000Y-9196000D02*
X11647000Y-9236000D01*
X11627000Y-9216000D02*
X11667000Y-9216000D01*
X11654000Y-8005000D02*
X11654000Y-8045000D01*
X11634000Y-8025000D02*
X11674000Y-8025000D01*
X11738327Y-8086363D02*
X11738327Y-8126363D01*
X11718327Y-8106363D02*
X11758327Y-8106363D01*
X11760000Y-5718000D02*
X11760000Y-5758000D01*
X11740000Y-5738000D02*
X11780000Y-5738000D01*
X11806000Y-7863000D02*
X11806000Y-7903000D01*
X11786000Y-7883000D02*
X11826000Y-7883000D01*
X11809000Y-6494000D02*
X11809000Y-6534000D01*
X11789000Y-6514000D02*
X11829000Y-6514000D01*
X11846000Y-8008000D02*
X11846000Y-8048000D01*
X11826000Y-8028000D02*
X11866000Y-8028000D01*
X11854000Y-9203000D02*
X11854000Y-9243000D01*
X11834000Y-9223000D02*
X11874000Y-9223000D01*
X11954000Y-5722000D02*
X11954000Y-5762000D01*
X11934000Y-5742000D02*
X11974000Y-5742000D01*
X12010000Y-6146000D02*
X12010000Y-6186000D01*
X11990000Y-6166000D02*
X12030000Y-6166000D01*
X12026000Y-6017000D02*
X12026000Y-6057000D01*
X12006000Y-6037000D02*
X12046000Y-6037000D01*
X12050000Y-9205000D02*
X12050000Y-9245000D01*
X12030000Y-9225000D02*
X12070000Y-9225000D01*
X12103011Y-7582655D02*
X12103011Y-7622655D01*
X12083011Y-7602655D02*
X12123011Y-7602655D01*
X12107000Y-7748000D02*
X12107000Y-7788000D01*
X12087000Y-7768000D02*
X12127000Y-7768000D01*
X12149000Y-7145000D02*
X12149000Y-7185000D01*
X12129000Y-7165000D02*
X12169000Y-7165000D01*
X12157000Y-5720000D02*
X12157000Y-5760000D01*
X12137000Y-5740000D02*
X12177000Y-5740000D01*
X12212000Y-6017000D02*
X12212000Y-6057000D01*
X12192000Y-6037000D02*
X12232000Y-6037000D01*
X12244000Y-6152000D02*
X12244000Y-6192000D01*
X12224000Y-6172000D02*
X12264000Y-6172000D01*
X12255000Y-9205000D02*
X12255000Y-9245000D01*
X12235000Y-9225000D02*
X12275000Y-9225000D01*
X12358000Y-5719000D02*
X12358000Y-5759000D01*
X12338000Y-5739000D02*
X12378000Y-5739000D01*
X12361000Y-6571000D02*
X12361000Y-6611000D01*
X12341000Y-6591000D02*
X12381000Y-6591000D01*
X12398000Y-6687000D02*
X12398000Y-6727000D01*
X12378000Y-6707000D02*
X12418000Y-6707000D01*
X12453000Y-9212000D02*
X12453000Y-9252000D01*
X12433000Y-9232000D02*
X12473000Y-9232000D01*
X12508000Y-6940000D02*
X12508000Y-6980000D01*
X12488000Y-6960000D02*
X12528000Y-6960000D01*
X12511860Y-6165898D02*
X12511860Y-6205898D01*
X12491860Y-6185898D02*
X12531860Y-6185898D01*
X12515000Y-6338000D02*
X12515000Y-6378000D01*
X12495000Y-6358000D02*
X12535000Y-6358000D01*
X12564000Y-5718000D02*
X12564000Y-5758000D01*
X12544000Y-5738000D02*
X12584000Y-5738000D01*
X12654000Y-9208000D02*
X12654000Y-9248000D01*
X12634000Y-9228000D02*
X12674000Y-9228000D01*
X12686000Y-7070000D02*
X12686000Y-7110000D01*
X12666000Y-7090000D02*
X12706000Y-7090000D01*
X12703000Y-6874000D02*
X12703000Y-6914000D01*
X12683000Y-6894000D02*
X12723000Y-6894000D01*
X12759000Y-5723000D02*
X12759000Y-5763000D01*
X12739000Y-5743000D02*
X12779000Y-5743000D01*
X12808000Y-6543000D02*
X12808000Y-6583000D01*
X12788000Y-6563000D02*
X12828000Y-6563000D01*
X12808000Y-6740000D02*
X12808000Y-6780000D01*
X12788000Y-6760000D02*
X12828000Y-6760000D01*
X12852000Y-9212000D02*
X12852000Y-9252000D01*
X12832000Y-9232000D02*
X12872000Y-9232000D01*
X12947000Y-5715000D02*
X12947000Y-5755000D01*
X12927000Y-5735000D02*
X12967000Y-5735000D01*
X13010000Y-8495000D02*
X13010000Y-8535000D01*
X12990000Y-8515000D02*
X13030000Y-8515000D01*
X13055000Y-9214000D02*
X13055000Y-9254000D01*
X13035000Y-9234000D02*
X13075000Y-9234000D01*
X13115000Y-5843000D02*
X13115000Y-5883000D01*
X13095000Y-5863000D02*
X13135000Y-5863000D01*
X13153000Y-5715000D02*
X13153000Y-5755000D01*
X13133000Y-5735000D02*
X13173000Y-5735000D01*
X13256000Y-9214000D02*
X13256000Y-9254000D01*
X13236000Y-9234000D02*
X13276000Y-9234000D01*
X13266000Y-8454000D02*
X13266000Y-8494000D01*
X13246000Y-8474000D02*
X13286000Y-8474000D01*
X13305000Y-7226000D02*
X13305000Y-7266000D01*
X13285000Y-7246000D02*
X13325000Y-7246000D01*
X13310000Y-6870000D02*
X13310000Y-6910000D01*
X13290000Y-6890000D02*
X13330000Y-6890000D01*
X13353000Y-5715000D02*
X13353000Y-5755000D01*
X13333000Y-5735000D02*
X13373000Y-5735000D01*
X13367000Y-7733000D02*
X13367000Y-7773000D01*
X13347000Y-7753000D02*
X13387000Y-7753000D01*
X13374000Y-8627000D02*
X13374000Y-8667000D01*
X13354000Y-8647000D02*
X13394000Y-8647000D01*
X13395000Y-6727000D02*
X13395000Y-6767000D01*
X13375000Y-6747000D02*
X13415000Y-6747000D01*
X13408000Y-6839209D02*
X13408000Y-6879209D01*
X13388000Y-6859209D02*
X13428000Y-6859209D01*
X13447000Y-9214000D02*
X13447000Y-9254000D01*
X13427000Y-9234000D02*
X13467000Y-9234000D01*
X13527000Y-7226000D02*
X13527000Y-7266000D01*
X13507000Y-7246000D02*
X13547000Y-7246000D01*
X13550000Y-5707000D02*
X13550000Y-5747000D01*
X13530000Y-5727000D02*
X13570000Y-5727000D01*
X13571000Y-7725000D02*
X13571000Y-7765000D01*
X13551000Y-7745000D02*
X13591000Y-7745000D01*
X13595000Y-7971000D02*
X13595000Y-8011000D01*
X13575000Y-7991000D02*
X13615000Y-7991000D01*
X13651000Y-9211000D02*
X13651000Y-9251000D01*
X13631000Y-9231000D02*
X13671000Y-9231000D01*
X13659000Y-7501000D02*
X13659000Y-7541000D01*
X13639000Y-7521000D02*
X13679000Y-7521000D01*
X13663000Y-7630000D02*
X13663000Y-7670000D01*
X13643000Y-7650000D02*
X13683000Y-7650000D01*
X13669000Y-7376000D02*
X13669000Y-7416000D01*
X13649000Y-7396000D02*
X13689000Y-7396000D01*
X13713000Y-8440000D02*
X13713000Y-8480000D01*
X13693000Y-8460000D02*
X13733000Y-8460000D01*
X13754000Y-5715000D02*
X13754000Y-5755000D01*
X13734000Y-5735000D02*
X13774000Y-5735000D01*
X13757000Y-6308000D02*
X13757000Y-6348000D01*
X13737000Y-6328000D02*
X13777000Y-6328000D01*
X13781000Y-6764000D02*
X13781000Y-6804000D01*
X13761000Y-6784000D02*
X13801000Y-6784000D01*
X13814000Y-8782000D02*
X13814000Y-8822000D01*
X13794000Y-8802000D02*
X13834000Y-8802000D01*
X13846000Y-8461000D02*
X13846000Y-8501000D01*
X13826000Y-8481000D02*
X13866000Y-8481000D01*
X13851000Y-9213000D02*
X13851000Y-9253000D01*
X13831000Y-9233000D02*
X13871000Y-9233000D01*
X13879000Y-7418000D02*
X13879000Y-7458000D01*
X13859000Y-7438000D02*
X13899000Y-7438000D01*
X13882000Y-7620000D02*
X13882000Y-7660000D01*
X13862000Y-7640000D02*
X13902000Y-7640000D01*
X13925000Y-6452000D02*
X13925000Y-6492000D01*
X13905000Y-6472000D02*
X13945000Y-6472000D01*
X13943000Y-8673000D02*
X13943000Y-8713000D01*
X13923000Y-8693000D02*
X13963000Y-8693000D01*
X13950000Y-5712000D02*
X13950000Y-5752000D01*
X13930000Y-5732000D02*
X13970000Y-5732000D01*
X13977000Y-7085000D02*
X13977000Y-7125000D01*
X13957000Y-7105000D02*
X13997000Y-7105000D01*
X13981000Y-6873000D02*
X13981000Y-6913000D01*
X13961000Y-6893000D02*
X14001000Y-6893000D01*
X14029000Y-6574000D02*
X14029000Y-6614000D01*
X14009000Y-6594000D02*
X14049000Y-6594000D01*
X14047000Y-7419000D02*
X14047000Y-7459000D01*
X14027000Y-7439000D02*
X14067000Y-7439000D01*
X14049000Y-8563000D02*
X14049000Y-8603000D01*
X14029000Y-8583000D02*
X14069000Y-8583000D01*
X14054000Y-6227000D02*
X14054000Y-6267000D01*
X14034000Y-6247000D02*
X14074000Y-6247000D01*
X14055000Y-9211000D02*
X14055000Y-9251000D01*
X14035000Y-9231000D02*
X14075000Y-9231000D01*
X14148000Y-6684000D02*
X14148000Y-6724000D01*
X14128000Y-6704000D02*
X14168000Y-6704000D01*
X14157000Y-5709000D02*
X14157000Y-5749000D01*
X14137000Y-5729000D02*
X14177000Y-5729000D01*
X14164000Y-7866000D02*
X14164000Y-7906000D01*
X14144000Y-7886000D02*
X14184000Y-7886000D01*
X14172000Y-7043000D02*
X14172000Y-7083000D01*
X14152000Y-7063000D02*
X14192000Y-7063000D01*
X14188000Y-7418000D02*
X14188000Y-7458000D01*
X14168000Y-7438000D02*
X14208000Y-7438000D01*
X14251000Y-9213000D02*
X14251000Y-9253000D01*
X14231000Y-9233000D02*
X14271000Y-9233000D01*
X14259000Y-7937000D02*
X14259000Y-7977000D01*
X14239000Y-7957000D02*
X14279000Y-7957000D01*
X14269000Y-6806000D02*
X14269000Y-6846000D01*
X14249000Y-6826000D02*
X14289000Y-6826000D01*
X14294000Y-8062000D02*
X14294000Y-8102000D01*
X14274000Y-8082000D02*
X14314000Y-8082000D01*
X14346000Y-7186000D02*
X14346000Y-7226000D01*
X14326000Y-7206000D02*
X14366000Y-7206000D01*
X14348000Y-5709000D02*
X14348000Y-5749000D01*
X14328000Y-5729000D02*
X14368000Y-5729000D01*
X14395000Y-7857000D02*
X14395000Y-7897000D01*
X14375000Y-7877000D02*
X14415000Y-7877000D01*
X14427000Y-6907000D02*
X14427000Y-6947000D01*
X14407000Y-6927000D02*
X14447000Y-6927000D01*
X14450000Y-9213000D02*
X14450000Y-9253000D01*
X14430000Y-9233000D02*
X14470000Y-9233000D01*
X14482000Y-7336000D02*
X14482000Y-7376000D01*
X14462000Y-7356000D02*
X14502000Y-7356000D01*
X14553000Y-5715000D02*
X14553000Y-5755000D01*
X14533000Y-5735000D02*
X14573000Y-5735000D01*
X14621000Y-7959000D02*
X14621000Y-7999000D01*
X14601000Y-7979000D02*
X14641000Y-7979000D01*
X14647000Y-9213000D02*
X14647000Y-9253000D01*
X14627000Y-9233000D02*
X14667000Y-9233000D01*
X14678000Y-7419000D02*
X14678000Y-7459000D01*
X14658000Y-7439000D02*
X14698000Y-7439000D01*
X14686000Y-8061000D02*
X14686000Y-8101000D01*
X14666000Y-8081000D02*
X14706000Y-8081000D01*
X14688000Y-7618000D02*
X14688000Y-7658000D01*
X14668000Y-7638000D02*
X14708000Y-7638000D01*
X14749000Y-5715000D02*
X14749000Y-5755000D01*
X14729000Y-5735000D02*
X14769000Y-5735000D01*
X14807000Y-7771000D02*
X14807000Y-7811000D01*
X14787000Y-7791000D02*
X14827000Y-7791000D01*
X14841000Y-8432000D02*
X14841000Y-8472000D01*
X14821000Y-8452000D02*
X14861000Y-8452000D01*
X14856000Y-9213000D02*
X14856000Y-9253000D01*
X14836000Y-9233000D02*
X14876000Y-9233000D01*
X14863000Y-7897000D02*
X14863000Y-7937000D01*
X14843000Y-7917000D02*
X14883000Y-7917000D01*
X14896000Y-8039000D02*
X14896000Y-8079000D01*
X14876000Y-8059000D02*
X14916000Y-8059000D01*
X14951000Y-5709000D02*
X14951000Y-5749000D01*
X14931000Y-5729000D02*
X14971000Y-5729000D01*
X15036000Y-8162000D02*
X15036000Y-8202000D01*
X15016000Y-8182000D02*
X15056000Y-8182000D01*
X15046000Y-8362000D02*
X15046000Y-8402000D01*
X15026000Y-8382000D02*
X15066000Y-8382000D01*
X15061000Y-9213000D02*
X15061000Y-9253000D01*
X15041000Y-9233000D02*
X15081000Y-9233000D01*
X15155000Y-5709000D02*
X15155000Y-5749000D01*
X15135000Y-5729000D02*
X15175000Y-5729000D01*
X15255000Y-9211000D02*
X15255000Y-9251000D01*
X15235000Y-9231000D02*
X15275000Y-9231000D01*
X15351000Y-5709000D02*
X15351000Y-5749000D01*
X15331000Y-5729000D02*
X15371000Y-5729000D01*
X15444000Y-9212000D02*
X15444000Y-9252000D01*
X15424000Y-9232000D02*
X15464000Y-9232000D01*
X15554000Y-5715000D02*
X15554000Y-5755000D01*
X15534000Y-5735000D02*
X15574000Y-5735000D01*
X15652000Y-9209000D02*
X15652000Y-9249000D01*
X15632000Y-9229000D02*
X15672000Y-9229000D01*
X15752000Y-5715000D02*
X15752000Y-5755000D01*
X15732000Y-5735000D02*
X15772000Y-5735000D01*
X15854000Y-9209000D02*
X15854000Y-9249000D01*
X15834000Y-9229000D02*
X15874000Y-9229000D01*
X15951000Y-5715000D02*
X15951000Y-5755000D01*
X15931000Y-5735000D02*
X15971000Y-5735000D01*
X16056000Y-9212000D02*
X16056000Y-9252000D01*
X16036000Y-9232000D02*
X16076000Y-9232000D01*
X16149000Y-5715000D02*
X16149000Y-5755000D01*
X16129000Y-5735000D02*
X16169000Y-5735000D01*
X16246000Y-9212000D02*
X16246000Y-9252000D01*
X16226000Y-9232000D02*
X16266000Y-9232000D01*
X16264000Y-7517000D02*
X16264000Y-7557000D01*
X16244000Y-7537000D02*
X16284000Y-7537000D01*
X16353000Y-5715000D02*
X16353000Y-5755000D01*
X16333000Y-5735000D02*
X16373000Y-5735000D01*
X16395000Y-7397000D02*
X16395000Y-7437000D01*
X16375000Y-7417000D02*
X16415000Y-7417000D01*
X16498000Y-7266000D02*
X16498000Y-7306000D01*
X16478000Y-7286000D02*
X16518000Y-7286000D01*
X16629000Y-7116000D02*
X16629000Y-7156000D01*
X16609000Y-7136000D02*
X16649000Y-7136000D01*
X16749000Y-7002000D02*
X16749000Y-7042000D01*
X16729000Y-7022000D02*
X16769000Y-7022000D01*
X16830000Y-6312000D02*
X16830000Y-6352000D01*
X16810000Y-6332000D02*
X16850000Y-6332000D01*
X16839000Y-6546000D02*
X16839000Y-6586000D01*
X16819000Y-6566000D02*
X16859000Y-6566000D01*
X16879000Y-7345000D02*
X16879000Y-7385000D01*
X16859000Y-7365000D02*
X16899000Y-7365000D01*
X16883000Y-7142000D02*
X16883000Y-7182000D01*
X16863000Y-7162000D02*
X16903000Y-7162000D01*
X16883000Y-7791000D02*
X16883000Y-7831000D01*
X16863000Y-7811000D02*
X16903000Y-7811000D01*
X16883000Y-8010000D02*
X16883000Y-8050000D01*
X16863000Y-8030000D02*
X16903000Y-8030000D01*
X16891000Y-8205000D02*
X16891000Y-8245000D01*
X16871000Y-8225000D02*
X16911000Y-8225000D01*
X16891000Y-8570000D02*
X16891000Y-8610000D01*
X16871000Y-8590000D02*
X16911000Y-8590000D01*
D15*
X8828678Y-7166678D02*
X8828678Y-7131322D01*
X8793322Y-7131322D01*
X8793322Y-7166678D01*
X8828678Y-7166678D01*
X9022678Y-6796678D02*
X9022678Y-6761322D01*
X8987322Y-6761322D01*
X8987322Y-6796678D01*
X9022678Y-6796678D01*
X10064154Y-6271062D02*
X10064154Y-6235706D01*
X10028798Y-6235706D01*
X10028798Y-6271062D01*
X10064154Y-6271062D01*
X10148678Y-7504678D02*
X10148678Y-7469322D01*
X10113322Y-7469322D01*
X10113322Y-7504678D01*
X10148678Y-7504678D01*
X10190678Y-7595678D02*
X10190678Y-7560322D01*
X10155322Y-7560322D01*
X10155322Y-7595678D01*
X10190678Y-7595678D01*
X11789678Y-7425678D02*
X11789678Y-7390322D01*
X11754322Y-7390322D01*
X11754322Y-7425678D01*
X11789678Y-7425678D01*
D16*
X9492000Y-9038000D02*
X9542000Y-8988000D01*
X9492000Y-8938000D01*
X9442000Y-8988000D01*
X9492000Y-9038000D01*
X9551000Y-7453000D02*
X9601000Y-7403000D01*
X9551000Y-7353000D01*
X9501000Y-7403000D01*
X9551000Y-7453000D01*
X9551000Y-7707000D02*
X9601000Y-7657000D01*
X9551000Y-7607000D01*
X9501000Y-7657000D01*
X9551000Y-7707000D01*
X9746000Y-9038000D02*
X9796000Y-8988000D01*
X9746000Y-8938000D01*
X9696000Y-8988000D01*
X9746000Y-9038000D01*
X10000000Y-9038000D02*
X10050000Y-8988000D01*
X10000000Y-8938000D01*
X9950000Y-8988000D01*
X10000000Y-9038000D01*
X10254000Y-9038000D02*
X10304000Y-8988000D01*
X10254000Y-8938000D01*
X10204000Y-8988000D01*
X10254000Y-9038000D01*
X10426000Y-8571000D02*
X10476000Y-8521000D01*
X10426000Y-8471000D01*
X10376000Y-8521000D01*
X10426000Y-8571000D01*
X10680000Y-8571000D02*
X10730000Y-8521000D01*
X10680000Y-8471000D01*
X10630000Y-8521000D01*
X10680000Y-8571000D01*
X11072000Y-8578000D02*
X11122000Y-8528000D01*
X11072000Y-8478000D01*
X11022000Y-8528000D01*
X11072000Y-8578000D01*
X11326000Y-8578000D02*
X11376000Y-8528000D01*
X11326000Y-8478000D01*
X11276000Y-8528000D01*
X11326000Y-8578000D01*
X11865000Y-6997500D02*
X11915000Y-6947500D01*
X11865000Y-6897500D01*
X11815000Y-6947500D01*
X11865000Y-6997500D01*
X12119000Y-6997500D02*
X12169000Y-6947500D01*
X12119000Y-6897500D01*
X12069000Y-6947500D01*
X12119000Y-6997500D01*
X12610000Y-7326000D02*
X12660000Y-7276000D01*
X12610000Y-7226000D01*
X12560000Y-7276000D01*
X12610000Y-7326000D01*
X12610000Y-7580000D02*
X12660000Y-7530000D01*
X12610000Y-7480000D01*
X12560000Y-7530000D01*
X12610000Y-7580000D01*
X12610000Y-7834000D02*
X12660000Y-7784000D01*
X12610000Y-7734000D01*
X12560000Y-7784000D01*
X12610000Y-7834000D01*
X12610000Y-8088000D02*
X12660000Y-8038000D01*
X12610000Y-7988000D01*
X12560000Y-8038000D01*
X12610000Y-8088000D01*
X14746000Y-5964000D02*
X14796000Y-5914000D01*
X14746000Y-5864000D01*
X14696000Y-5914000D01*
X14746000Y-5964000D01*
X14746000Y-6218000D02*
X14796000Y-6168000D01*
X14746000Y-6118000D01*
X14696000Y-6168000D01*
X14746000Y-6218000D01*
X16435000Y-8132500D02*
X16485000Y-8082500D01*
X16435000Y-8032500D01*
X16385000Y-8082500D01*
X16435000Y-8132500D01*
X16435000Y-8386500D02*
X16485000Y-8336500D01*
X16435000Y-8286500D01*
X16385000Y-8336500D01*
X16435000Y-8386500D01*
D17*
X15912500Y-6772000D02*
X16022500Y-6882000D01*
X16022500Y-6772000D02*
X15912500Y-6882000D01*
X16022500Y-6827000D02*
G75*
G03*
X16022500Y-6827000I-55000J0D01*
G01*
X16717500Y-6772000D02*
X16827500Y-6882000D01*
X16827500Y-6772000D02*
X16717500Y-6882000D01*
X16827500Y-6827000D02*
G75*
G03*
X16827500Y-6827000I-55000J0D01*
G01*
D18*
X15064750Y-6646500D02*
X15184750Y-6766500D01*
X15184750Y-6646500D02*
X15064750Y-6766500D01*
X15124750Y-6646500D02*
X15124750Y-6766500D01*
X15064750Y-6706500D02*
X15184750Y-6706500D01*
X15505750Y-6630500D02*
X15625750Y-6750500D01*
X15625750Y-6630500D02*
X15505750Y-6750500D01*
X15565750Y-6630500D02*
X15565750Y-6750500D01*
X15505750Y-6690500D02*
X15625750Y-6690500D01*
X15613750Y-6966500D02*
X15733750Y-7086500D01*
X15733750Y-6966500D02*
X15613750Y-7086500D01*
X15673750Y-6966500D02*
X15673750Y-7086500D01*
X15613750Y-7026500D02*
X15733750Y-7026500D01*
X15930750Y-7458500D02*
X16050750Y-7578500D01*
X16050750Y-7458500D02*
X15930750Y-7578500D01*
X15990750Y-7458500D02*
X15990750Y-7578500D01*
X15930750Y-7518500D02*
X16050750Y-7518500D01*
D11*
X8252619Y-9615476D02*
X8252619Y-9415476D01*
X8300238Y-9415476D01*
X8328809Y-9425000D01*
X8347857Y-9444048D01*
X8357381Y-9463095D01*
X8366905Y-9501190D01*
X8366905Y-9529762D01*
X8357381Y-9567857D01*
X8347857Y-9586905D01*
X8328809Y-9605952D01*
X8300238Y-9615476D01*
X8252619Y-9615476D01*
X8452619Y-9615476D02*
X8452619Y-9482143D01*
X8452619Y-9520238D02*
X8462143Y-9501190D01*
X8471667Y-9491667D01*
X8490714Y-9482143D01*
X8509762Y-9482143D01*
X8576429Y-9615476D02*
X8576429Y-9482143D01*
X8576429Y-9415476D02*
X8566905Y-9425000D01*
X8576429Y-9434524D01*
X8585952Y-9425000D01*
X8576429Y-9415476D01*
X8576429Y-9434524D01*
X8700238Y-9615476D02*
X8681190Y-9605952D01*
X8671667Y-9586905D01*
X8671667Y-9415476D01*
X8805000Y-9615476D02*
X8785952Y-9605952D01*
X8776429Y-9586905D01*
X8776429Y-9415476D01*
X9033571Y-9615476D02*
X9033571Y-9415476D01*
X9100238Y-9558333D01*
X9166905Y-9415476D01*
X9166905Y-9615476D01*
X9347857Y-9615476D02*
X9347857Y-9510714D01*
X9338333Y-9491667D01*
X9319286Y-9482143D01*
X9281190Y-9482143D01*
X9262143Y-9491667D01*
X9347857Y-9605952D02*
X9328810Y-9615476D01*
X9281190Y-9615476D01*
X9262143Y-9605952D01*
X9252619Y-9586905D01*
X9252619Y-9567857D01*
X9262143Y-9548810D01*
X9281190Y-9539286D01*
X9328810Y-9539286D01*
X9347857Y-9529762D01*
X9443095Y-9482143D02*
X9443095Y-9682143D01*
X9443095Y-9491667D02*
X9462143Y-9482143D01*
X9500238Y-9482143D01*
X9519286Y-9491667D01*
X9528810Y-9501190D01*
X9538333Y-9520238D01*
X9538333Y-9577381D01*
X9528810Y-9596429D01*
X9519286Y-9605952D01*
X9500238Y-9615476D01*
X9462143Y-9615476D01*
X9443095Y-9605952D01*
X9624048Y-9596429D02*
X9633571Y-9605952D01*
X9624048Y-9615476D01*
X9614524Y-9605952D01*
X9624048Y-9596429D01*
X9624048Y-9615476D01*
X9624048Y-9491667D02*
X9633571Y-9501190D01*
X9624048Y-9510714D01*
X9614524Y-9501190D01*
X9624048Y-9491667D01*
X9624048Y-9510714D01*
D12*
X7965000Y-9930000D02*
X7995000Y-9960000D01*
X7995000Y-9930000D02*
X7965000Y-9960000D01*
D11*
X8290714Y-9835476D02*
X8309762Y-9835476D01*
X8328809Y-9845000D01*
X8338333Y-9854524D01*
X8347857Y-9873571D01*
X8357381Y-9911667D01*
X8357381Y-9959286D01*
X8347857Y-9997381D01*
X8338333Y-10016429D01*
X8328809Y-10025952D01*
X8309762Y-10035476D01*
X8290714Y-10035476D01*
X8271667Y-10025952D01*
X8262143Y-10016429D01*
X8252619Y-9997381D01*
X8243095Y-9959286D01*
X8243095Y-9911667D01*
X8252619Y-9873571D01*
X8262143Y-9854524D01*
X8271667Y-9845000D01*
X8290714Y-9835476D01*
X8443095Y-10016429D02*
X8452619Y-10025952D01*
X8443095Y-10035476D01*
X8433571Y-10025952D01*
X8443095Y-10016429D01*
X8443095Y-10035476D01*
X8519286Y-9835476D02*
X8643095Y-9835476D01*
X8576429Y-9911667D01*
X8605000Y-9911667D01*
X8624048Y-9921190D01*
X8633571Y-9930714D01*
X8643095Y-9949762D01*
X8643095Y-9997381D01*
X8633571Y-10016429D01*
X8624048Y-10025952D01*
X8605000Y-10035476D01*
X8547857Y-10035476D01*
X8528810Y-10025952D01*
X8519286Y-10016429D01*
X8766905Y-9835476D02*
X8785952Y-9835476D01*
X8805000Y-9845000D01*
X8814524Y-9854524D01*
X8824048Y-9873571D01*
X8833571Y-9911667D01*
X8833571Y-9959286D01*
X8824048Y-9997381D01*
X8814524Y-10016429D01*
X8805000Y-10025952D01*
X8785952Y-10035476D01*
X8766905Y-10035476D01*
X8747857Y-10025952D01*
X8738333Y-10016429D01*
X8728810Y-9997381D01*
X8719286Y-9959286D01*
X8719286Y-9911667D01*
X8728810Y-9873571D01*
X8738333Y-9854524D01*
X8747857Y-9845000D01*
X8766905Y-9835476D01*
X8957381Y-9835476D02*
X8976429Y-9835476D01*
X8995476Y-9845000D01*
X9005000Y-9854524D01*
X9014524Y-9873571D01*
X9024048Y-9911667D01*
X9024048Y-9959286D01*
X9014524Y-9997381D01*
X9005000Y-10016429D01*
X8995476Y-10025952D01*
X8976429Y-10035476D01*
X8957381Y-10035476D01*
X8938333Y-10025952D01*
X8928810Y-10016429D01*
X8919286Y-9997381D01*
X8909762Y-9959286D01*
X8909762Y-9911667D01*
X8919286Y-9873571D01*
X8928810Y-9854524D01*
X8938333Y-9845000D01*
X8957381Y-9835476D01*
X9109762Y-10035476D02*
X9109762Y-9902143D01*
X9109762Y-9921190D02*
X9119286Y-9911667D01*
X9138333Y-9902143D01*
X9166905Y-9902143D01*
X9185952Y-9911667D01*
X9195476Y-9930714D01*
X9195476Y-10035476D01*
X9195476Y-9930714D02*
X9205000Y-9911667D01*
X9224048Y-9902143D01*
X9252619Y-9902143D01*
X9271667Y-9911667D01*
X9281190Y-9930714D01*
X9281190Y-10035476D01*
X9376429Y-10035476D02*
X9376429Y-9902143D01*
X9376429Y-9921190D02*
X9385952Y-9911667D01*
X9405000Y-9902143D01*
X9433571Y-9902143D01*
X9452619Y-9911667D01*
X9462143Y-9930714D01*
X9462143Y-10035476D01*
X9462143Y-9930714D02*
X9471667Y-9911667D01*
X9490714Y-9902143D01*
X9519286Y-9902143D01*
X9538333Y-9911667D01*
X9547857Y-9930714D01*
X9547857Y-10035476D01*
X9938333Y-9825952D02*
X9766905Y-10083095D01*
X10195476Y-9835476D02*
X10214524Y-9835476D01*
X10233571Y-9845000D01*
X10243095Y-9854524D01*
X10252619Y-9873571D01*
X10262143Y-9911667D01*
X10262143Y-9959286D01*
X10252619Y-9997381D01*
X10243095Y-10016429D01*
X10233571Y-10025952D01*
X10214524Y-10035476D01*
X10195476Y-10035476D01*
X10176429Y-10025952D01*
X10166905Y-10016429D01*
X10157381Y-9997381D01*
X10147857Y-9959286D01*
X10147857Y-9911667D01*
X10157381Y-9873571D01*
X10166905Y-9854524D01*
X10176429Y-9845000D01*
X10195476Y-9835476D01*
X10347857Y-10016429D02*
X10357381Y-10025952D01*
X10347857Y-10035476D01*
X10338333Y-10025952D01*
X10347857Y-10016429D01*
X10347857Y-10035476D01*
X10481190Y-9835476D02*
X10500238Y-9835476D01*
X10519286Y-9845000D01*
X10528810Y-9854524D01*
X10538333Y-9873571D01*
X10547857Y-9911667D01*
X10547857Y-9959286D01*
X10538333Y-9997381D01*
X10528810Y-10016429D01*
X10519286Y-10025952D01*
X10500238Y-10035476D01*
X10481190Y-10035476D01*
X10462143Y-10025952D01*
X10452619Y-10016429D01*
X10443095Y-9997381D01*
X10433571Y-9959286D01*
X10433571Y-9911667D01*
X10443095Y-9873571D01*
X10452619Y-9854524D01*
X10462143Y-9845000D01*
X10481190Y-9835476D01*
X10738333Y-10035476D02*
X10624048Y-10035476D01*
X10681190Y-10035476D02*
X10681190Y-9835476D01*
X10662143Y-9864048D01*
X10643095Y-9883095D01*
X10624048Y-9892619D01*
X10928810Y-10035476D02*
X10814524Y-10035476D01*
X10871667Y-10035476D02*
X10871667Y-9835476D01*
X10852619Y-9864048D01*
X10833571Y-9883095D01*
X10814524Y-9892619D01*
X11043095Y-9921190D02*
X11024048Y-9911667D01*
X11014524Y-9902143D01*
X11005000Y-9883095D01*
X11005000Y-9873571D01*
X11014524Y-9854524D01*
X11024048Y-9845000D01*
X11043095Y-9835476D01*
X11081190Y-9835476D01*
X11100238Y-9845000D01*
X11109762Y-9854524D01*
X11119286Y-9873571D01*
X11119286Y-9883095D01*
X11109762Y-9902143D01*
X11100238Y-9911667D01*
X11081190Y-9921190D01*
X11043095Y-9921190D01*
X11024048Y-9930714D01*
X11014524Y-9940238D01*
X11005000Y-9959286D01*
X11005000Y-9997381D01*
X11014524Y-10016429D01*
X11024048Y-10025952D01*
X11043095Y-10035476D01*
X11081190Y-10035476D01*
X11100238Y-10025952D01*
X11109762Y-10016429D01*
X11119286Y-9997381D01*
X11119286Y-9959286D01*
X11109762Y-9940238D01*
X11100238Y-9930714D01*
X11081190Y-9921190D01*
X11195476Y-9835476D02*
X11195476Y-9873571D01*
X11271667Y-9835476D02*
X11271667Y-9873571D01*
X11566905Y-10111667D02*
X11557381Y-10102143D01*
X11538333Y-10073571D01*
X11528809Y-10054524D01*
X11519286Y-10025952D01*
X11509762Y-9978333D01*
X11509762Y-9940238D01*
X11519286Y-9892619D01*
X11528809Y-9864048D01*
X11538333Y-9845000D01*
X11557381Y-9816429D01*
X11566905Y-9806905D01*
X11624048Y-9835476D02*
X11757381Y-9835476D01*
X11671667Y-10035476D01*
X11985952Y-10035476D02*
X11985952Y-9835476D01*
X12071667Y-10035476D02*
X12071667Y-9930714D01*
X12062143Y-9911667D01*
X12043095Y-9902143D01*
X12014524Y-9902143D01*
X11995476Y-9911667D01*
X11985952Y-9921190D01*
X12195476Y-10035476D02*
X12176428Y-10025952D01*
X12166905Y-10016429D01*
X12157381Y-9997381D01*
X12157381Y-9940238D01*
X12166905Y-9921190D01*
X12176428Y-9911667D01*
X12195476Y-9902143D01*
X12224048Y-9902143D01*
X12243095Y-9911667D01*
X12252619Y-9921190D01*
X12262143Y-9940238D01*
X12262143Y-9997381D01*
X12252619Y-10016429D01*
X12243095Y-10025952D01*
X12224048Y-10035476D01*
X12195476Y-10035476D01*
X12376428Y-10035476D02*
X12357381Y-10025952D01*
X12347857Y-10006905D01*
X12347857Y-9835476D01*
X12528809Y-10025952D02*
X12509762Y-10035476D01*
X12471667Y-10035476D01*
X12452619Y-10025952D01*
X12443095Y-10006905D01*
X12443095Y-9930714D01*
X12452619Y-9911667D01*
X12471667Y-9902143D01*
X12509762Y-9902143D01*
X12528809Y-9911667D01*
X12538333Y-9930714D01*
X12538333Y-9949762D01*
X12443095Y-9968810D01*
X12614524Y-10025952D02*
X12633571Y-10035476D01*
X12671667Y-10035476D01*
X12690714Y-10025952D01*
X12700238Y-10006905D01*
X12700238Y-9997381D01*
X12690714Y-9978333D01*
X12671667Y-9968810D01*
X12643095Y-9968810D01*
X12624048Y-9959286D01*
X12614524Y-9940238D01*
X12614524Y-9930714D01*
X12624048Y-9911667D01*
X12643095Y-9902143D01*
X12671667Y-9902143D01*
X12690714Y-9911667D01*
X12766905Y-10111667D02*
X12776428Y-10102143D01*
X12795476Y-10073571D01*
X12805000Y-10054524D01*
X12814524Y-10025952D01*
X12824048Y-9978333D01*
X12824048Y-9940238D01*
X12814524Y-9892619D01*
X12805000Y-9864048D01*
X12795476Y-9845000D01*
X12776428Y-9816429D01*
X12766905Y-9806905D01*
D13*
X7995000Y-10209000D02*
G75*
G03*
X7995000Y-10209000I-16530J0D01*
G01*
D11*
X8290714Y-10099476D02*
X8309762Y-10099476D01*
X8328809Y-10109000D01*
X8338333Y-10118524D01*
X8347857Y-10137571D01*
X8357381Y-10175667D01*
X8357381Y-10223286D01*
X8347857Y-10261381D01*
X8338333Y-10280429D01*
X8328809Y-10289952D01*
X8309762Y-10299476D01*
X8290714Y-10299476D01*
X8271667Y-10289952D01*
X8262143Y-10280429D01*
X8252619Y-10261381D01*
X8243095Y-10223286D01*
X8243095Y-10175667D01*
X8252619Y-10137571D01*
X8262143Y-10118524D01*
X8271667Y-10109000D01*
X8290714Y-10099476D01*
X8443095Y-10280429D02*
X8452619Y-10289952D01*
X8443095Y-10299476D01*
X8433571Y-10289952D01*
X8443095Y-10280429D01*
X8443095Y-10299476D01*
X8519286Y-10099476D02*
X8643095Y-10099476D01*
X8576429Y-10175667D01*
X8605000Y-10175667D01*
X8624048Y-10185190D01*
X8633571Y-10194714D01*
X8643095Y-10213762D01*
X8643095Y-10261381D01*
X8633571Y-10280429D01*
X8624048Y-10289952D01*
X8605000Y-10299476D01*
X8547857Y-10299476D01*
X8528810Y-10289952D01*
X8519286Y-10280429D01*
X8709762Y-10099476D02*
X8833571Y-10099476D01*
X8766905Y-10175667D01*
X8795476Y-10175667D01*
X8814524Y-10185190D01*
X8824048Y-10194714D01*
X8833571Y-10213762D01*
X8833571Y-10261381D01*
X8824048Y-10280429D01*
X8814524Y-10289952D01*
X8795476Y-10299476D01*
X8738333Y-10299476D01*
X8719286Y-10289952D01*
X8709762Y-10280429D01*
X9024048Y-10299476D02*
X8909762Y-10299476D01*
X8966905Y-10299476D02*
X8966905Y-10099476D01*
X8947857Y-10128048D01*
X8928810Y-10147095D01*
X8909762Y-10156619D01*
X9109762Y-10299476D02*
X9109762Y-10166143D01*
X9109762Y-10185190D02*
X9119286Y-10175667D01*
X9138333Y-10166143D01*
X9166905Y-10166143D01*
X9185952Y-10175667D01*
X9195476Y-10194714D01*
X9195476Y-10299476D01*
X9195476Y-10194714D02*
X9205000Y-10175667D01*
X9224048Y-10166143D01*
X9252619Y-10166143D01*
X9271667Y-10175667D01*
X9281190Y-10194714D01*
X9281190Y-10299476D01*
X9376429Y-10299476D02*
X9376429Y-10166143D01*
X9376429Y-10185190D02*
X9385952Y-10175667D01*
X9405000Y-10166143D01*
X9433571Y-10166143D01*
X9452619Y-10175667D01*
X9462143Y-10194714D01*
X9462143Y-10299476D01*
X9462143Y-10194714D02*
X9471667Y-10175667D01*
X9490714Y-10166143D01*
X9519286Y-10166143D01*
X9538333Y-10175667D01*
X9547857Y-10194714D01*
X9547857Y-10299476D01*
X9938333Y-10089952D02*
X9766905Y-10347095D01*
X10195476Y-10099476D02*
X10214524Y-10099476D01*
X10233571Y-10109000D01*
X10243095Y-10118524D01*
X10252619Y-10137571D01*
X10262143Y-10175667D01*
X10262143Y-10223286D01*
X10252619Y-10261381D01*
X10243095Y-10280429D01*
X10233571Y-10289952D01*
X10214524Y-10299476D01*
X10195476Y-10299476D01*
X10176429Y-10289952D01*
X10166905Y-10280429D01*
X10157381Y-10261381D01*
X10147857Y-10223286D01*
X10147857Y-10175667D01*
X10157381Y-10137571D01*
X10166905Y-10118524D01*
X10176429Y-10109000D01*
X10195476Y-10099476D01*
X10347857Y-10280429D02*
X10357381Y-10289952D01*
X10347857Y-10299476D01*
X10338333Y-10289952D01*
X10347857Y-10280429D01*
X10347857Y-10299476D01*
X10481190Y-10099476D02*
X10500238Y-10099476D01*
X10519286Y-10109000D01*
X10528810Y-10118524D01*
X10538333Y-10137571D01*
X10547857Y-10175667D01*
X10547857Y-10223286D01*
X10538333Y-10261381D01*
X10528810Y-10280429D01*
X10519286Y-10289952D01*
X10500238Y-10299476D01*
X10481190Y-10299476D01*
X10462143Y-10289952D01*
X10452619Y-10280429D01*
X10443095Y-10261381D01*
X10433571Y-10223286D01*
X10433571Y-10175667D01*
X10443095Y-10137571D01*
X10452619Y-10118524D01*
X10462143Y-10109000D01*
X10481190Y-10099476D01*
X10738333Y-10299476D02*
X10624048Y-10299476D01*
X10681190Y-10299476D02*
X10681190Y-10099476D01*
X10662143Y-10128048D01*
X10643095Y-10147095D01*
X10624048Y-10156619D01*
X10805000Y-10099476D02*
X10928810Y-10099476D01*
X10862143Y-10175667D01*
X10890714Y-10175667D01*
X10909762Y-10185190D01*
X10919286Y-10194714D01*
X10928810Y-10213762D01*
X10928810Y-10261381D01*
X10919286Y-10280429D01*
X10909762Y-10289952D01*
X10890714Y-10299476D01*
X10833571Y-10299476D01*
X10814524Y-10289952D01*
X10805000Y-10280429D01*
X11052619Y-10099476D02*
X11071667Y-10099476D01*
X11090714Y-10109000D01*
X11100238Y-10118524D01*
X11109762Y-10137571D01*
X11119286Y-10175667D01*
X11119286Y-10223286D01*
X11109762Y-10261381D01*
X11100238Y-10280429D01*
X11090714Y-10289952D01*
X11071667Y-10299476D01*
X11052619Y-10299476D01*
X11033571Y-10289952D01*
X11024048Y-10280429D01*
X11014524Y-10261381D01*
X11005000Y-10223286D01*
X11005000Y-10175667D01*
X11014524Y-10137571D01*
X11024048Y-10118524D01*
X11033571Y-10109000D01*
X11052619Y-10099476D01*
X11195476Y-10099476D02*
X11195476Y-10137571D01*
X11271667Y-10099476D02*
X11271667Y-10137571D01*
X11566905Y-10375667D02*
X11557381Y-10366143D01*
X11538333Y-10337571D01*
X11528809Y-10318524D01*
X11519286Y-10289952D01*
X11509762Y-10242333D01*
X11509762Y-10204238D01*
X11519286Y-10156619D01*
X11528809Y-10128048D01*
X11538333Y-10109000D01*
X11557381Y-10080429D01*
X11566905Y-10070905D01*
X11728809Y-10166143D02*
X11728809Y-10299476D01*
X11681190Y-10089952D02*
X11633571Y-10232810D01*
X11757381Y-10232810D01*
X11985952Y-10299476D02*
X11985952Y-10099476D01*
X12071667Y-10299476D02*
X12071667Y-10194714D01*
X12062143Y-10175667D01*
X12043095Y-10166143D01*
X12014524Y-10166143D01*
X11995476Y-10175667D01*
X11985952Y-10185190D01*
X12195476Y-10299476D02*
X12176428Y-10289952D01*
X12166905Y-10280429D01*
X12157381Y-10261381D01*
X12157381Y-10204238D01*
X12166905Y-10185190D01*
X12176428Y-10175667D01*
X12195476Y-10166143D01*
X12224048Y-10166143D01*
X12243095Y-10175667D01*
X12252619Y-10185190D01*
X12262143Y-10204238D01*
X12262143Y-10261381D01*
X12252619Y-10280429D01*
X12243095Y-10289952D01*
X12224048Y-10299476D01*
X12195476Y-10299476D01*
X12376428Y-10299476D02*
X12357381Y-10289952D01*
X12347857Y-10270905D01*
X12347857Y-10099476D01*
X12528809Y-10289952D02*
X12509762Y-10299476D01*
X12471667Y-10299476D01*
X12452619Y-10289952D01*
X12443095Y-10270905D01*
X12443095Y-10194714D01*
X12452619Y-10175667D01*
X12471667Y-10166143D01*
X12509762Y-10166143D01*
X12528809Y-10175667D01*
X12538333Y-10194714D01*
X12538333Y-10213762D01*
X12443095Y-10232810D01*
X12614524Y-10289952D02*
X12633571Y-10299476D01*
X12671667Y-10299476D01*
X12690714Y-10289952D01*
X12700238Y-10270905D01*
X12700238Y-10261381D01*
X12690714Y-10242333D01*
X12671667Y-10232810D01*
X12643095Y-10232810D01*
X12624048Y-10223286D01*
X12614524Y-10204238D01*
X12614524Y-10194714D01*
X12624048Y-10175667D01*
X12643095Y-10166143D01*
X12671667Y-10166143D01*
X12690714Y-10175667D01*
X12766905Y-10375667D02*
X12776428Y-10366143D01*
X12795476Y-10337571D01*
X12805000Y-10318524D01*
X12814524Y-10289952D01*
X12824048Y-10242333D01*
X12824048Y-10204238D01*
X12814524Y-10156619D01*
X12805000Y-10128048D01*
X12795476Y-10109000D01*
X12776428Y-10080429D01*
X12766905Y-10070905D01*
D14*
X7975000Y-10453000D02*
X7975000Y-10493000D01*
X7955000Y-10473000D02*
X7995000Y-10473000D01*
D11*
X8290714Y-10363476D02*
X8309762Y-10363476D01*
X8328809Y-10373000D01*
X8338333Y-10382524D01*
X8347857Y-10401571D01*
X8357381Y-10439667D01*
X8357381Y-10487286D01*
X8347857Y-10525381D01*
X8338333Y-10544429D01*
X8328809Y-10553952D01*
X8309762Y-10563476D01*
X8290714Y-10563476D01*
X8271667Y-10553952D01*
X8262143Y-10544429D01*
X8252619Y-10525381D01*
X8243095Y-10487286D01*
X8243095Y-10439667D01*
X8252619Y-10401571D01*
X8262143Y-10382524D01*
X8271667Y-10373000D01*
X8290714Y-10363476D01*
X8443095Y-10544429D02*
X8452619Y-10553952D01*
X8443095Y-10563476D01*
X8433571Y-10553952D01*
X8443095Y-10544429D01*
X8443095Y-10563476D01*
X8624048Y-10430143D02*
X8624048Y-10563476D01*
X8576429Y-10353952D02*
X8528810Y-10496810D01*
X8652619Y-10496810D01*
X8766905Y-10363476D02*
X8785952Y-10363476D01*
X8805000Y-10373000D01*
X8814524Y-10382524D01*
X8824048Y-10401571D01*
X8833571Y-10439667D01*
X8833571Y-10487286D01*
X8824048Y-10525381D01*
X8814524Y-10544429D01*
X8805000Y-10553952D01*
X8785952Y-10563476D01*
X8766905Y-10563476D01*
X8747857Y-10553952D01*
X8738333Y-10544429D01*
X8728810Y-10525381D01*
X8719286Y-10487286D01*
X8719286Y-10439667D01*
X8728810Y-10401571D01*
X8738333Y-10382524D01*
X8747857Y-10373000D01*
X8766905Y-10363476D01*
X8957381Y-10363476D02*
X8976429Y-10363476D01*
X8995476Y-10373000D01*
X9005000Y-10382524D01*
X9014524Y-10401571D01*
X9024048Y-10439667D01*
X9024048Y-10487286D01*
X9014524Y-10525381D01*
X9005000Y-10544429D01*
X8995476Y-10553952D01*
X8976429Y-10563476D01*
X8957381Y-10563476D01*
X8938333Y-10553952D01*
X8928810Y-10544429D01*
X8919286Y-10525381D01*
X8909762Y-10487286D01*
X8909762Y-10439667D01*
X8919286Y-10401571D01*
X8928810Y-10382524D01*
X8938333Y-10373000D01*
X8957381Y-10363476D01*
X9109762Y-10563476D02*
X9109762Y-10430143D01*
X9109762Y-10449190D02*
X9119286Y-10439667D01*
X9138333Y-10430143D01*
X9166905Y-10430143D01*
X9185952Y-10439667D01*
X9195476Y-10458714D01*
X9195476Y-10563476D01*
X9195476Y-10458714D02*
X9205000Y-10439667D01*
X9224048Y-10430143D01*
X9252619Y-10430143D01*
X9271667Y-10439667D01*
X9281190Y-10458714D01*
X9281190Y-10563476D01*
X9376429Y-10563476D02*
X9376429Y-10430143D01*
X9376429Y-10449190D02*
X9385952Y-10439667D01*
X9405000Y-10430143D01*
X9433571Y-10430143D01*
X9452619Y-10439667D01*
X9462143Y-10458714D01*
X9462143Y-10563476D01*
X9462143Y-10458714D02*
X9471667Y-10439667D01*
X9490714Y-10430143D01*
X9519286Y-10430143D01*
X9538333Y-10439667D01*
X9547857Y-10458714D01*
X9547857Y-10563476D01*
X9938333Y-10353952D02*
X9766905Y-10611095D01*
X10195476Y-10363476D02*
X10214524Y-10363476D01*
X10233571Y-10373000D01*
X10243095Y-10382524D01*
X10252619Y-10401571D01*
X10262143Y-10439667D01*
X10262143Y-10487286D01*
X10252619Y-10525381D01*
X10243095Y-10544429D01*
X10233571Y-10553952D01*
X10214524Y-10563476D01*
X10195476Y-10563476D01*
X10176429Y-10553952D01*
X10166905Y-10544429D01*
X10157381Y-10525381D01*
X10147857Y-10487286D01*
X10147857Y-10439667D01*
X10157381Y-10401571D01*
X10166905Y-10382524D01*
X10176429Y-10373000D01*
X10195476Y-10363476D01*
X10347857Y-10544429D02*
X10357381Y-10553952D01*
X10347857Y-10563476D01*
X10338333Y-10553952D01*
X10347857Y-10544429D01*
X10347857Y-10563476D01*
X10481190Y-10363476D02*
X10500238Y-10363476D01*
X10519286Y-10373000D01*
X10528810Y-10382524D01*
X10538333Y-10401571D01*
X10547857Y-10439667D01*
X10547857Y-10487286D01*
X10538333Y-10525381D01*
X10528810Y-10544429D01*
X10519286Y-10553952D01*
X10500238Y-10563476D01*
X10481190Y-10563476D01*
X10462143Y-10553952D01*
X10452619Y-10544429D01*
X10443095Y-10525381D01*
X10433571Y-10487286D01*
X10433571Y-10439667D01*
X10443095Y-10401571D01*
X10452619Y-10382524D01*
X10462143Y-10373000D01*
X10481190Y-10363476D01*
X10738333Y-10563476D02*
X10624048Y-10563476D01*
X10681190Y-10563476D02*
X10681190Y-10363476D01*
X10662143Y-10392048D01*
X10643095Y-10411095D01*
X10624048Y-10420619D01*
X10919286Y-10363476D02*
X10824048Y-10363476D01*
X10814524Y-10458714D01*
X10824048Y-10449190D01*
X10843095Y-10439667D01*
X10890714Y-10439667D01*
X10909762Y-10449190D01*
X10919286Y-10458714D01*
X10928810Y-10477762D01*
X10928810Y-10525381D01*
X10919286Y-10544429D01*
X10909762Y-10553952D01*
X10890714Y-10563476D01*
X10843095Y-10563476D01*
X10824048Y-10553952D01*
X10814524Y-10544429D01*
X10995476Y-10363476D02*
X11128810Y-10363476D01*
X11043095Y-10563476D01*
X11195476Y-10363476D02*
X11195476Y-10401571D01*
X11271667Y-10363476D02*
X11271667Y-10401571D01*
X11566905Y-10639667D02*
X11557381Y-10630143D01*
X11538333Y-10601571D01*
X11528809Y-10582524D01*
X11519286Y-10553952D01*
X11509762Y-10506333D01*
X11509762Y-10468238D01*
X11519286Y-10420619D01*
X11528809Y-10392048D01*
X11538333Y-10373000D01*
X11557381Y-10344429D01*
X11566905Y-10334905D01*
X11633571Y-10382524D02*
X11643095Y-10373000D01*
X11662143Y-10363476D01*
X11709762Y-10363476D01*
X11728809Y-10373000D01*
X11738333Y-10382524D01*
X11747857Y-10401571D01*
X11747857Y-10420619D01*
X11738333Y-10449190D01*
X11624048Y-10563476D01*
X11747857Y-10563476D01*
X11938333Y-10563476D02*
X11824048Y-10563476D01*
X11881190Y-10563476D02*
X11881190Y-10363476D01*
X11862143Y-10392048D01*
X11843095Y-10411095D01*
X11824048Y-10420619D01*
X12005000Y-10363476D02*
X12138333Y-10363476D01*
X12052619Y-10563476D01*
X12366905Y-10563476D02*
X12366905Y-10363476D01*
X12452619Y-10563476D02*
X12452619Y-10458714D01*
X12443095Y-10439667D01*
X12424048Y-10430143D01*
X12395476Y-10430143D01*
X12376428Y-10439667D01*
X12366905Y-10449190D01*
X12576428Y-10563476D02*
X12557381Y-10553952D01*
X12547857Y-10544429D01*
X12538333Y-10525381D01*
X12538333Y-10468238D01*
X12547857Y-10449190D01*
X12557381Y-10439667D01*
X12576428Y-10430143D01*
X12605000Y-10430143D01*
X12624048Y-10439667D01*
X12633571Y-10449190D01*
X12643095Y-10468238D01*
X12643095Y-10525381D01*
X12633571Y-10544429D01*
X12624048Y-10553952D01*
X12605000Y-10563476D01*
X12576428Y-10563476D01*
X12757381Y-10563476D02*
X12738333Y-10553952D01*
X12728809Y-10534905D01*
X12728809Y-10363476D01*
X12909762Y-10553952D02*
X12890714Y-10563476D01*
X12852619Y-10563476D01*
X12833571Y-10553952D01*
X12824048Y-10534905D01*
X12824048Y-10458714D01*
X12833571Y-10439667D01*
X12852619Y-10430143D01*
X12890714Y-10430143D01*
X12909762Y-10439667D01*
X12919286Y-10458714D01*
X12919286Y-10477762D01*
X12824048Y-10496810D01*
X12995476Y-10553952D02*
X13014524Y-10563476D01*
X13052619Y-10563476D01*
X13071667Y-10553952D01*
X13081190Y-10534905D01*
X13081190Y-10525381D01*
X13071667Y-10506333D01*
X13052619Y-10496810D01*
X13024048Y-10496810D01*
X13005000Y-10487286D01*
X12995476Y-10468238D01*
X12995476Y-10458714D01*
X13005000Y-10439667D01*
X13024048Y-10430143D01*
X13052619Y-10430143D01*
X13071667Y-10439667D01*
X13147857Y-10639667D02*
X13157381Y-10630143D01*
X13176428Y-10601571D01*
X13185952Y-10582524D01*
X13195476Y-10553952D01*
X13205000Y-10506333D01*
X13205000Y-10468238D01*
X13195476Y-10420619D01*
X13185952Y-10392048D01*
X13176428Y-10373000D01*
X13157381Y-10344429D01*
X13147857Y-10334905D01*
D15*
X7987678Y-10754678D02*
X7987678Y-10719322D01*
X7952322Y-10719322D01*
X7952322Y-10754678D01*
X7987678Y-10754678D01*
D11*
X8290714Y-10627476D02*
X8309762Y-10627476D01*
X8328809Y-10637000D01*
X8338333Y-10646524D01*
X8347857Y-10665571D01*
X8357381Y-10703667D01*
X8357381Y-10751286D01*
X8347857Y-10789381D01*
X8338333Y-10808429D01*
X8328809Y-10817952D01*
X8309762Y-10827476D01*
X8290714Y-10827476D01*
X8271667Y-10817952D01*
X8262143Y-10808429D01*
X8252619Y-10789381D01*
X8243095Y-10751286D01*
X8243095Y-10703667D01*
X8252619Y-10665571D01*
X8262143Y-10646524D01*
X8271667Y-10637000D01*
X8290714Y-10627476D01*
X8443095Y-10808429D02*
X8452619Y-10817952D01*
X8443095Y-10827476D01*
X8433571Y-10817952D01*
X8443095Y-10808429D01*
X8443095Y-10827476D01*
X8633571Y-10627476D02*
X8538333Y-10627476D01*
X8528810Y-10722714D01*
X8538333Y-10713190D01*
X8557381Y-10703667D01*
X8605000Y-10703667D01*
X8624048Y-10713190D01*
X8633571Y-10722714D01*
X8643095Y-10741762D01*
X8643095Y-10789381D01*
X8633571Y-10808429D01*
X8624048Y-10817952D01*
X8605000Y-10827476D01*
X8557381Y-10827476D01*
X8538333Y-10817952D01*
X8528810Y-10808429D01*
X8766905Y-10627476D02*
X8785952Y-10627476D01*
X8805000Y-10637000D01*
X8814524Y-10646524D01*
X8824048Y-10665571D01*
X8833571Y-10703667D01*
X8833571Y-10751286D01*
X8824048Y-10789381D01*
X8814524Y-10808429D01*
X8805000Y-10817952D01*
X8785952Y-10827476D01*
X8766905Y-10827476D01*
X8747857Y-10817952D01*
X8738333Y-10808429D01*
X8728810Y-10789381D01*
X8719286Y-10751286D01*
X8719286Y-10703667D01*
X8728810Y-10665571D01*
X8738333Y-10646524D01*
X8747857Y-10637000D01*
X8766905Y-10627476D01*
X8957381Y-10627476D02*
X8976429Y-10627476D01*
X8995476Y-10637000D01*
X9005000Y-10646524D01*
X9014524Y-10665571D01*
X9024048Y-10703667D01*
X9024048Y-10751286D01*
X9014524Y-10789381D01*
X9005000Y-10808429D01*
X8995476Y-10817952D01*
X8976429Y-10827476D01*
X8957381Y-10827476D01*
X8938333Y-10817952D01*
X8928810Y-10808429D01*
X8919286Y-10789381D01*
X8909762Y-10751286D01*
X8909762Y-10703667D01*
X8919286Y-10665571D01*
X8928810Y-10646524D01*
X8938333Y-10637000D01*
X8957381Y-10627476D01*
X9109762Y-10827476D02*
X9109762Y-10694143D01*
X9109762Y-10713190D02*
X9119286Y-10703667D01*
X9138333Y-10694143D01*
X9166905Y-10694143D01*
X9185952Y-10703667D01*
X9195476Y-10722714D01*
X9195476Y-10827476D01*
X9195476Y-10722714D02*
X9205000Y-10703667D01*
X9224048Y-10694143D01*
X9252619Y-10694143D01*
X9271667Y-10703667D01*
X9281190Y-10722714D01*
X9281190Y-10827476D01*
X9376429Y-10827476D02*
X9376429Y-10694143D01*
X9376429Y-10713190D02*
X9385952Y-10703667D01*
X9405000Y-10694143D01*
X9433571Y-10694143D01*
X9452619Y-10703667D01*
X9462143Y-10722714D01*
X9462143Y-10827476D01*
X9462143Y-10722714D02*
X9471667Y-10703667D01*
X9490714Y-10694143D01*
X9519286Y-10694143D01*
X9538333Y-10703667D01*
X9547857Y-10722714D01*
X9547857Y-10827476D01*
X9938333Y-10617952D02*
X9766905Y-10875095D01*
X10195476Y-10627476D02*
X10214524Y-10627476D01*
X10233571Y-10637000D01*
X10243095Y-10646524D01*
X10252619Y-10665571D01*
X10262143Y-10703667D01*
X10262143Y-10751286D01*
X10252619Y-10789381D01*
X10243095Y-10808429D01*
X10233571Y-10817952D01*
X10214524Y-10827476D01*
X10195476Y-10827476D01*
X10176429Y-10817952D01*
X10166905Y-10808429D01*
X10157381Y-10789381D01*
X10147857Y-10751286D01*
X10147857Y-10703667D01*
X10157381Y-10665571D01*
X10166905Y-10646524D01*
X10176429Y-10637000D01*
X10195476Y-10627476D01*
X10347857Y-10808429D02*
X10357381Y-10817952D01*
X10347857Y-10827476D01*
X10338333Y-10817952D01*
X10347857Y-10808429D01*
X10347857Y-10827476D01*
X10481190Y-10627476D02*
X10500238Y-10627476D01*
X10519286Y-10637000D01*
X10528810Y-10646524D01*
X10538333Y-10665571D01*
X10547857Y-10703667D01*
X10547857Y-10751286D01*
X10538333Y-10789381D01*
X10528810Y-10808429D01*
X10519286Y-10817952D01*
X10500238Y-10827476D01*
X10481190Y-10827476D01*
X10462143Y-10817952D01*
X10452619Y-10808429D01*
X10443095Y-10789381D01*
X10433571Y-10751286D01*
X10433571Y-10703667D01*
X10443095Y-10665571D01*
X10452619Y-10646524D01*
X10462143Y-10637000D01*
X10481190Y-10627476D01*
X10738333Y-10827476D02*
X10624048Y-10827476D01*
X10681190Y-10827476D02*
X10681190Y-10627476D01*
X10662143Y-10656048D01*
X10643095Y-10675095D01*
X10624048Y-10684619D01*
X10833571Y-10827476D02*
X10871667Y-10827476D01*
X10890714Y-10817952D01*
X10900238Y-10808429D01*
X10919286Y-10779857D01*
X10928810Y-10741762D01*
X10928810Y-10665571D01*
X10919286Y-10646524D01*
X10909762Y-10637000D01*
X10890714Y-10627476D01*
X10852619Y-10627476D01*
X10833571Y-10637000D01*
X10824048Y-10646524D01*
X10814524Y-10665571D01*
X10814524Y-10713190D01*
X10824048Y-10732238D01*
X10833571Y-10741762D01*
X10852619Y-10751286D01*
X10890714Y-10751286D01*
X10909762Y-10741762D01*
X10919286Y-10732238D01*
X10928810Y-10713190D01*
X10995476Y-10627476D02*
X11128810Y-10627476D01*
X11043095Y-10827476D01*
X11195476Y-10627476D02*
X11195476Y-10665571D01*
X11271667Y-10627476D02*
X11271667Y-10665571D01*
X11566905Y-10903667D02*
X11557381Y-10894143D01*
X11538333Y-10865571D01*
X11528809Y-10846524D01*
X11519286Y-10817952D01*
X11509762Y-10770333D01*
X11509762Y-10732238D01*
X11519286Y-10684619D01*
X11528809Y-10656048D01*
X11538333Y-10637000D01*
X11557381Y-10608429D01*
X11566905Y-10598905D01*
X11728809Y-10627476D02*
X11690714Y-10627476D01*
X11671667Y-10637000D01*
X11662143Y-10646524D01*
X11643095Y-10675095D01*
X11633571Y-10713190D01*
X11633571Y-10789381D01*
X11643095Y-10808429D01*
X11652619Y-10817952D01*
X11671667Y-10827476D01*
X11709762Y-10827476D01*
X11728809Y-10817952D01*
X11738333Y-10808429D01*
X11747857Y-10789381D01*
X11747857Y-10741762D01*
X11738333Y-10722714D01*
X11728809Y-10713190D01*
X11709762Y-10703667D01*
X11671667Y-10703667D01*
X11652619Y-10713190D01*
X11643095Y-10722714D01*
X11633571Y-10741762D01*
X11985952Y-10827476D02*
X11985952Y-10627476D01*
X12071667Y-10827476D02*
X12071667Y-10722714D01*
X12062143Y-10703667D01*
X12043095Y-10694143D01*
X12014524Y-10694143D01*
X11995476Y-10703667D01*
X11985952Y-10713190D01*
X12195476Y-10827476D02*
X12176428Y-10817952D01*
X12166905Y-10808429D01*
X12157381Y-10789381D01*
X12157381Y-10732238D01*
X12166905Y-10713190D01*
X12176428Y-10703667D01*
X12195476Y-10694143D01*
X12224048Y-10694143D01*
X12243095Y-10703667D01*
X12252619Y-10713190D01*
X12262143Y-10732238D01*
X12262143Y-10789381D01*
X12252619Y-10808429D01*
X12243095Y-10817952D01*
X12224048Y-10827476D01*
X12195476Y-10827476D01*
X12376428Y-10827476D02*
X12357381Y-10817952D01*
X12347857Y-10798905D01*
X12347857Y-10627476D01*
X12528809Y-10817952D02*
X12509762Y-10827476D01*
X12471667Y-10827476D01*
X12452619Y-10817952D01*
X12443095Y-10798905D01*
X12443095Y-10722714D01*
X12452619Y-10703667D01*
X12471667Y-10694143D01*
X12509762Y-10694143D01*
X12528809Y-10703667D01*
X12538333Y-10722714D01*
X12538333Y-10741762D01*
X12443095Y-10760810D01*
X12614524Y-10817952D02*
X12633571Y-10827476D01*
X12671667Y-10827476D01*
X12690714Y-10817952D01*
X12700238Y-10798905D01*
X12700238Y-10789381D01*
X12690714Y-10770333D01*
X12671667Y-10760810D01*
X12643095Y-10760810D01*
X12624048Y-10751286D01*
X12614524Y-10732238D01*
X12614524Y-10722714D01*
X12624048Y-10703667D01*
X12643095Y-10694143D01*
X12671667Y-10694143D01*
X12690714Y-10703667D01*
X12766905Y-10903667D02*
X12776428Y-10894143D01*
X12795476Y-10865571D01*
X12805000Y-10846524D01*
X12814524Y-10817952D01*
X12824048Y-10770333D01*
X12824048Y-10732238D01*
X12814524Y-10684619D01*
X12805000Y-10656048D01*
X12795476Y-10637000D01*
X12776428Y-10608429D01*
X12766905Y-10598905D01*
D16*
X7945000Y-11051000D02*
X7995000Y-11001000D01*
X7945000Y-10951000D01*
X7895000Y-11001000D01*
X7945000Y-11051000D01*
D11*
X8357381Y-11091476D02*
X8243095Y-11091476D01*
X8300238Y-11091476D02*
X8300238Y-10891476D01*
X8281190Y-10920048D01*
X8262143Y-10939095D01*
X8243095Y-10948619D01*
X8443095Y-11072429D02*
X8452619Y-11081952D01*
X8443095Y-11091476D01*
X8433571Y-11081952D01*
X8443095Y-11072429D01*
X8443095Y-11091476D01*
X8576429Y-10891476D02*
X8595476Y-10891476D01*
X8614524Y-10901000D01*
X8624048Y-10910524D01*
X8633571Y-10929571D01*
X8643095Y-10967667D01*
X8643095Y-11015286D01*
X8633571Y-11053381D01*
X8624048Y-11072429D01*
X8614524Y-11081952D01*
X8595476Y-11091476D01*
X8576429Y-11091476D01*
X8557381Y-11081952D01*
X8547857Y-11072429D01*
X8538333Y-11053381D01*
X8528810Y-11015286D01*
X8528810Y-10967667D01*
X8538333Y-10929571D01*
X8547857Y-10910524D01*
X8557381Y-10901000D01*
X8576429Y-10891476D01*
X8766905Y-10891476D02*
X8785952Y-10891476D01*
X8805000Y-10901000D01*
X8814524Y-10910524D01*
X8824048Y-10929571D01*
X8833571Y-10967667D01*
X8833571Y-11015286D01*
X8824048Y-11053381D01*
X8814524Y-11072429D01*
X8805000Y-11081952D01*
X8785952Y-11091476D01*
X8766905Y-11091476D01*
X8747857Y-11081952D01*
X8738333Y-11072429D01*
X8728810Y-11053381D01*
X8719286Y-11015286D01*
X8719286Y-10967667D01*
X8728810Y-10929571D01*
X8738333Y-10910524D01*
X8747857Y-10901000D01*
X8766905Y-10891476D01*
X8957381Y-10891476D02*
X8976429Y-10891476D01*
X8995476Y-10901000D01*
X9005000Y-10910524D01*
X9014524Y-10929571D01*
X9024048Y-10967667D01*
X9024048Y-11015286D01*
X9014524Y-11053381D01*
X9005000Y-11072429D01*
X8995476Y-11081952D01*
X8976429Y-11091476D01*
X8957381Y-11091476D01*
X8938333Y-11081952D01*
X8928810Y-11072429D01*
X8919286Y-11053381D01*
X8909762Y-11015286D01*
X8909762Y-10967667D01*
X8919286Y-10929571D01*
X8928810Y-10910524D01*
X8938333Y-10901000D01*
X8957381Y-10891476D01*
X9109762Y-11091476D02*
X9109762Y-10958143D01*
X9109762Y-10977190D02*
X9119286Y-10967667D01*
X9138333Y-10958143D01*
X9166905Y-10958143D01*
X9185952Y-10967667D01*
X9195476Y-10986714D01*
X9195476Y-11091476D01*
X9195476Y-10986714D02*
X9205000Y-10967667D01*
X9224048Y-10958143D01*
X9252619Y-10958143D01*
X9271667Y-10967667D01*
X9281190Y-10986714D01*
X9281190Y-11091476D01*
X9376429Y-11091476D02*
X9376429Y-10958143D01*
X9376429Y-10977190D02*
X9385952Y-10967667D01*
X9405000Y-10958143D01*
X9433571Y-10958143D01*
X9452619Y-10967667D01*
X9462143Y-10986714D01*
X9462143Y-11091476D01*
X9462143Y-10986714D02*
X9471667Y-10967667D01*
X9490714Y-10958143D01*
X9519286Y-10958143D01*
X9538333Y-10967667D01*
X9547857Y-10986714D01*
X9547857Y-11091476D01*
X9938333Y-10881952D02*
X9766905Y-11139095D01*
X10195476Y-10891476D02*
X10214524Y-10891476D01*
X10233571Y-10901000D01*
X10243095Y-10910524D01*
X10252619Y-10929571D01*
X10262143Y-10967667D01*
X10262143Y-11015286D01*
X10252619Y-11053381D01*
X10243095Y-11072429D01*
X10233571Y-11081952D01*
X10214524Y-11091476D01*
X10195476Y-11091476D01*
X10176429Y-11081952D01*
X10166905Y-11072429D01*
X10157381Y-11053381D01*
X10147857Y-11015286D01*
X10147857Y-10967667D01*
X10157381Y-10929571D01*
X10166905Y-10910524D01*
X10176429Y-10901000D01*
X10195476Y-10891476D01*
X10347857Y-11072429D02*
X10357381Y-11081952D01*
X10347857Y-11091476D01*
X10338333Y-11081952D01*
X10347857Y-11072429D01*
X10347857Y-11091476D01*
X10481190Y-10891476D02*
X10500238Y-10891476D01*
X10519286Y-10901000D01*
X10528810Y-10910524D01*
X10538333Y-10929571D01*
X10547857Y-10967667D01*
X10547857Y-11015286D01*
X10538333Y-11053381D01*
X10528810Y-11072429D01*
X10519286Y-11081952D01*
X10500238Y-11091476D01*
X10481190Y-11091476D01*
X10462143Y-11081952D01*
X10452619Y-11072429D01*
X10443095Y-11053381D01*
X10433571Y-11015286D01*
X10433571Y-10967667D01*
X10443095Y-10929571D01*
X10452619Y-10910524D01*
X10462143Y-10901000D01*
X10481190Y-10891476D01*
X10614524Y-10891476D02*
X10738333Y-10891476D01*
X10671667Y-10967667D01*
X10700238Y-10967667D01*
X10719286Y-10977190D01*
X10728810Y-10986714D01*
X10738333Y-11005762D01*
X10738333Y-11053381D01*
X10728810Y-11072429D01*
X10719286Y-11081952D01*
X10700238Y-11091476D01*
X10643095Y-11091476D01*
X10624048Y-11081952D01*
X10614524Y-11072429D01*
X10833571Y-11091476D02*
X10871667Y-11091476D01*
X10890714Y-11081952D01*
X10900238Y-11072429D01*
X10919286Y-11043857D01*
X10928810Y-11005762D01*
X10928810Y-10929571D01*
X10919286Y-10910524D01*
X10909762Y-10901000D01*
X10890714Y-10891476D01*
X10852619Y-10891476D01*
X10833571Y-10901000D01*
X10824048Y-10910524D01*
X10814524Y-10929571D01*
X10814524Y-10977190D01*
X10824048Y-10996238D01*
X10833571Y-11005762D01*
X10852619Y-11015286D01*
X10890714Y-11015286D01*
X10909762Y-11005762D01*
X10919286Y-10996238D01*
X10928810Y-10977190D01*
X11100238Y-10958143D02*
X11100238Y-11091476D01*
X11052619Y-10881952D02*
X11005000Y-11024810D01*
X11128810Y-11024810D01*
X11195476Y-10891476D02*
X11195476Y-10929571D01*
X11271667Y-10891476D02*
X11271667Y-10929571D01*
X11566905Y-11167667D02*
X11557381Y-11158143D01*
X11538333Y-11129571D01*
X11528809Y-11110524D01*
X11519286Y-11081952D01*
X11509762Y-11034333D01*
X11509762Y-10996238D01*
X11519286Y-10948619D01*
X11528809Y-10920048D01*
X11538333Y-10901000D01*
X11557381Y-10872429D01*
X11566905Y-10862905D01*
X11633571Y-10910524D02*
X11643095Y-10901000D01*
X11662143Y-10891476D01*
X11709762Y-10891476D01*
X11728809Y-10901000D01*
X11738333Y-10910524D01*
X11747857Y-10929571D01*
X11747857Y-10948619D01*
X11738333Y-10977190D01*
X11624048Y-11091476D01*
X11747857Y-11091476D01*
X11871667Y-10891476D02*
X11890714Y-10891476D01*
X11909762Y-10901000D01*
X11919286Y-10910524D01*
X11928809Y-10929571D01*
X11938333Y-10967667D01*
X11938333Y-11015286D01*
X11928809Y-11053381D01*
X11919286Y-11072429D01*
X11909762Y-11081952D01*
X11890714Y-11091476D01*
X11871667Y-11091476D01*
X11852619Y-11081952D01*
X11843095Y-11072429D01*
X11833571Y-11053381D01*
X11824048Y-11015286D01*
X11824048Y-10967667D01*
X11833571Y-10929571D01*
X11843095Y-10910524D01*
X11852619Y-10901000D01*
X11871667Y-10891476D01*
X12176428Y-11091476D02*
X12176428Y-10891476D01*
X12262143Y-11091476D02*
X12262143Y-10986714D01*
X12252619Y-10967667D01*
X12233571Y-10958143D01*
X12205000Y-10958143D01*
X12185952Y-10967667D01*
X12176428Y-10977190D01*
X12385952Y-11091476D02*
X12366905Y-11081952D01*
X12357381Y-11072429D01*
X12347857Y-11053381D01*
X12347857Y-10996238D01*
X12357381Y-10977190D01*
X12366905Y-10967667D01*
X12385952Y-10958143D01*
X12414524Y-10958143D01*
X12433571Y-10967667D01*
X12443095Y-10977190D01*
X12452619Y-10996238D01*
X12452619Y-11053381D01*
X12443095Y-11072429D01*
X12433571Y-11081952D01*
X12414524Y-11091476D01*
X12385952Y-11091476D01*
X12566905Y-11091476D02*
X12547857Y-11081952D01*
X12538333Y-11062905D01*
X12538333Y-10891476D01*
X12719286Y-11081952D02*
X12700238Y-11091476D01*
X12662143Y-11091476D01*
X12643095Y-11081952D01*
X12633571Y-11062905D01*
X12633571Y-10986714D01*
X12643095Y-10967667D01*
X12662143Y-10958143D01*
X12700238Y-10958143D01*
X12719286Y-10967667D01*
X12728809Y-10986714D01*
X12728809Y-11005762D01*
X12633571Y-11024810D01*
X12805000Y-11081952D02*
X12824048Y-11091476D01*
X12862143Y-11091476D01*
X12881190Y-11081952D01*
X12890714Y-11062905D01*
X12890714Y-11053381D01*
X12881190Y-11034333D01*
X12862143Y-11024810D01*
X12833571Y-11024810D01*
X12814524Y-11015286D01*
X12805000Y-10996238D01*
X12805000Y-10986714D01*
X12814524Y-10967667D01*
X12833571Y-10958143D01*
X12862143Y-10958143D01*
X12881190Y-10967667D01*
X12957381Y-11167667D02*
X12966905Y-11158143D01*
X12985952Y-11129571D01*
X12995476Y-11110524D01*
X13005000Y-11081952D01*
X13014524Y-11034333D01*
X13014524Y-10996238D01*
X13005000Y-10948619D01*
X12995476Y-10920048D01*
X12985952Y-10901000D01*
X12966905Y-10872429D01*
X12957381Y-10862905D01*
D17*
X7885000Y-11210000D02*
X7995000Y-11320000D01*
X7995000Y-11210000D02*
X7885000Y-11320000D01*
X7995000Y-11265000D02*
G75*
G03*
X7995000Y-11265000I-55000J0D01*
G01*
D11*
X8357381Y-11355476D02*
X8243095Y-11355476D01*
X8300238Y-11355476D02*
X8300238Y-11155476D01*
X8281190Y-11184048D01*
X8262143Y-11203095D01*
X8243095Y-11212619D01*
X8443095Y-11336428D02*
X8452619Y-11345952D01*
X8443095Y-11355476D01*
X8433571Y-11345952D01*
X8443095Y-11336428D01*
X8443095Y-11355476D01*
X8643095Y-11355476D02*
X8528810Y-11355476D01*
X8585952Y-11355476D02*
X8585952Y-11155476D01*
X8566905Y-11184048D01*
X8547857Y-11203095D01*
X8528810Y-11212619D01*
X8766905Y-11155476D02*
X8785952Y-11155476D01*
X8805000Y-11165000D01*
X8814524Y-11174524D01*
X8824048Y-11193571D01*
X8833571Y-11231667D01*
X8833571Y-11279286D01*
X8824048Y-11317381D01*
X8814524Y-11336428D01*
X8805000Y-11345952D01*
X8785952Y-11355476D01*
X8766905Y-11355476D01*
X8747857Y-11345952D01*
X8738333Y-11336428D01*
X8728810Y-11317381D01*
X8719286Y-11279286D01*
X8719286Y-11231667D01*
X8728810Y-11193571D01*
X8738333Y-11174524D01*
X8747857Y-11165000D01*
X8766905Y-11155476D01*
X8957381Y-11155476D02*
X8976429Y-11155476D01*
X8995476Y-11165000D01*
X9005000Y-11174524D01*
X9014524Y-11193571D01*
X9024048Y-11231667D01*
X9024048Y-11279286D01*
X9014524Y-11317381D01*
X9005000Y-11336428D01*
X8995476Y-11345952D01*
X8976429Y-11355476D01*
X8957381Y-11355476D01*
X8938333Y-11345952D01*
X8928810Y-11336428D01*
X8919286Y-11317381D01*
X8909762Y-11279286D01*
X8909762Y-11231667D01*
X8919286Y-11193571D01*
X8928810Y-11174524D01*
X8938333Y-11165000D01*
X8957381Y-11155476D01*
X9109762Y-11355476D02*
X9109762Y-11222143D01*
X9109762Y-11241190D02*
X9119286Y-11231667D01*
X9138333Y-11222143D01*
X9166905Y-11222143D01*
X9185952Y-11231667D01*
X9195476Y-11250714D01*
X9195476Y-11355476D01*
X9195476Y-11250714D02*
X9205000Y-11231667D01*
X9224048Y-11222143D01*
X9252619Y-11222143D01*
X9271667Y-11231667D01*
X9281190Y-11250714D01*
X9281190Y-11355476D01*
X9376429Y-11355476D02*
X9376429Y-11222143D01*
X9376429Y-11241190D02*
X9385952Y-11231667D01*
X9405000Y-11222143D01*
X9433571Y-11222143D01*
X9452619Y-11231667D01*
X9462143Y-11250714D01*
X9462143Y-11355476D01*
X9462143Y-11250714D02*
X9471667Y-11231667D01*
X9490714Y-11222143D01*
X9519286Y-11222143D01*
X9538333Y-11231667D01*
X9547857Y-11250714D01*
X9547857Y-11355476D01*
X9938333Y-11145952D02*
X9766905Y-11403095D01*
X10195476Y-11155476D02*
X10214524Y-11155476D01*
X10233571Y-11165000D01*
X10243095Y-11174524D01*
X10252619Y-11193571D01*
X10262143Y-11231667D01*
X10262143Y-11279286D01*
X10252619Y-11317381D01*
X10243095Y-11336428D01*
X10233571Y-11345952D01*
X10214524Y-11355476D01*
X10195476Y-11355476D01*
X10176429Y-11345952D01*
X10166905Y-11336428D01*
X10157381Y-11317381D01*
X10147857Y-11279286D01*
X10147857Y-11231667D01*
X10157381Y-11193571D01*
X10166905Y-11174524D01*
X10176429Y-11165000D01*
X10195476Y-11155476D01*
X10347857Y-11336428D02*
X10357381Y-11345952D01*
X10347857Y-11355476D01*
X10338333Y-11345952D01*
X10347857Y-11336428D01*
X10347857Y-11355476D01*
X10481190Y-11155476D02*
X10500238Y-11155476D01*
X10519286Y-11165000D01*
X10528810Y-11174524D01*
X10538333Y-11193571D01*
X10547857Y-11231667D01*
X10547857Y-11279286D01*
X10538333Y-11317381D01*
X10528810Y-11336428D01*
X10519286Y-11345952D01*
X10500238Y-11355476D01*
X10481190Y-11355476D01*
X10462143Y-11345952D01*
X10452619Y-11336428D01*
X10443095Y-11317381D01*
X10433571Y-11279286D01*
X10433571Y-11231667D01*
X10443095Y-11193571D01*
X10452619Y-11174524D01*
X10462143Y-11165000D01*
X10481190Y-11155476D01*
X10719286Y-11222143D02*
X10719286Y-11355476D01*
X10671667Y-11145952D02*
X10624048Y-11288809D01*
X10747857Y-11288809D01*
X10805000Y-11155476D02*
X10928810Y-11155476D01*
X10862143Y-11231667D01*
X10890714Y-11231667D01*
X10909762Y-11241190D01*
X10919286Y-11250714D01*
X10928810Y-11269762D01*
X10928810Y-11317381D01*
X10919286Y-11336428D01*
X10909762Y-11345952D01*
X10890714Y-11355476D01*
X10833571Y-11355476D01*
X10814524Y-11345952D01*
X10805000Y-11336428D01*
X10995476Y-11155476D02*
X11119286Y-11155476D01*
X11052619Y-11231667D01*
X11081190Y-11231667D01*
X11100238Y-11241190D01*
X11109762Y-11250714D01*
X11119286Y-11269762D01*
X11119286Y-11317381D01*
X11109762Y-11336428D01*
X11100238Y-11345952D01*
X11081190Y-11355476D01*
X11024048Y-11355476D01*
X11005000Y-11345952D01*
X10995476Y-11336428D01*
X11195476Y-11155476D02*
X11195476Y-11193571D01*
X11271667Y-11155476D02*
X11271667Y-11193571D01*
X11566905Y-11431667D02*
X11557381Y-11422143D01*
X11538333Y-11393571D01*
X11528809Y-11374524D01*
X11519286Y-11345952D01*
X11509762Y-11298333D01*
X11509762Y-11260238D01*
X11519286Y-11212619D01*
X11528809Y-11184048D01*
X11538333Y-11165000D01*
X11557381Y-11136429D01*
X11566905Y-11126905D01*
X11633571Y-11174524D02*
X11643095Y-11165000D01*
X11662143Y-11155476D01*
X11709762Y-11155476D01*
X11728809Y-11165000D01*
X11738333Y-11174524D01*
X11747857Y-11193571D01*
X11747857Y-11212619D01*
X11738333Y-11241190D01*
X11624048Y-11355476D01*
X11747857Y-11355476D01*
X11985952Y-11355476D02*
X11985952Y-11155476D01*
X12071667Y-11355476D02*
X12071667Y-11250714D01*
X12062143Y-11231667D01*
X12043095Y-11222143D01*
X12014524Y-11222143D01*
X11995476Y-11231667D01*
X11985952Y-11241190D01*
X12195476Y-11355476D02*
X12176428Y-11345952D01*
X12166905Y-11336428D01*
X12157381Y-11317381D01*
X12157381Y-11260238D01*
X12166905Y-11241190D01*
X12176428Y-11231667D01*
X12195476Y-11222143D01*
X12224048Y-11222143D01*
X12243095Y-11231667D01*
X12252619Y-11241190D01*
X12262143Y-11260238D01*
X12262143Y-11317381D01*
X12252619Y-11336428D01*
X12243095Y-11345952D01*
X12224048Y-11355476D01*
X12195476Y-11355476D01*
X12376428Y-11355476D02*
X12357381Y-11345952D01*
X12347857Y-11326905D01*
X12347857Y-11155476D01*
X12528809Y-11345952D02*
X12509762Y-11355476D01*
X12471667Y-11355476D01*
X12452619Y-11345952D01*
X12443095Y-11326905D01*
X12443095Y-11250714D01*
X12452619Y-11231667D01*
X12471667Y-11222143D01*
X12509762Y-11222143D01*
X12528809Y-11231667D01*
X12538333Y-11250714D01*
X12538333Y-11269762D01*
X12443095Y-11288809D01*
X12614524Y-11345952D02*
X12633571Y-11355476D01*
X12671667Y-11355476D01*
X12690714Y-11345952D01*
X12700238Y-11326905D01*
X12700238Y-11317381D01*
X12690714Y-11298333D01*
X12671667Y-11288809D01*
X12643095Y-11288809D01*
X12624048Y-11279286D01*
X12614524Y-11260238D01*
X12614524Y-11250714D01*
X12624048Y-11231667D01*
X12643095Y-11222143D01*
X12671667Y-11222143D01*
X12690714Y-11231667D01*
X12766905Y-11431667D02*
X12776428Y-11422143D01*
X12795476Y-11393571D01*
X12805000Y-11374524D01*
X12814524Y-11345952D01*
X12824048Y-11298333D01*
X12824048Y-11260238D01*
X12814524Y-11212619D01*
X12805000Y-11184048D01*
X12795476Y-11165000D01*
X12776428Y-11136429D01*
X12766905Y-11126905D01*
D18*
X7875000Y-11469000D02*
X7995000Y-11589000D01*
X7995000Y-11469000D02*
X7875000Y-11589000D01*
X7935000Y-11469000D02*
X7935000Y-11589000D01*
X7875000Y-11529000D02*
X7995000Y-11529000D01*
D11*
X8357381Y-11619476D02*
X8243095Y-11619476D01*
X8300238Y-11619476D02*
X8300238Y-11419476D01*
X8281190Y-11448048D01*
X8262143Y-11467095D01*
X8243095Y-11476619D01*
X8443095Y-11600428D02*
X8452619Y-11609952D01*
X8443095Y-11619476D01*
X8433571Y-11609952D01*
X8443095Y-11600428D01*
X8443095Y-11619476D01*
X8528810Y-11438524D02*
X8538333Y-11429000D01*
X8557381Y-11419476D01*
X8605000Y-11419476D01*
X8624048Y-11429000D01*
X8633571Y-11438524D01*
X8643095Y-11457571D01*
X8643095Y-11476619D01*
X8633571Y-11505190D01*
X8519286Y-11619476D01*
X8643095Y-11619476D01*
X8766905Y-11419476D02*
X8785952Y-11419476D01*
X8805000Y-11429000D01*
X8814524Y-11438524D01*
X8824048Y-11457571D01*
X8833571Y-11495667D01*
X8833571Y-11543286D01*
X8824048Y-11581381D01*
X8814524Y-11600428D01*
X8805000Y-11609952D01*
X8785952Y-11619476D01*
X8766905Y-11619476D01*
X8747857Y-11609952D01*
X8738333Y-11600428D01*
X8728810Y-11581381D01*
X8719286Y-11543286D01*
X8719286Y-11495667D01*
X8728810Y-11457571D01*
X8738333Y-11438524D01*
X8747857Y-11429000D01*
X8766905Y-11419476D01*
X8957381Y-11419476D02*
X8976429Y-11419476D01*
X8995476Y-11429000D01*
X9005000Y-11438524D01*
X9014524Y-11457571D01*
X9024048Y-11495667D01*
X9024048Y-11543286D01*
X9014524Y-11581381D01*
X9005000Y-11600428D01*
X8995476Y-11609952D01*
X8976429Y-11619476D01*
X8957381Y-11619476D01*
X8938333Y-11609952D01*
X8928810Y-11600428D01*
X8919286Y-11581381D01*
X8909762Y-11543286D01*
X8909762Y-11495667D01*
X8919286Y-11457571D01*
X8928810Y-11438524D01*
X8938333Y-11429000D01*
X8957381Y-11419476D01*
X9109762Y-11619476D02*
X9109762Y-11486143D01*
X9109762Y-11505190D02*
X9119286Y-11495667D01*
X9138333Y-11486143D01*
X9166905Y-11486143D01*
X9185952Y-11495667D01*
X9195476Y-11514714D01*
X9195476Y-11619476D01*
X9195476Y-11514714D02*
X9205000Y-11495667D01*
X9224048Y-11486143D01*
X9252619Y-11486143D01*
X9271667Y-11495667D01*
X9281190Y-11514714D01*
X9281190Y-11619476D01*
X9376429Y-11619476D02*
X9376429Y-11486143D01*
X9376429Y-11505190D02*
X9385952Y-11495667D01*
X9405000Y-11486143D01*
X9433571Y-11486143D01*
X9452619Y-11495667D01*
X9462143Y-11514714D01*
X9462143Y-11619476D01*
X9462143Y-11514714D02*
X9471667Y-11495667D01*
X9490714Y-11486143D01*
X9519286Y-11486143D01*
X9538333Y-11495667D01*
X9547857Y-11514714D01*
X9547857Y-11619476D01*
X9938333Y-11409952D02*
X9766905Y-11667095D01*
X10195476Y-11419476D02*
X10214524Y-11419476D01*
X10233571Y-11429000D01*
X10243095Y-11438524D01*
X10252619Y-11457571D01*
X10262143Y-11495667D01*
X10262143Y-11543286D01*
X10252619Y-11581381D01*
X10243095Y-11600428D01*
X10233571Y-11609952D01*
X10214524Y-11619476D01*
X10195476Y-11619476D01*
X10176429Y-11609952D01*
X10166905Y-11600428D01*
X10157381Y-11581381D01*
X10147857Y-11543286D01*
X10147857Y-11495667D01*
X10157381Y-11457571D01*
X10166905Y-11438524D01*
X10176429Y-11429000D01*
X10195476Y-11419476D01*
X10347857Y-11600428D02*
X10357381Y-11609952D01*
X10347857Y-11619476D01*
X10338333Y-11609952D01*
X10347857Y-11600428D01*
X10347857Y-11619476D01*
X10481190Y-11419476D02*
X10500238Y-11419476D01*
X10519286Y-11429000D01*
X10528810Y-11438524D01*
X10538333Y-11457571D01*
X10547857Y-11495667D01*
X10547857Y-11543286D01*
X10538333Y-11581381D01*
X10528810Y-11600428D01*
X10519286Y-11609952D01*
X10500238Y-11619476D01*
X10481190Y-11619476D01*
X10462143Y-11609952D01*
X10452619Y-11600428D01*
X10443095Y-11581381D01*
X10433571Y-11543286D01*
X10433571Y-11495667D01*
X10443095Y-11457571D01*
X10452619Y-11438524D01*
X10462143Y-11429000D01*
X10481190Y-11419476D01*
X10719286Y-11486143D02*
X10719286Y-11619476D01*
X10671667Y-11409952D02*
X10624048Y-11552809D01*
X10747857Y-11552809D01*
X10805000Y-11419476D02*
X10938333Y-11419476D01*
X10852619Y-11619476D01*
X11005000Y-11438524D02*
X11014524Y-11429000D01*
X11033571Y-11419476D01*
X11081190Y-11419476D01*
X11100238Y-11429000D01*
X11109762Y-11438524D01*
X11119286Y-11457571D01*
X11119286Y-11476619D01*
X11109762Y-11505190D01*
X10995476Y-11619476D01*
X11119286Y-11619476D01*
X11195476Y-11419476D02*
X11195476Y-11457571D01*
X11271667Y-11419476D02*
X11271667Y-11457571D01*
X11566905Y-11695667D02*
X11557381Y-11686143D01*
X11538333Y-11657571D01*
X11528809Y-11638524D01*
X11519286Y-11609952D01*
X11509762Y-11562333D01*
X11509762Y-11524238D01*
X11519286Y-11476619D01*
X11528809Y-11448048D01*
X11538333Y-11429000D01*
X11557381Y-11400428D01*
X11566905Y-11390905D01*
X11728809Y-11486143D02*
X11728809Y-11619476D01*
X11681190Y-11409952D02*
X11633571Y-11552809D01*
X11757381Y-11552809D01*
X11985952Y-11619476D02*
X11985952Y-11419476D01*
X12071667Y-11619476D02*
X12071667Y-11514714D01*
X12062143Y-11495667D01*
X12043095Y-11486143D01*
X12014524Y-11486143D01*
X11995476Y-11495667D01*
X11985952Y-11505190D01*
X12195476Y-11619476D02*
X12176428Y-11609952D01*
X12166905Y-11600428D01*
X12157381Y-11581381D01*
X12157381Y-11524238D01*
X12166905Y-11505190D01*
X12176428Y-11495667D01*
X12195476Y-11486143D01*
X12224048Y-11486143D01*
X12243095Y-11495667D01*
X12252619Y-11505190D01*
X12262143Y-11524238D01*
X12262143Y-11581381D01*
X12252619Y-11600428D01*
X12243095Y-11609952D01*
X12224048Y-11619476D01*
X12195476Y-11619476D01*
X12376428Y-11619476D02*
X12357381Y-11609952D01*
X12347857Y-11590905D01*
X12347857Y-11419476D01*
X12528809Y-11609952D02*
X12509762Y-11619476D01*
X12471667Y-11619476D01*
X12452619Y-11609952D01*
X12443095Y-11590905D01*
X12443095Y-11514714D01*
X12452619Y-11495667D01*
X12471667Y-11486143D01*
X12509762Y-11486143D01*
X12528809Y-11495667D01*
X12538333Y-11514714D01*
X12538333Y-11533762D01*
X12443095Y-11552809D01*
X12614524Y-11609952D02*
X12633571Y-11619476D01*
X12671667Y-11619476D01*
X12690714Y-11609952D01*
X12700238Y-11590905D01*
X12700238Y-11581381D01*
X12690714Y-11562333D01*
X12671667Y-11552809D01*
X12643095Y-11552809D01*
X12624048Y-11543286D01*
X12614524Y-11524238D01*
X12614524Y-11514714D01*
X12624048Y-11495667D01*
X12643095Y-11486143D01*
X12671667Y-11486143D01*
X12690714Y-11495667D01*
X12766905Y-11695667D02*
X12776428Y-11686143D01*
X12795476Y-11657571D01*
X12805000Y-11638524D01*
X12814524Y-11609952D01*
X12824048Y-11562333D01*
X12824048Y-11524238D01*
X12814524Y-11476619D01*
X12805000Y-11448048D01*
X12795476Y-11429000D01*
X12776428Y-11400428D01*
X12766905Y-11390905D01*
M02*
