M48
; DRILL file {KiCad (6.0.4-0)} date Tuesday, July 12, 2022 at 04:50:57 PM
; FORMAT={-:-/ absolute / metric / decimal}
; #@! TF.CreationDate,2022-07-12T16:50:57-04:00
; #@! TF.GenerationSoftware,Kicad,Pcbnew,(6.0.4-0)
; #@! TF.FileFunction,Plated,1,2,PTH
FMAT,2
METRIC
; #@! TA.AperFunction,Plated,PTH,ViaDrill
T1C0.300
; #@! TA.AperFunction,Plated,PTH,ComponentDrill
T2C0.331
; #@! TA.AperFunction,Plated,PTH,ViaDrill
T3C0.400
; #@! TA.AperFunction,Plated,PTH,ViaDrill
T4C0.500
; #@! TA.AperFunction,Plated,PTH,ComponentDrill
T5C1.000
; #@! TA.AperFunction,Plated,PTH,ComponentDrill
T6C1.100
; #@! TA.AperFunction,Plated,PTH,ComponentDrill
T7C1.200
%
G90
G05
T1
X98.55Y-81.51
X99.65Y-67.87
X104.12Y-78.48
X108.85Y-75.8
X109.59Y-77.86
X112.48Y-73.4
X128.95Y-89.92
T2
X144.12Y-60.04
X152.12Y-60.04
X167.89Y-75.96
X167.89Y-83.96
T3
X81.24Y-82.49
X81.28Y-84.62
X81.28Y-86.53
X82.37Y-64.89
X82.39Y-63.44
X82.91Y-66.9
X84.479Y-73.88
X85.42Y-69.46
X86.53Y-91.8
X86.91Y-75.48
X86.91Y-76.89
X86.93Y-72.02
X86.94Y-73.9
X87.44Y-57.33
X88.53Y-91.8
X89.01Y-78.72
X89.44Y-57.33
X89.55Y-62.74
X90.12Y-75.8
X90.54Y-61.17
X90.57Y-91.77
X91.45Y-74.75
X91.53Y-57.31
X92.28Y-73.04
X92.41Y-61.18
X92.58Y-91.75
X93.5Y-57.31
X94.59Y-91.72
X94.83Y-84.67
X94.92Y-61.77
X94.974Y-64.624
X95.01Y-66.59
X95.03Y-68.5
X95.53Y-57.31
X96.31Y-85.61
X96.57Y-91.79
X97.42Y-57.28
X97.81Y-84.71
X98.55Y-91.79
X99.53Y-57.31
X99.97Y-71.75
X100.18Y-78.05
X100.61Y-91.76
X101.37Y-64.03
X101.46Y-66.51
X101.52Y-57.35
X101.66Y-71.51
X102.13Y-82.43
X102.17Y-77.98
X102.53Y-91.7
X103.08Y-73.36
X103.29Y-71.95
X103.55Y-57.31
X103.58Y-64.48
X104.33Y-66.49
X104.54Y-91.73
X104.55Y-82.41
X105.51Y-57.31
X107.51Y-57.25
X108.22Y-78.87
X108.97Y-83.5
X109.07Y-61.0
X109.166Y-69.586
X109.5Y-57.31
X109.81Y-79.88
X109.81Y-81.6
X109.86Y-64.52
X109.99Y-62.32
X110.05Y-66.07
X110.62Y-91.79
X111.38Y-70.09
X111.53Y-57.31
X111.7Y-76.05
X112.03Y-63.34
X112.04Y-91.79
X112.47Y-69.03
X113.0Y-65.14
X113.064Y-76.981
X113.11Y-71.143
X113.5Y-57.32
X114.77Y-81.26
X115.57Y-57.36
X115.93Y-82.4
X116.11Y-84.14
X116.47Y-92.16
X116.54Y-80.25
X117.383Y-81.064
X117.6Y-57.38
X118.06Y-78.83
X118.09Y-65.14
X118.46Y-80.28
X118.54Y-92.23
X119.54Y-57.42
X120.1Y-61.66
X120.26Y-60.37
X120.5Y-92.25
X121.03Y-76.027
X121.07Y-77.68
X121.49Y-71.65
X121.57Y-57.4
X122.12Y-60.37
X122.44Y-61.72
X122.55Y-92.25
X123.58Y-57.39
X123.61Y-65.91
X123.98Y-67.07
X124.53Y-92.32
X125.08Y-69.6
X125.119Y-61.859
X125.15Y-63.58
X125.64Y-57.38
X126.54Y-92.28
X126.86Y-70.9
X127.03Y-68.94
X127.59Y-57.43
X128.08Y-65.63
X128.08Y-67.6
X128.52Y-92.32
X129.47Y-57.35
X130.1Y-85.15
X130.55Y-92.34
X131.15Y-58.63
X131.53Y-57.35
X132.56Y-92.34
X132.66Y-84.74
X133.05Y-72.46
X133.1Y-68.9
X133.53Y-57.35
X133.67Y-77.53
X133.74Y-86.47
X133.95Y-67.47
X134.08Y-68.592
X134.47Y-92.34
X135.27Y-72.46
X135.5Y-57.27
X135.71Y-77.45
X135.95Y-79.91
X136.51Y-92.31
X136.59Y-75.21
X136.63Y-76.5
X136.69Y-73.96
X137.13Y-84.6
X137.54Y-57.35
X137.57Y-63.28
X137.81Y-67.84
X138.14Y-88.02
X138.46Y-84.81
X138.51Y-92.33
X138.79Y-74.38
X138.82Y-76.4
X139.25Y-64.72
X139.43Y-86.93
X139.5Y-57.32
X139.77Y-71.05
X139.81Y-68.93
X140.29Y-65.94
X140.47Y-74.39
X140.49Y-85.83
X140.54Y-62.47
X140.55Y-92.31
X141.48Y-67.04
X141.57Y-57.29
X141.64Y-78.86
X141.72Y-70.63
X141.88Y-74.38
X142.51Y-92.33
X142.59Y-79.57
X142.69Y-68.26
X142.94Y-80.82
X143.46Y-72.06
X143.48Y-57.29
X143.95Y-78.77
X144.27Y-69.27
X144.5Y-92.33
X144.82Y-73.56
X145.53Y-57.35
X146.21Y-79.79
X146.47Y-92.33
X146.78Y-74.39
X146.86Y-80.81
X146.88Y-76.38
X147.49Y-57.35
X148.07Y-77.91
X148.41Y-84.52
X148.56Y-92.33
X148.63Y-79.17
X148.96Y-80.59
X149.51Y-57.29
X150.36Y-81.82
X150.46Y-83.82
X150.61Y-92.33
X151.55Y-57.29
X152.55Y-92.31
X153.51Y-57.29
X154.44Y-92.32
X155.54Y-57.35
X156.52Y-92.29
X157.52Y-57.35
X158.54Y-92.29
X159.51Y-57.35
X160.56Y-92.32
X161.49Y-57.35
X162.46Y-92.32
X162.64Y-75.37
X163.53Y-57.35
X163.95Y-74.17
X164.98Y-72.86
X166.29Y-71.36
X167.49Y-70.22
X168.3Y-63.32
X168.39Y-65.66
X168.79Y-73.65
X168.83Y-71.62
X168.83Y-78.11
X168.83Y-80.3
X168.91Y-82.25
X168.91Y-85.9
T4
X88.11Y-71.49
X90.05Y-67.79
X100.465Y-62.534
X101.31Y-74.87
X101.73Y-75.78
X117.72Y-74.08
T5
X94.92Y-89.88
X95.51Y-74.03
X95.51Y-76.57
X97.46Y-89.88
X100.0Y-89.88
X102.54Y-89.88
X104.26Y-85.21
X106.8Y-85.21
X110.72Y-85.28
X113.26Y-85.28
X118.65Y-69.475
X121.19Y-69.475
X126.1Y-72.76
X126.1Y-75.3
X126.1Y-77.84
X126.1Y-80.38
X147.46Y-59.14
X147.46Y-61.68
X164.35Y-80.825
X164.35Y-83.365
T6
X159.675Y-68.27
X167.725Y-68.27
T7
X151.248Y-67.065
X155.657Y-66.905
X156.737Y-70.265
X159.907Y-75.185
T0
M30
